<?xml version="1.0" encoding="UTF-8" standalone="no"?>
<svg
   xmlns:ooo="http://xml.openoffice.org/svg/export"
   xmlns:dc="http://purl.org/dc/elements/1.1/"
   xmlns:cc="http://creativecommons.org/ns#"
   xmlns:rdf="http://www.w3.org/1999/02/22-rdf-syntax-ns#"
   xmlns:svg="http://www.w3.org/2000/svg"
   xmlns="http://www.w3.org/2000/svg"
   style="fill-rule:evenodd;stroke-width:28.22200012;stroke-linejoin:round"
   id="svg2"
   xml:space="preserve"
   preserveAspectRatio="xMidYMid"
   viewBox="6247 10541 1647 2217.0002"
   height="22.170002mm"
   width="16.469999mm"
   version="1.2"><metadata
     id="metadata82"><rdf:RDF><cc:Work
         rdf:about=""><dc:format>image/svg+xml</dc:format><dc:type
           rdf:resource="http://purl.org/dc/dcmitype/StillImage" /><dc:title></dc:title></cc:Work></rdf:RDF></metadata><defs
     id="defs4"
     class="ClipPathGroup"><clipPath
       clipPathUnits="userSpaceOnUse"
       id="presentation_clip_path"><rect
         id="rect7"
         height="2217"
         width="2547"
         y="10541"
         x="6247" /></clipPath></defs><defs
     id="defs9"
     class="TextShapeIndex"><g
       id="g11"
       ooo:id-list="id3"
       ooo:slide="id1" /></defs><defs
     id="defs13"
     class="EmbeddedBulletChars"><g
       transform="scale(4.8828125e-4,-4.8828125e-4)"
       id="bullet-char-template(57356)"><path
         id="path16"
         d="M 580,1141 1163,571 580,0 -4,571 580,1141 Z" /></g><g
       transform="scale(4.8828125e-4,-4.8828125e-4)"
       id="bullet-char-template(57354)"><path
         id="path19"
         d="m 8,1128 1129,0 L 1137,0 8,0 8,1128 Z" /></g><g
       transform="scale(4.8828125e-4,-4.8828125e-4)"
       id="bullet-char-template(10146)"><path
         id="path22"
         d="M 174,0 602,739 174,1481 1456,739 174,0 Z m 1184,739 -1049,607 350,-607 699,0 z" /></g><g
       transform="scale(4.8828125e-4,-4.8828125e-4)"
       id="bullet-char-template(10132)"><path
         id="path25"
         d="M 2015,739 1276,0 717,0 l 543,543 -1086,0 0,393 1086,0 -543,545 557,0 741,-742 z" /></g><g
       transform="scale(4.8828125e-4,-4.8828125e-4)"
       id="bullet-char-template(10007)"><path
         id="path28"
         d="m 0,-2 c -7,16 -16,29 -25,39 l 381,530 c -94,256 -141,385 -141,387 0,25 13,38 40,38 9,0 21,-2 34,-5 21,4 42,12 65,25 l 27,-13 111,-251 280,301 64,-25 24,25 c 21,-10 41,-24 62,-43 C 886,937 835,863 770,784 769,783 710,716 594,584 L 774,223 c 0,-27 -21,-55 -63,-84 l 16,-20 C 717,90 699,76 672,76 641,76 570,178 457,381 L 164,-76 c -22,-34 -53,-51 -92,-51 -42,0 -63,17 -64,51 -7,9 -10,24 -10,44 0,9 1,19 2,30 z" /></g><g
       transform="scale(4.8828125e-4,-4.8828125e-4)"
       id="bullet-char-template(10004)"><path
         id="path31"
         d="M 285,-33 C 182,-33 111,30 74,156 52,228 41,333 41,471 c 0,78 14,145 41,201 34,71 87,106 158,106 53,0 88,-31 106,-94 l 23,-176 c 8,-64 28,-97 59,-98 l 735,706 c 11,11 33,17 66,17 42,0 63,-15 63,-46 l 0,-122 c 0,-36 -10,-64 -30,-84 L 442,47 C 390,-6 338,-33 285,-33 Z" /></g><g
       transform="scale(4.8828125e-4,-4.8828125e-4)"
       id="bullet-char-template(9679)"><path
         id="path34"
         d="M 813,0 C 632,0 489,54 383,161 276,268 223,411 223,592 c 0,181 53,324 160,431 106,107 249,161 430,161 179,0 323,-54 432,-161 108,-107 162,-251 162,-431 0,-180 -54,-324 -162,-431 C 1136,54 992,0 813,0 Z" /></g><g
       transform="scale(4.8828125e-4,-4.8828125e-4)"
       id="bullet-char-template(8226)"><path
         id="path37"
         d="m 346,457 c -73,0 -137,26 -191,78 -54,51 -81,114 -81,188 0,73 27,136 81,188 54,52 118,78 191,78 73,0 134,-26 185,-79 51,-51 77,-114 77,-187 0,-75 -25,-137 -76,-188 -50,-52 -112,-78 -186,-78 z" /></g><g
       transform="scale(4.8828125e-4,-4.8828125e-4)"
       id="bullet-char-template(8211)"><path
         id="path40"
         d="m -4,459 1139,0 0,147 -1139,0 0,-147 z" /></g></defs><defs
     id="defs42"
     class="TextEmbeddedBitmaps" /><g
     id="g44"
     class="SlideGroup"><g
       id="g46"><g
         clip-path="url(#presentation_clip_path)"
         class="Slide"
         id="id1"><g
           id="g49"
           class="Page"><g
             id="g51"
             class="com.sun.star.drawing.CustomShape"><g
               id="id3"><rect
                 style="fill:none;stroke:none"
                 id="rect54"
                 height="2219"
                 width="2549"
                 y="10541"
                 x="6246"
                 class="BoundingBox" /><defs
                 id="defs56"><mask
                   id="mask1"><g
                     id="g59"><defs
                       id="defs61"><linearGradient
                         gradientUnits="userSpaceOnUse"
                         y2="12759"
                         x2="7590"
                         y1="10541"
                         x1="7590"
                         id="gradient1"><stop
                           id="stop64"
                           style="stop-color:rgb(38,38,38)"
                           offset="0.5" /><stop
                           id="stop66"
                           style="stop-color:rgb(38,38,38)"
                           offset="0.5" /><stop
                           id="stop68"
                           style="stop-color:rgb(38,38,38)"
                           offset="1" /><stop
                           id="stop70"
                           style="stop-color:rgb(38,38,38)"
                           offset="1" /></linearGradient></defs><path
                       id="path72"
                       d="m 6388,10541 2405,0 0,2218 -2405,0 0,-2218 z"
                       style="fill:url(#gradient1)" /></g></mask></defs><g
                 mask="url(#mask1)"
                 id="g74"><path
                   style="fill:#808080;stroke:none"
                   id="path76"
                   d="m 7753,10610 69,257 -11,-11 -794,794 794,794 11,-11 -69,257 -257,69 11,-11 -1098,-1098 1098,-1098 -11,-11 257,69 z m 1040,1040 0,0 z m -2405,0 0,0 z" /></g><path
                 style="fill:#ffffff;stroke:none"
                 id="path78"
                 d="m 7612,10610 69,257 -11,-11 -794,794 794,794 11,-11 -69,257 -257,69 11,-11 -1098,-1098 1098,-1098 -11,-11 257,69 z m 1040,1040 0,0 z m -2405,0 0,0 z" /></g></g></g></g></g></g></svg>