<?xml version="1.0" encoding="UTF-8" standalone="no"?>
<!-- Generator: Adobe Illustrator 16.0.0, SVG Export Plug-In . SVG Version: 6.00 Build 0)  -->

<svg
   xmlns:dc="http://purl.org/dc/elements/1.1/"
   xmlns:cc="http://creativecommons.org/ns#"
   xmlns:rdf="http://www.w3.org/1999/02/22-rdf-syntax-ns#"
   xmlns:svg="http://www.w3.org/2000/svg"
   xmlns="http://www.w3.org/2000/svg"
   xmlns:sodipodi="http://sodipodi.sourceforge.net/DTD/sodipodi-0.dtd"
   xmlns:inkscape="http://www.inkscape.org/namespaces/inkscape"
   version="1.1"
   id="Capa_1"
   x="0px"
   y="0px"
   width="300px"
   height="300px"
   viewBox="0 0 300 300"
   enable-background="new 0 0 300 300"
   xml:space="preserve"
   inkscape:version="0.91 r13725"
   sodipodi:docname="carajarronbn.svg"><metadata
     id="metadata47"><rdf:RDF><cc:Work
         rdf:about=""><dc:format>image/svg+xml</dc:format><dc:type
           rdf:resource="http://purl.org/dc/dcmitype/StillImage" /></cc:Work></rdf:RDF></metadata><defs
     id="defs45" /><sodipodi:namedview
     pagecolor="#ffffff"
     bordercolor="#666666"
     borderopacity="1"
     objecttolerance="10"
     gridtolerance="10"
     guidetolerance="10"
     inkscape:pageopacity="0"
     inkscape:pageshadow="2"
     inkscape:window-width="1440"
     inkscape:window-height="871"
     id="namedview43"
     showgrid="false"
     inkscape:zoom="0.78666667"
     inkscape:cx="-27.330508"
     inkscape:cy="150"
     inkscape:window-x="0"
     inkscape:window-y="0"
     inkscape:window-maximized="1"
     inkscape:current-layer="Capa_1" /><path
     fill="#FFFFFF"
     d="M261.447,245.852c22.264-25.747,35.741-59.307,35.741-96.022c0-36.598-13.385-70.067-35.525-95.786  c-0.056,0.006-0.109,0.018-0.165,0.024l0.002,0.005l-33.902,18.689l-0.126-0.114l18.745-33.872l0.087,0.086  c0.013-0.059,0.024-0.117,0.037-0.178c-0.037-0.032-0.076-0.068-0.114-0.1c-1.323-1.143-2.671-2.263-4.035-3.359  c-25.159-20.199-57.113-32.284-91.89-32.284c-36.641,0-70.101,13.462-95.818,35.663l18.625,34.042L39.122,54.028l-0.3,0.249  C16.774,79.967,3.414,113.322,3.414,149.83c0,36.693,13.485,70.216,35.73,95.958l33.861-18.667l0.129,0.114l-18.716,33.82  c25.733,22.203,59.227,35.661,95.883,35.661c35.459,0,67.985-12.564,93.365-33.484c0.837-0.69,1.662-1.396,2.483-2.104  l-18.684-33.891l0.114-0.129L261.447,245.852z"
     id="path3" /><g
     id="g5"
     style="fill:#4d4d4d;opacity:0.28"><path
       d="M130.036,44.914c3.917,1.395,3.687,3.619,2.784,6.644c-1.978,6.625-3.527,13.405-5.966,19.851   c-1.194,3.152-0.589,4.472,2.254,4.938c13.727,2.246,27.481,4.575,40.896-1.559c-2.453-7.368-5.009-14.706-7.318-22.12   c-1.045-3.361-2.64-6.622,2.704-8.834c4.804-1.988,3.093-6.084,0.693-9.475c-12.787-3.544-25.567-4.538-38.332,0.104   C124.832,38.764,124.278,42.864,130.036,44.914z"
       id="path7"
       style="fill:#4d4d4d" /><path
       d="M129.581,86.555c0.507-0.018,1.012-0.025,1.519-0.042c10.193-2.121,20.411-1.786,30.64,0.021   c0.738,0.13,1.48,0.252,2.219,0.399c0.137,0.042,0.274,0.083,0.412,0.124c0.021-0.014,0.029-0.027,0.051-0.041   c7.267,0.419,13.644,3.412,19.862,6.862c13.115,4.809,21.549,16.638,33.617,23.083c-9.04-19.009-24.658-30.448-42.934-38.894   c-16.629,3.375-33.268,5.173-49.826-0.256c-1.982-0.649-3.446,0.085-4.945,0.753c-12.458,5.558-24.308,12.05-33.433,22.56   c-3.276,1.053-5.374,3.467-6.99,6.311c-1.704,2.991-4.751,6.749-1.446,9.455c0.191,0.156,0.373,0.276,0.556,0.395   c2.757-1.248,4.889-3.096,6.89-5.191C97.934,99.379,112.616,91.038,129.581,86.555z"
       id="path9"
       style="fill:#4d4d4d" /><path
       d="M73.846,130.555c1.578,1.217,3.246,2.542,4.897,3.053c2.841-1.13,4.826-3.423,6.634-6.114   c0.077-0.112,0.157-0.219,0.235-0.33c0.013-0.016,0.024-0.031,0.039-0.048c0.94-1.165,1.898-2.273,2.864-3.369   c36.132-40.983,90.048-33.504,119.423,2.221c1.742,1.95,3.996,3.649,5.1,5.912c1.388,2.852,2.948,2.6,4.359,0.77   c1.907-2.476,8.071-1.376,6.21-6.587c-0.814-2.28-1.539-7.489-4.378-6.14c-5.411,2.574-6.689-1.503-9.092-3.823   c-8.409-8.123-17.601-15.128-28.017-20.479c-5.926-2.191-11.851-4.381-17.776-6.57c-12.299-1.28-24.611-0.909-36.924-0.342   c0.036-0.178,0.053-0.357,0.069-0.537c-15.746,4.667-29.603,12.455-40.928,24.685c-1.974,2.131-4.102,6.748-7.68,4.427   c-0.257,0.116-0.486,0.258-0.756,0.363c-6.264,2.447-8.569,6.673-4.334,12.824C73.811,130.499,73.826,130.526,73.846,130.555z"
       id="path11"
       style="fill:#4d4d4d" /><path
       d="M243.768,151.742c-6.169-0.375-12.195,0.514-18.212,1.666c-0.471-3.172,1.408-3.965,4.055-4.094   c3.756-0.184,7.521-0.316,11.258-0.708c3.183-0.333,7.516-1.373,7.065-4.714c-0.575-4.274-4.6-4.117-8.34-2.645   c-2.645,1.042-5.536,1.452-8.317,2.145c-1.607,2.363-3.963,3.518-6.419,4.507c-0.813,0.329-1.637,0.639-2.449,0.969   c-0.623-2.988-1.247-5.974-1.872-8.961c-16.644,7.13-33.845,6.822-51.247,3.855c-0.288-0.038-0.581-0.06-0.866-0.115   c-13.896-2.687-13.889-2.687-14.47,11.719c-0.032,0.824-0.344,1.637-0.602,2.799c-4.511-16.414-0.92-24.803,11.742-28.067   c10.216-2.634,20.374,2.617,22.533,11.648c-1.57-1.462-3.111-2.735-4.629-3.854c-5.354-3.949-10.378-5.776-15.126-5.455   c-3.623,0.246-7.086,1.733-10.411,4.467c-0.243,0.201-0.433,0.472-0.614,0.771c-0.261,0.429-0.501,0.926-0.825,1.437   c5.102,0.817,9.973,1.596,14.818,2.371c0.748,0.12,1.498,0.24,2.246,0.359c4.383,0.104,8.767,0.206,13.149,0.308   c0.799,0.019,1.597,0.037,2.396,0.056c9.81,0.306,19.657,0.849,28.605-4.426c-5.825-1.067-7.081-6.809-10.539-10.301   c-3.209-3.338-6.473-6.542-11.758-4.752c-7.717,2.438-15.689,2.661-23.679,2.773c-16.86-0.011-33.722-0.021-50.586-0.031   c-6.619-0.102-13.207-0.426-19.556-2.42c-0.649-0.205-1.299-0.408-1.943-0.649c-8.927-1.946-11.101,6.012-14.959,10.819   c-2.681,3.339-4.536,4.154-7.78,1.565c-0.326,0.062-0.612,0.061-0.875,0.029c-1.049-0.126-1.643-0.928-2.048-2.009   c-0.05-0.335-0.067-0.659-0.055-0.973c-1.858-1.757-3.927-1.832-6.247,0.142c0.13,0.285,0.25,0.593,0.36,0.918   c0.055-0.057,0.107-0.117,0.162-0.172c-0.089,4.12-0.182,8.241-0.271,12.361c0.658,0.555,1.315,1.112,1.976,1.667l-0.216,0.45   c0.209-0.031,0.418-0.061,0.628-0.091c0.438-0.063,0.875-0.127,1.313-0.19c1.677,3.845,6.844,7.136,1.907,12.03   c3.474,0.605,7.333,2.464,4.465,5.961c-3.255,3.977,6.723,5.77,0.579,8.895c-0.511,0.409-1.021,0.817-1.532,1.229   c-0.19,2.963,7.614,1.919,3.446,6.875c-0.608-1.138-1.239-2.025-1.882-2.732c-0.377-0.263-0.777-0.464-1.215-0.579   c-1.275-0.341-2.791-0.129-4.459,0.277c-3.291,0.804-6.71,1.086-10.072,1.598c-2.258,1.729-6.926,2.265-3.407,6.861   c5.551,1.474,10.294-1.553,15.345-2.872c-0.343,0.215-0.693,0.422-1.04,0.632c-4.219,2.554-12.065,3.748-9.368,10.186   c2.653,6.332,9.103,2.119,13.846,0.519c6.177-2.088,10.841-0.561,14.007,5.209c2.804,5.113,5.619,10.313,9.449,14.662   c6.613,7.504,12.112,16.508,22.841,19.169c17.426,7.961,34.903,9.361,51.592-1.379c11.476-7.385,18.986-18.584,25.791-30.235   c1.586-2.714,1.919-7.083,6.673-6.896c5.18-1.498,8.774,2.088,12.891,4.01c1.303,0.61,2.602,1.232,3.921,1.806   c2.378,1.027,4.725,0.95,6.027-1.48c1.423-2.655-0.499-4.512-2.543-5.647c-2.985-1.658-6.207-2.891-9.329-4.303   c-1.357-0.851-2.717-1.703-4.075-2.556c-0.419-0.263-0.84-0.528-1.261-0.791c0.911-6.897,0.467-14.457,8.692-17.776   c0.183,0.026,0.366,0.054,0.549,0.081c1.676,0.249,3.349,0.497,5.022,0.747c3.492-0.108,6.982-0.264,10.476-0.311   c3.485-0.044,8.201,0.194,8.152-4.072c-0.046-4.025-4.988-4.447-8.347-4.433c-5.438,0.021-10.935,1.35-15.943-1.94   c-1.601-1.871-2.949-3.744-0.032-5.64c2.78,5.136,14.339,7.03,22.23,3.734c1.692-0.708,3.624-1.576,3.315-3.414   C247.596,152.674,245.748,151.862,243.768,151.742z M165.004,210.319c-9.766,9.812-22.476,10.045-33.135-0.63   c11.123,4.55,20.995,6.577,30.64,0.411c2.91-4.11,6.334-4.329,11.169-2.007C170.5,211.086,167.509,209.52,165.004,210.319z    M160.183,171.479c1.994,4.315,8.924,6.249,5.033,12.121c-2.72,4.101-7.61,4.76-11.295,7.316c-0.011,5.503-5.107,7.035-7.479,4.978   c-5.265-4.567-12.124-7.7-15.429-14.296c-1.113-2.219,0.33-3.83,2.708-4.4c-1.63,2.836-0.616,5.66,1.75,6.761   c3.864,1.797,6.559,4.464,9.232,7.614c3,3.536,6.11,0.927,9.04-0.674c-0.313-4.423,3.464-4.517,6.186-5.869   c2.98-1.477,6.209-3.393,2.609-7.075c-2.917-2.987-7.403-3.524-10.983-5.835c-3.237-2.088-9.441-1.672-12.898,3.155   c-0.4,0.562-1.617,0.533-2.458,0.778c0.359-3.895-1.711-4.512-5.182-4.67c-7.581-0.345-15.134-1.298-22.7-2.002   c-8.513-2.279-17.685-1.241-25.853-5.551c9.514-0.274,18.813,1.134,28.034,3.218c0.614,0.139,1.227,0.284,1.84,0.428   c0.479,0.148,0.956,0.288,1.402,0.327c6.396,0.342,12.933-0.037,19.151,1.198c9.074,1.804,4.799-7.774,9.146-9.7   c-0.241-5.782-0.48-11.563-0.719-17.346c-9.333-0.847-17.992,4.719-27.427,2.881c-8.519-0.006-17.264,2.106-27.477-3.281   c8.852,0,15.51,0,22.167,0c0.615-9.607,12.384-15.267,23.878-11.281c3.763,1.305,7.494,3.003,9.166,7.154   c0.197,0.373,0.358,0.744,0.476,1.111c2.682,6.754,0.882,13.734,0.622,20.636c-0.763,3.34-1.525,6.68-2.288,10.026   c7.901,2.076,15.567-0.694,23.406,0.072c8.3,0.812,16.895-0.81,25.305-1.828c8.48-1.027,16.893-2.615,25.482-2.762   C197.073,169.5,179.254,172.255,160.183,171.479z"
       id="path13"
       style="fill:#4d4d4d" /><path
       d="M238.301,173.454c-3.604-0.803-7.354-0.964-11.041-1.396h-0.001c-1.889,0.265-4.151-0.386-5.898,0.26   c-0.777,1.153-1.422,2.364-1.997,3.604c0.559,1.087,2.192,1.736,3.121,2.627c4.796,0.809,9.578,1.756,14.399,2.373   c2.616,0.334,5.826,0.075,6.488-2.898C244.145,174.567,240.628,173.973,238.301,173.454z"
       id="path15"
       style="fill:#4d4d4d" /><path
       d="M232.021,183.719c-3.264-0.979-6.508-2.025-9.762-3.043c-1.613,0.193-3.533-0.171-4.938,0.516   c-0.418,1.265-0.816,2.539-1.226,3.809c0.81,0.912,2.398,1.426,2.871,2.609c3.506,1.271,6.946,2.81,10.544,3.722   c2.701,0.684,6.264,1.416,7.186-2.47C237.465,185.631,234.661,184.508,232.021,183.719z"
       id="path17"
       style="fill:#4d4d4d" /><path
       d="M244.974,133.883c0.862-2.08-0.33-3.216-1.982-4.061c-4.184-2.143-10.313,1.434-11.671,6.761   C234.747,139.29,243.414,137.628,244.974,133.883z"
       id="path19"
       style="fill:#4d4d4d" /><path
       d="M222.9,139.834c-0.271,0.262-0.544,0.403-0.819,0.486c0.037,0.228,0.073,0.446,0.11,0.66   c0.713,0.812,1.155,1.807,1.5,2.868c1.432,1.083,3.579,0.51,5.898-0.455c0.002,0,0.004-0.001,0.005-0.003   c-0.892-2.622,3.059-4.148,1.576-6.906l-0.009-0.015c0.001,0,0.004,0.001,0.005,0.003c-2.77-4.185-5.528-8.513-8.964-0.297   C223.408,137.21,223.497,138.458,222.9,139.834z"
       id="path21"
       style="fill:#4d4d4d" /><path
       d="M173.022,141.945c0.019-0.037,0.045-0.063,0.063-0.102c-0.102,0.029-0.201,0.044-0.303,0.069   C172.862,141.924,172.943,141.934,173.022,141.945z"
       id="path23"
       style="fill:#4d4d4d" /><path
       d="M75.7,175.123c0.008-0.949,0.153-1.885,0.315-2.821c-0.032-0.604-0.059-1.209-0.091-1.813   c-1.247-1.007-2.868-1.391-4.953-1.009c-4.188,0.803-8.545,0.166-12.673,1.841c-2.786,1.132-4.691,2.232-2.977,5.546   c0.908,0.134,1.823,0.314,2.738,0.517C64.062,178.048,69.813,175.782,75.7,175.123z"
       id="path25"
       style="fill:#4d4d4d" /><path
       d="M110.826,141.644c1.381,0.028,2.763,0.056,4.142,0.084c1.291,0.026,2.583,0.052,3.874,0.079   c6.859,0.013,13.332-2.999,20.759-1.958c-9.306-11.183-23.917-10.005-30.118,1.766c0,0-0.002,0.001-0.002,0.002   c-0.282-0.261-0.581-0.282-0.897-0.062C109.318,141.972,110.064,142.017,110.826,141.644z"
       id="path27"
       style="fill:#4d4d4d" /><path
       d="M153.862,190.835c-0.04,0.02-0.08,0.043-0.119,0.063c0.004,0.044,0.003,0.081,0.005,0.126   c0.004-0.002,0.008-0.005,0.013-0.007c0.051-0.037,0.106-0.065,0.16-0.102c0-0.04,0.005-0.076,0.005-0.116   C153.905,190.811,153.885,190.823,153.862,190.835z"
       id="path29"
       style="fill:#4d4d4d" /><path
       d="M162.509,210.101c0.832,0.073,1.664,0.146,2.495,0.219C164.237,209.515,163.406,209.441,162.509,210.101z"
       id="path31"
       style="fill:#4d4d4d" /><path
       d="M190.28,116.137c-20.811-16.985-59.614-18.67-81.579-3.094c-2.675,1.897-5.173,3.874-5.324,7.368   c-0.21,0.103-0.428,0.193-0.63,0.303c0.208,0.009,0.416,0.02,0.625,0.03c0,0.108-0.007,0.212-0.002,0.323   c6.093,0.769,12.079,2.382,18.287,2.155c0.112-0.003,0.224,0.004,0.336-0.001c1.704,0.001,3.405-0.001,5.107,0   c0.811,0.159,1.619,0.316,2.426,0.498c10.354,0.026,20.709,0.053,31.064,0.081c0.354,0.163,0.718,0.265,1.088,0.339   c-0.147-0.138-0.289-0.298-0.426-0.473c0.736-0.164,1.477-0.31,2.214-0.447c2.19,0,4.387,0,6.577,0   c6.98,0.487,13.761-0.792,20.534-2.137c0.046-0.104,0.097-0.205,0.153-0.305c0.044-0.005,0.087-0.008,0.132-0.014   c-0.035-0.013-0.069-0.023-0.103-0.038C191.53,119.392,192.982,118.344,190.28,116.137z"
       id="path33"
       style="fill:#4d4d4d" /><path
       d="M71.032,166.475h0.001c1.688-0.894,3.655-1.696,3.69-3.124c-0.253-0.675-0.573-1.329-0.955-1.965   c-0.229-0.261-0.491-0.531-0.821-0.824c-0.607,0.403-1.029,0.54-1.319,0.484c-0.505-0.095-0.597-0.786-0.501-1.747   c-4.632,0.075-9.268,0.078-13.893,0.259c-2.245,0.088-5.05-0.159-5.351,3.071c-0.351,3.751,2.99,4.255,5.314,4.38   C61.789,167.258,66.419,166.7,71.032,166.475z"
       id="path35"
       style="fill:#4d4d4d" /><path
       d="M58.695,155.941c4.198-0.875,8.693,0.729,13.13-0.789c-0.418-1.628-1.029-3.22-1.474-4.843   c-0.328-0.604-0.649-1.197-0.969-1.784c-5.021,2.404-10.04-0.186-15.06,0.004c-1.665,0.062-3.67-0.279-4.109,2.079   c-0.388,2.067,0.989,3.386,2.615,4.019C54.674,155.344,56.731,155.526,58.695,155.941z"
       id="path37"
       style="fill:#4d4d4d" /><path
       d="M66.379,144.538c-0.429-0.938-0.707-1.887-0.885-2.841c-0.999-1.833-2.194-3.476-4.874-3.679   c-1.422-0.119-2.848-0.221-4.27-0.36c-2.275-0.222-5.093-0.787-5.846,1.971c-0.929,3.416,2.522,4.45,4.659,5.008   c4.636,1.213,9.278,3.093,14.275,2.112C68.317,146.153,67.108,145.681,66.379,144.538z"
       id="path39"
       style="fill:#4d4d4d" /><path
       d="M56.459,127.232c-0.801-0.126-2.498,0.887-2.584,1.534c-0.488,3.613,2.886,4.422,4.948,6.183   c0.663,0.292,1.328,0.584,1.992,0.876c2.259,1.161,3.662,0.408,4.859-0.795c0.038-0.201,0.07-0.401,0.112-0.602   c0.269-0.828,0.68-1.585,1.202-2.283c0.074-0.068,0.146-0.109,0.223-0.172C65.134,127.491,60.487,127.857,56.459,127.232z"
       id="path41"
       style="fill:#4d4d4d" /></g></svg>