<?xml version="1.0" encoding="utf-8"?>
<!-- Generator: Adobe Illustrator 16.0.0, SVG Export Plug-In . SVG Version: 6.00 Build 0)  -->
<!DOCTYPE svg PUBLIC "-//W3C//DTD SVG 1.1//EN" "http://www.w3.org/Graphics/SVG/1.1/DTD/svg11.dtd">
<svg version="1.1" id="Capa_1" xmlns="http://www.w3.org/2000/svg" xmlns:xlink="http://www.w3.org/1999/xlink" x="0px" y="0px"
	 width="300px" height="300px" viewBox="0 0 300 300" enable-background="new 0 0 300 300" xml:space="preserve">
<path fill="#FFFFFF" d="M260.757,245.164c22.013-25.456,35.337-58.637,35.337-94.936c0-36.184-13.233-69.275-35.123-94.702
	c-0.056,0.006-0.108,0.018-0.164,0.024l0.003,0.005l-33.52,18.478l-0.125-0.113l18.533-33.489l0.086,0.085
	c0.013-0.058,0.024-0.116,0.036-0.176c-0.036-0.031-0.074-0.067-0.112-0.099c-1.309-1.13-2.641-2.237-3.989-3.321
	c-24.875-19.97-56.468-31.919-90.851-31.919c-36.227,0-69.309,13.31-94.735,35.259l18.414,33.657L40.945,55.511l-0.297,0.246
	C18.851,81.156,5.642,114.134,5.642,150.229c0,36.278,13.333,69.422,35.327,94.874l33.478-18.456l0.128,0.113L56.07,260.196
	c25.442,21.953,58.557,35.259,94.798,35.259c35.059,0,67.217-12.423,92.31-33.106c0.827-0.684,1.643-1.38,2.455-2.079
	l-18.473-33.509l0.113-0.126L260.757,245.164z"/>
<g>
	<path fill-rule="evenodd" clip-rule="evenodd" fill="#1AB2E2" d="M81.252,106.935c-4.1-2.912-7.667-5.446-11.874-8.435
		c-0.461,2.311-0.689,4.072-1.192,5.751c-0.348,1.154-1.114,3.149-1.627,3.127c-3.275-0.129-6.531-0.714-11.177-1.334
		c4.084-3.247,7.146-5.977,10.496-8.289c13.952-9.636,29.822-14.279,46.368-16.174c31.75-3.637,63.449-3.006,94.811,3.77
		c14.414,3.115,27.937,8.61,40.004,17.259c2.54,1.821,4.713,4.159,7.672,6.814c-3.508,0-6.4,0-9.88,0
		c0.438,1.286,0.819,1.87,0.78,2.422c-0.063,0.845-0.413,1.668-0.642,2.501c-0.673-0.34-1.647-0.503-1.961-1.048
		c-1.211-2.101-2.207-4.322-3.416-6.765c-1.677-0.691-3.747-1.547-6.229-2.572c0.668,2.13,1.103,3.401,1.405,4.704
		c0.022,0.099-1.198,0.712-1.325,0.582c-0.774-0.789-1.396-1.726-1.718-2.148c-3.273,0.158-6.521,0.424-9.762,0.382
		c-0.653-0.008-1.292-1.186-1.937-1.825c1.136-0.77,2.271-1.54,4.071-2.759c-0.282-2.372-0.658-5.545-1.159-9.75
		c-6.308,5.009-11.941,9.482-18.022,14.311c-0.877-2.338-1.188-4.631-2.456-6.103c-1.098-1.279-3.277-1.629-5.048-2.421
		c1.171-1.656,2.134-3.019,2.999-4.244c-2.195-0.641-3.614-1.056-5.032-1.47c0.923-0.958,1.845-1.916,3.174-3.294
		c-0.069-0.14-0.529-1.085-1.277-2.623c-5.446,6.029-10.573,11.708-16.46,18.227c-4.185-7.411-8.067-14.286-12.297-21.775
		c-1.505,2.132-2.791,3.762-3.871,5.517c-2.785,4.523-5.805,8.946-8.093,13.715c-1.458,3.035-3.973,3.313-6.467,4.045
		c-0.494,0.145-1.217-0.494-1.834-0.771c0.536-1.17,1.07-2.341,1.964-4.301c-0.317-0.637-1.062-2.126-1.574-3.152
		c-1.875,0.25-3.313,0.443-4.75,0.635c0.725-1.277,1.452-2.555,2.457-4.325c-1.774-3.064-3.89-6.715-6.52-11.255
		c-4.966,7.749-9.487,14.8-14.551,22.702c-5.276-7.06-10.25-13.716-15.705-21.014c-3.063,6.613-5.897,12.728-8.93,19.273
		c-4.958-4.632-9.51-8.883-14.693-13.726C84.325,96.623,82.881,101.468,81.252,106.935z"/>
	<path fill-rule="evenodd" clip-rule="evenodd" fill="#1AB2E2" d="M190.437,135.432c4.757-0.947,8.948-1.782,13.928-2.775
		c9.841,19.762,19.693,39.549,29.773,59.792c-3.495,3.012-6.792,5.852-10.543,9.085
		C214.635,178.209,205.526,155.679,190.437,135.432z"/>
	<path fill-rule="evenodd" clip-rule="evenodd" fill="#1AB2E2" d="M214.175,129.514c3.337-1.339,7.166-2.878,11.598-4.657
		c5.522,11.096,11.049,22.049,16.431,33.074c2.565,5.257,4.586,10.796,7.4,15.907c1.146,2.079,0.714,2.968-0.576,4.332
		c-2.667,2.821-5.251,5.722-7.389,8.064C232.44,167.239,223.417,148.603,214.175,129.514z"/>
	<path fill-rule="evenodd" clip-rule="evenodd" fill="#1AB2E2" d="M96.328,126.562c-1.298,0.605-3.173,0.853-3.804,1.871
		c-5.016,8.084-10.183,16.117-14.535,24.561c-3.855,7.476-6.631,15.502-10.078,23.196c-1.167,2.607-1.519,4.98-0.148,7.517
		c-3.552-3.11-7.101-6.219-9.826-8.604c4.48-9.502,8.134-17.679,12.167-25.665c2.923-5.791,6.392-11.304,9.531-16.987
		c1.958-3.55,3.756-7.19,5.772-11.073C88.608,122.897,92.469,124.729,96.328,126.562z"/>
	<path fill-rule="evenodd" clip-rule="evenodd" fill="#1AB2E2" d="M100.81,213.571c1.005-0.892,2.479-1.587,2.944-2.703
		c5.182-12.448,9.579-25.267,15.458-37.369c5.926-12.204,13.273-23.717,20.036-35.507c0.32-0.557,1.032-0.891,2.333-1.968
		c-1.492,4.641-1.667,8.22-5.012,11.61c-4.102,4.156-6.833,9.922-9.303,15.379c-7.148,15.784-13.892,31.754-20.717,47.683
		c-0.601,1.4-0.637,3.044-0.196,4.818c8.875-21.648,17.248-43.427,30.528-62.986c-0.977,4.221-1.599,8.573-3.086,12.605
		c-0.69,1.871-3.686,2.825-4.569,4.699c-4.152,8.811-8.06,17.743-11.81,26.732c-2.911,6.977-5.461,14.102-8.296,21.484
		c-2.831-1.556-5.535-3.042-8.255-4.514C100.844,213.547,100.81,213.571,100.81,213.571z"/>
	<path fill-rule="evenodd" clip-rule="evenodd" fill="#1AB2E2" d="M169.048,149.755c-0.932-3.4-1.865-6.802-2.797-10.203
		c0.413-0.148,0.829-0.297,1.245-0.446c14.387,24.402,27.08,49.579,34.468,77.7c-1.071,0.413-2.333,0.897-3.594,1.383l0.065,0.144
		c-0.05-1.37,0.221-2.85-0.204-4.093c-3.395-9.986-6.363-20.171-10.548-29.823c-5.113-11.792-11.267-23.136-17.018-34.649
		c-0.491-0.984-1.415-2.545-1.739,0.164L169.048,149.755z"/>
	<path fill-rule="evenodd" clip-rule="evenodd" fill="#1AB2E2" d="M198.37,218.189c-1.201,0.834-2.402,1.669-3.819,2.651
		c-3.958-17.114-14.338-43.799-21.693-55.835c-0.389,1.123-0.69,2.008-1.123,3.263c-0.93-6.403-1.808-12.459-2.687-18.514
		l-0.121,0.176c1.488,3.227,2.778,6.563,4.494,9.664c9.841,17.795,17.165,36.605,22.966,56.054c0.301,1.01,1.35,1.794,2.049,2.684
		C198.436,218.332,198.37,218.188,198.37,218.189z"/>
	<path fill-rule="evenodd" clip-rule="evenodd" fill="#1AB2E2" d="M129.775,191.551c15.276-1.778,30.54-1.313,46.252,0.344
		C170.008,195.079,140.713,194.898,129.775,191.551z"/>
	<path fill-rule="evenodd" clip-rule="evenodd" fill="#1AB2E2" d="M162.356,163.291c1.341,1.234,2.285,2.104,3.229,2.972
		c-1.171,0.792-2.306,2.126-3.518,2.199c-0.952,0.06-2.005-1.436-3.011-2.239C160.021,165.363,160.987,164.508,162.356,163.291z"/>
	<path fill-rule="evenodd" clip-rule="evenodd" fill="#1AB2E2" d="M140.32,165.945c1.675-2.814,3.72-3.034,5.823-1.154
		c0.473,0.424,0.408,2.402-0.095,2.803C143.761,169.418,141.837,168.704,140.32,165.945z"/>
	<path fill-rule="evenodd" clip-rule="evenodd" fill="#1AB2E2" d="M256.475,114.637c-1.467,0.944-2.512,2.089-3.111,1.891
		c-0.914-0.301-1.521-1.532-2.26-2.37c0.832-0.623,1.646-1.702,2.501-1.734C254.351,112.396,255.141,113.546,256.475,114.637z"/>
	<path fill="#1AB2E2" d="M100.844,213.547c-0.007-0.005-0.014-0.011-0.021-0.017c-0.005,0.015-0.01,0.026-0.013,0.041
		L100.844,213.547z"/>
	<path fill="#1AB2E2" d="M131.067,132.711c1.505-2.828,4.273-5.779,4.367-8.814c0.1-3.237-1.925-6.804-3.774-9.757
		c-1.58-2.523-8.817-0.196-11.995,3.562c-3.835,4.538-2.144,9.474,5.81,15.938c-2.599-0.301-4.734-0.322-6.751-0.822
		c-6.942-1.718-13.841-3.604-20.761-5.425c0.508,0.274,0.984,0.678,1.525,0.8c4.372,0.989,3.571,3.297,1.823,6.2
		c-2.585,4.297-5.258,8.592-7.313,13.149c-5.886,13.05-11.44,26.248-17.256,39.331c-0.506,1.144-1.953,1.872-2.964,2.792
		c3.074,3.237,6.149,6.476,9.138,9.624c2.171-5.538,4.091-10.523,6.081-15.481c2.958-7.355,5.68-14.826,9.044-21.993
		c2.5-5.324,5.907-10.219,8.816-15.356c1.72-3.034,3.311-6.144,4.863-9.268c2.043-4.109,7.351-4.923,13.775-2.036
		c-0.031,0.28,0.03,0.624-0.112,0.829c-13.323,19.322-23.783,40.061-31.071,62.398c-0.802,2.457-2.453,4.636-3.901,7.293
		c2.955,2.23,6.683,5.043,10.414,7.856c2.056-6.339,4.104-12.683,6.167-19.021c1.657-5.092,2.974-10.333,5.097-15.222
		c1.943-4.473,4.887-8.5,7.166-12.84c2.99-5.697,5.591-11.604,8.679-17.245c2.884-5.273,6.086-10.386,9.366-15.425
		c1.067-1.638,2.781-3.591,4.769-0.053c1.15-3.943,2.255-7.727,3.36-11.51C142.449,128.924,137.413,132.179,131.067,132.711z
		 M126.989,124.747c-1.325,0.182-1.785-0.745-1.922-1.791c-0.168-1.304,0.784-1.745,1.847-1.869
		c1.294-0.152,1.688,0.801,1.996,1.749C128.918,124.203,128.042,124.603,126.989,124.747z"/>
	<path fill="#1AB2E2" d="M213.842,209.096c-7.438-27.02-20.723-50.725-34.101-74.088c1.77-0.802,4.017-1.358,5.671-2.665
		c3.76-2.968,4.77-7.03,3.146-10.64c-2.29-5.087-6.229-7.638-11.001-7.254c-2.748,0.221-5.507,0.272-8.263,0.4
		c0,0.122,0,0.244,0,0.365c1.948,0,3.895,0,6.774,0c-7.354,5.678-7.482,11.672-1.333,18.96c-6.338-2.227-9.017-6.11-11.234-10.503
		c0.437,3.186,0.923,6.271,1.655,9.298c0.241,1.002,0.991,1.969,1.728,2.748c1.283,1.36,3.096,2.337,4.045,3.872
		c3.519,5.693,6.958,11.451,10.081,17.366c4.02,7.616,7.781,15.369,11.479,23.146c0.832,1.754,0.317,4.406,1.475,5.703
		c6.304,7.06,7.53,16.209,10.604,24.583c0.458,1.245,0.065,2.802,0.065,4.848C207.81,213.115,210.961,211.018,213.842,209.096z
		 M178.642,124.687c-0.168-1.305,0.785-1.745,1.846-1.869c1.295-0.152,1.689,0.801,1.997,1.75c0.007,1.365-0.869,1.766-1.92,1.91
		C179.24,126.659,178.778,125.732,178.642,124.687z"/>
	<g>
		<g>
			<path fill="#1AB2E2" d="M254.495,112.513c5.926-1.304,11.693-0.806,15.422,4.467c3.338,4.721,3.906,11.181,4.087,16.768
				c0.488,15.099-13.122,28.979-24.999,36.386c-2.729,1.701-0.221,6.028,2.523,4.316c14.717-9.177,28.339-24.993,27.366-43.258
				c-0.359-6.76-1.973-13.525-6.28-18.87c-4.728-5.866-12.694-6.117-19.449-4.63C250.017,108.385,251.353,113.205,254.495,112.513
				L254.495,112.513z"/>
		</g>
	</g>
	<g>
		<g>
			<path fill="#1AB2E2" d="M54.174,105.681c-6.826-1.502-13.485-1.082-18.768,3.892c-4.866,4.583-6.24,12.02-6.868,18.347
				c-1.854,18.696,12.307,35.188,27.271,44.521c2.744,1.712,5.252-2.615,2.523-4.316c-11.944-7.45-24.016-20.227-24.987-34.958
				c-0.379-5.749,0.751-12.247,3.526-17.312c3.314-6.049,9.833-6.703,15.973-5.352C55.987,111.194,57.323,106.374,54.174,105.681
				L54.174,105.681z"/>
		</g>
	</g>
</g>
</svg>
