<?xml version="1.0" encoding="utf-8"?>
<!-- Generator: Adobe Illustrator 16.0.0, SVG Export Plug-In . SVG Version: 6.00 Build 0)  -->
<!DOCTYPE svg PUBLIC "-//W3C//DTD SVG 1.1//EN" "http://www.w3.org/Graphics/SVG/1.1/DTD/svg11.dtd">
<svg version="1.1" id="Capa_1" xmlns="http://www.w3.org/2000/svg" xmlns:xlink="http://www.w3.org/1999/xlink" x="0px" y="0px"
	 width="300px" height="300px" viewBox="0 0 300 300" enable-background="new 0 0 300 300" xml:space="preserve">
<path fill="#FFFFFF" d="M261.035,245.794c22.437-25.947,36.019-59.768,36.019-96.767c0-36.882-13.488-70.611-35.8-96.529
	c-0.058,0.006-0.11,0.019-0.168,0.024l0.003,0.005l-34.166,18.834l-0.127-0.115l18.891-34.135l0.088,0.087
	c0.012-0.059,0.024-0.118,0.037-0.179c-0.037-0.032-0.076-0.069-0.115-0.101c-1.334-1.152-2.691-2.281-4.066-3.385
	C216.275,13.18,184.072,1,149.027,1c-36.926,0-70.646,13.567-96.562,35.939l18.769,34.307l-34.25-18.763l-0.303,0.251
	C14.464,78.622,1,112.236,1,149.027c0,36.979,13.59,70.761,36.008,96.704l34.124-18.813l0.13,0.115L52.4,261.116
	c25.933,22.377,59.687,35.938,96.627,35.938c35.734,0,68.514-12.662,94.09-33.746c0.844-0.695,1.674-1.404,2.503-2.118
	l-18.829-34.155l0.115-0.128L261.035,245.794z"/>
<g>
	<path fill-rule="evenodd" clip-rule="evenodd" fill="#95C11F" d="M78.068,104.899c-4.179-2.968-7.814-5.551-12.102-8.598
		c-0.471,2.355-0.703,4.15-1.216,5.861c-0.354,1.176-1.135,3.21-1.659,3.188c-3.338-0.131-6.657-0.728-11.392-1.359
		c4.163-3.31,7.283-6.092,10.697-8.449c14.222-9.822,30.398-14.554,47.262-16.486c32.363-3.707,64.674-3.064,96.64,3.843
		c14.691,3.175,28.476,8.776,40.774,17.591c2.59,1.856,4.805,4.239,7.821,6.946c-3.575,0-6.524,0-10.071,0
		c0.447,1.311,0.834,1.906,0.796,2.469c-0.064,0.861-0.422,1.7-0.654,2.549c-0.686-0.346-1.68-0.513-2-1.068
		c-1.233-2.141-2.248-4.405-3.48-6.896c-1.709-0.705-3.819-1.577-6.35-2.622c0.681,2.172,1.123,3.467,1.432,4.794
		c0.023,0.101-1.222,0.727-1.35,0.593c-0.79-0.805-1.425-1.759-1.752-2.189c-3.336,0.161-6.646,0.432-9.95,0.389
		c-0.665-0.008-1.316-1.208-1.973-1.86c1.156-0.785,2.314-1.57,4.149-2.813c-0.288-2.417-0.671-5.652-1.182-9.938
		c-6.429,5.105-12.173,9.664-18.371,14.586c-0.894-2.384-1.211-4.721-2.503-6.221c-1.118-1.303-3.341-1.661-5.146-2.468
		c1.193-1.688,2.176-3.077,3.059-4.325c-2.238-0.654-3.685-1.077-5.131-1.499c0.941-0.977,1.881-1.953,3.235-3.358
		c-0.071-0.142-0.539-1.106-1.302-2.673c-5.552,6.145-10.776,11.934-16.777,18.578c-4.265-7.553-8.223-14.561-12.533-22.195
		c-1.535,2.172-2.847,3.834-3.947,5.623c-2.838,4.611-5.917,9.119-8.249,13.979c-1.484,3.093-4.049,3.376-6.591,4.123
		c-0.503,0.147-1.24-0.503-1.87-0.785c0.547-1.193,1.091-2.387,2.003-4.384c-0.323-0.649-1.083-2.167-1.604-3.213
		c-1.912,0.255-3.376,0.451-4.841,0.647c0.739-1.302,1.479-2.604,2.504-4.408c-1.809-3.123-3.965-6.845-6.646-11.472
		c-5.062,7.898-9.67,15.085-14.832,23.139c-5.377-7.195-10.448-13.98-16.008-21.419c-3.123,6.741-6.011,12.973-9.102,19.645
		c-5.053-4.722-9.693-9.055-14.976-13.991C81.201,94.388,79.729,99.327,78.068,104.899z"/>
	<path fill-rule="evenodd" clip-rule="evenodd" fill="#95C11F" d="M189.358,133.945c4.849-0.966,9.121-1.817,14.197-2.829
		c10.029,20.143,20.073,40.312,30.348,60.944c-3.563,3.071-6.924,5.966-10.747,9.261
		C214.024,177.547,204.739,154.582,189.358,133.945z"/>
	<path fill-rule="evenodd" clip-rule="evenodd" fill="#95C11F" d="M213.556,127.913c3.4-1.365,7.304-2.933,11.821-4.748
		c5.629,11.31,11.261,22.475,16.746,33.712c2.616,5.358,4.675,11.005,7.544,16.214c1.167,2.119,0.728,3.024-0.587,4.416
		c-2.719,2.875-5.353,5.832-7.531,8.22C232.174,166.366,222.976,147.37,213.556,127.913z"/>
	<path fill-rule="evenodd" clip-rule="evenodd" fill="#95C11F" d="M93.436,124.904c-1.324,0.617-3.234,0.87-3.877,1.907
		c-5.113,8.24-10.379,16.427-14.816,25.034c-3.929,7.62-6.759,15.801-10.272,23.645c-1.19,2.657-1.548,5.076-0.15,7.661
		c-3.621-3.171-7.238-6.339-10.015-8.77c4.566-9.686,8.291-18.02,12.401-26.16c2.979-5.902,6.515-11.521,9.715-17.314
		c1.997-3.619,3.829-7.329,5.884-11.287C85.566,121.169,89.501,123.037,93.436,124.904z"/>
	<path fill-rule="evenodd" clip-rule="evenodd" fill="#95C11F" d="M98.003,213.591c1.025-0.907,2.527-1.617,3.001-2.754
		c5.282-12.688,9.764-25.754,15.755-38.09c6.041-12.44,13.529-24.175,20.423-36.192c0.326-0.568,1.052-0.908,2.379-2.006
		c-1.521,4.73-1.7,8.379-5.109,11.834c-4.181,4.237-6.965,10.114-9.482,15.676c-7.286,16.088-14.16,32.365-21.116,48.602
		c-0.613,1.428-0.65,3.104-0.2,4.912c9.045-22.066,17.58-44.265,31.117-64.202c-0.996,4.302-1.63,8.738-3.146,12.85
		c-0.704,1.906-3.756,2.879-4.657,4.788c-4.232,8.981-8.215,18.086-12.038,27.249c-2.967,7.111-5.566,14.374-8.456,21.898
		c-2.885-1.585-5.642-3.101-8.415-4.601C98.039,213.566,98.003,213.591,98.003,213.591z"/>
	<path fill-rule="evenodd" clip-rule="evenodd" fill="#95C11F" d="M167.558,148.545c-0.949-3.466-1.9-6.933-2.851-10.4
		c0.42-0.151,0.845-0.303,1.269-0.455c14.664,24.871,27.603,50.535,35.133,79.198c-1.093,0.422-2.378,0.915-3.663,1.409l0.067,0.146
		c-0.052-1.396,0.225-2.904-0.208-4.171c-3.46-10.18-6.486-20.561-10.753-30.399c-5.21-12.02-11.482-23.582-17.344-35.317
		c-0.502-1.004-1.443-2.594-1.774,0.166L167.558,148.545z"/>
	<path fill-rule="evenodd" clip-rule="evenodd" fill="#95C11F" d="M197.445,218.299c-1.225,0.851-2.449,1.701-3.893,2.702
		c-4.034-17.444-14.615-44.643-22.112-56.912c-0.396,1.145-0.704,2.047-1.146,3.326c-0.947-6.526-1.841-12.699-2.737-18.87
		l-0.124,0.178c1.518,3.29,2.833,6.69,4.581,9.852c10.031,18.139,17.496,37.313,23.409,57.136c0.307,1.028,1.375,1.828,2.089,2.734
		C197.513,218.444,197.445,218.298,197.445,218.299z"/>
	<path fill-rule="evenodd" clip-rule="evenodd" fill="#95C11F" d="M127.527,191.147c15.571-1.813,31.13-1.339,47.145,0.351
		C168.536,194.742,138.676,194.559,127.527,191.147z"/>
	<path fill-rule="evenodd" clip-rule="evenodd" fill="#95C11F" d="M160.737,162.342c1.367,1.259,2.329,2.145,3.292,3.029
		c-1.193,0.807-2.351,2.167-3.586,2.241c-0.971,0.061-2.043-1.463-3.069-2.282C158.357,164.455,159.342,163.582,160.737,162.342z"/>
	<path fill-rule="evenodd" clip-rule="evenodd" fill="#95C11F" d="M138.276,165.048c1.707-2.869,3.792-3.094,5.935-1.177
		c0.482,0.432,0.416,2.448-0.097,2.857C141.784,168.587,139.822,167.859,138.276,165.048z"/>
	<path fill-rule="evenodd" clip-rule="evenodd" fill="#95C11F" d="M256.671,112.75c-1.495,0.962-2.561,2.129-3.172,1.928
		c-0.932-0.307-1.55-1.562-2.303-2.416c0.848-0.635,1.678-1.736,2.549-1.768C254.505,110.465,255.311,111.638,256.671,112.75z"/>
	<path fill="#95C11F" d="M98.039,213.566c-0.007-0.004-0.014-0.01-0.022-0.017c-0.005,0.016-0.01,0.026-0.014,0.041L98.039,213.566z
		"/>
	<path fill="#95C11F" d="M128.844,131.172c1.534-2.882,4.355-5.891,4.451-8.984c0.102-3.299-1.962-6.935-3.847-9.945
		c-1.61-2.572-8.987-0.201-12.226,3.631c-3.91,4.625-2.186,9.657,5.922,16.245c-2.648-0.307-4.825-0.329-6.881-0.838
		c-7.077-1.751-14.108-3.673-21.162-5.53c0.518,0.279,1.003,0.691,1.555,0.816c4.456,1.008,3.64,3.361,1.858,6.319
		c-2.635,4.38-5.359,8.758-7.455,13.403c-5.999,13.301-11.661,26.753-17.589,40.088c-0.516,1.166-1.99,1.908-3.021,2.847
		c3.134,3.3,6.267,6.6,9.314,9.81c2.213-5.645,4.169-10.727,6.197-15.78c3.015-7.497,5.79-15.112,9.218-22.418
		c2.548-5.426,6.021-10.415,8.986-15.653c1.754-3.092,3.375-6.261,4.958-9.445c2.083-4.188,7.493-5.018,14.041-2.076
		c-0.031,0.286,0.031,0.637-0.113,0.845c-13.581,19.694-24.242,40.833-31.671,63.601c-0.817,2.506-2.5,4.727-3.977,7.435
		c3.012,2.273,6.811,5.14,10.614,8.008c2.096-6.461,4.184-12.927,6.286-19.388c1.689-5.19,3.031-10.532,5.195-15.516
		c1.98-4.56,4.982-8.664,7.304-13.088c3.048-5.807,5.699-11.828,8.846-17.578c2.94-5.375,6.204-10.586,9.547-15.723
		c1.088-1.67,2.834-3.66,4.86-0.054c1.173-4.02,2.299-7.876,3.425-11.733C140.446,127.312,135.313,130.63,128.844,131.172z
		 M124.688,123.055c-1.351,0.185-1.82-0.759-1.959-1.825c-0.171-1.33,0.799-1.778,1.883-1.905c1.318-0.155,1.721,0.816,2.034,1.782
		C126.654,122.5,125.76,122.907,124.688,123.055z"/>
	<path fill="#95C11F" d="M213.216,209.03c-7.582-27.541-21.123-51.703-34.758-75.518c1.803-0.818,4.094-1.384,5.779-2.716
		c3.832-3.025,4.862-7.166,3.206-10.845c-2.333-5.186-6.349-7.785-11.213-7.394c-2.802,0.225-5.613,0.277-8.421,0.407
		c0,0.125,0,0.248,0,0.372c1.984,0,3.97,0,6.903,0c-7.495,5.788-7.626,11.897-1.358,19.326c-6.46-2.27-9.19-6.228-11.45-10.706
		c0.444,3.248,0.94,6.392,1.687,9.477c0.246,1.021,1.011,2.007,1.761,2.801c1.308,1.387,3.156,2.383,4.123,3.947
		c3.587,5.803,7.092,11.672,10.276,17.701c4.097,7.763,7.931,15.665,11.699,23.593c0.848,1.788,0.323,4.49,1.503,5.813
		c6.426,7.194,7.676,16.521,10.809,25.057c0.467,1.27,0.066,2.856,0.066,4.941C207.067,213.128,210.279,210.988,213.216,209.03z
		 M177.336,122.993c-0.171-1.33,0.801-1.778,1.882-1.905c1.319-0.155,1.722,0.816,2.036,1.783c0.007,1.392-0.887,1.8-1.958,1.947
		C177.946,125.003,177.477,124.059,177.336,122.993z"/>
	<g>
		<g>
			<path fill="#95C11F" d="M254.64,110.538c6.292-1.389,12.25-0.709,16.036,4.982c3.178,4.777,3.731,11.146,3.909,16.708
				c0.491,15.405-13.374,29.572-25.503,37.129c-2.729,1.7-0.222,6.027,2.523,4.316c14.956-9.316,28.842-25.417,27.873-43.976
				c-0.366-7.022-2.037-14.189-6.703-19.625c-4.86-5.663-12.745-5.84-19.466-4.356C250.162,106.412,251.497,111.232,254.64,110.538
				L254.64,110.538z"/>
		</g>
	</g>
	<g>
		<g>
			<path fill="#95C11F" d="M50.456,103.667c-6.802-1.502-13.38-1.13-18.771,3.648c-5.224,4.631-6.672,12.51-7.308,19.083
				c-1.837,18.989,12.581,35.755,27.783,45.228c2.745,1.711,5.253-2.616,2.523-4.316c-12.194-7.599-24.542-20.675-25.495-35.718
				c-0.362-5.711,0.729-12.136,3.375-17.225c3.355-6.455,10.054-7.314,16.563-5.877C52.269,109.183,53.604,104.363,50.456,103.667
				L50.456,103.667z"/>
		</g>
	</g>
</g>
</svg>
