<?xml version="1.0" encoding="utf-8"?>
<!-- Generator: Adobe Illustrator 16.0.0, SVG Export Plug-In . SVG Version: 6.00 Build 0)  -->
<!DOCTYPE svg PUBLIC "-//W3C//DTD SVG 1.1//EN" "http://www.w3.org/Graphics/SVG/1.1/DTD/svg11.dtd">
<svg version="1.1" id="Capa_1" xmlns="http://www.w3.org/2000/svg" xmlns:xlink="http://www.w3.org/1999/xlink" x="0px" y="0px"
	 width="300px" height="300px" viewBox="0 0 300 300" enable-background="new 0 0 300 300" xml:space="preserve">
<path fill="#FFFFFF" d="M261.921,246.383c22.418-25.926,35.988-59.717,35.988-96.686c0-36.851-13.478-70.552-35.771-96.448
	c-0.057,0.006-0.11,0.018-0.167,0.024l0.003,0.005l-34.138,18.818l-0.127-0.115l18.875-34.106l0.088,0.087
	c0.012-0.059,0.024-0.118,0.037-0.179c-0.037-0.032-0.076-0.068-0.115-0.101c-1.333-1.151-2.689-2.279-4.063-3.382
	c-25.333-20.338-57.508-32.507-92.524-32.507c-36.895,0-70.586,13.555-96.481,35.909L72.279,71.98L38.058,53.233l-0.303,0.251
	C15.556,79.351,2.104,112.937,2.104,149.697c0,36.947,13.579,70.702,35.978,96.623l34.096-18.797l0.13,0.115l-18.846,34.054
	c25.911,22.357,59.637,35.908,96.546,35.908c35.704,0,68.455-12.652,94.011-33.716c0.843-0.695,1.673-1.406,2.501-2.118
	l-18.813-34.125l0.115-0.13L261.921,246.383z"/>
<g>
	<path fill-rule="evenodd" clip-rule="evenodd" d="M79.107,105.605c-4.176-2.966-7.808-5.546-12.092-8.59
		c-0.47,2.354-0.702,4.146-1.214,5.857c-0.354,1.175-1.134,3.207-1.657,3.185c-3.336-0.131-6.652-0.727-11.383-1.358
		c4.16-3.307,7.277-6.086,10.689-8.442c14.209-9.813,30.372-14.542,47.222-16.472c32.336-3.704,64.619-3.062,96.558,3.839
		c14.68,3.173,28.452,8.769,40.741,17.577c2.588,1.854,4.8,4.236,7.813,6.94c-3.571,0-6.518,0-10.062,0
		c0.447,1.311,0.834,1.905,0.795,2.467c-0.064,0.86-0.422,1.699-0.654,2.547c-0.685-0.346-1.678-0.513-1.997-1.068
		c-1.233-2.139-2.247-4.402-3.479-6.89c-1.707-0.704-3.816-1.576-6.345-2.62c0.681,2.17,1.123,3.464,1.432,4.791
		c0.023,0.1-1.221,0.726-1.35,0.593c-0.788-0.804-1.423-1.758-1.75-2.188c-3.333,0.161-6.641,0.432-9.941,0.389
		c-0.665-0.009-1.315-1.208-1.972-1.859c1.156-0.785,2.313-1.569,4.146-2.811c-0.288-2.415-0.671-5.647-1.181-9.93
		c-6.424,5.102-12.162,9.657-18.355,14.574c-0.893-2.381-1.21-4.717-2.5-6.215c-1.118-1.302-3.339-1.659-5.143-2.466
		c1.193-1.687,2.174-3.074,3.056-4.322c-2.236-0.653-3.681-1.076-5.126-1.498c0.94-0.976,1.88-1.951,3.232-3.355
		c-0.07-0.142-0.538-1.105-1.3-2.671c-5.548,6.14-10.769,11.924-16.764,18.563c-4.262-7.547-8.217-14.549-12.523-22.177
		c-1.533,2.171-2.844,3.832-3.943,5.619c-2.836,4.606-5.911,9.111-8.242,13.967c-1.483,3.091-4.045,3.374-6.585,4.12
		c-0.503,0.147-1.239-0.503-1.869-0.785c0.546-1.192,1.09-2.385,2.001-4.38c-0.323-0.648-1.082-2.166-1.603-3.211
		c-1.91,0.255-3.374,0.452-4.837,0.647c0.738-1.301,1.478-2.602,2.502-4.405c-1.808-3.12-3.961-6.839-6.641-11.462
		c-5.058,7.891-9.662,15.073-14.819,23.12c-5.373-7.19-10.439-13.969-15.995-21.402c-3.12,6.735-6.006,12.962-9.094,19.628
		c-5.049-4.718-9.685-9.046-14.964-13.979C82.237,95.104,80.767,100.038,79.107,105.605z"/>
	<path fill-rule="evenodd" clip-rule="evenodd" d="M99.061,214.183c-3.807-2.872-7.612-5.743-10.628-8.02
		c1.476-2.704,3.157-4.925,3.974-7.426c7.423-22.75,18.075-43.871,31.644-63.549c0.145-0.208,0.082-0.558,0.114-0.844
		c-6.542-2.94-11.949-2.111-14.029,2.074c-1.581,3.182-3.201,6.349-4.953,9.438c-2.962,5.233-6.432,10.217-8.978,15.641
		c-3.426,7.298-6.198,14.906-9.211,22.398c-2.026,5.048-3.981,10.127-6.192,15.767c-3.044-3.208-6.175-6.504-9.306-9.803
		c1.03-0.938,2.503-1.678,3.019-2.844c5.923-13.322,11.58-26.766,17.574-40.054c2.094-4.642,4.816-9.016,7.449-13.392
		c1.78-2.956,2.596-5.307-1.856-6.314c-0.551-0.125-1.036-0.536-1.554-0.815c7.047,1.854,14.073,3.775,21.144,5.525
		c2.055,0.509,4.229,0.531,6.875,0.837c-8.1-6.583-9.823-11.61-5.917-16.232c3.236-3.828,10.606-6.197,12.215-3.627
		c1.883,3.007,3.946,6.64,3.844,9.937c-0.095,3.091-2.914,6.097-4.447,8.977c6.463-0.541,11.593-3.856,14.625-10.69
		c-1.125,3.853-2.25,7.706-3.422,11.722c-2.024-3.603-3.769-1.614-4.856,0.054c-3.341,5.132-6.602,10.339-9.539,15.71
		c-3.145,5.746-5.793,11.76-8.839,17.562c-2.32,4.42-5.319,8.522-7.298,13.076c-2.163,4.98-3.503,10.316-5.191,15.503
		c-2.105,6.469-4.195,12.942-6.294,19.413L99.061,214.183z"/>
	<path fill-rule="evenodd" clip-rule="evenodd" d="M214.141,209.649c-2.934,1.956-6.143,4.093-9.379,6.25
		c0-2.083,0.4-3.668-0.066-4.935c-3.13-8.53-4.379-17.849-10.799-25.036c-1.18-1.323-0.655-4.024-1.503-5.81
		c-3.766-7.92-7.596-15.817-11.689-23.572c-3.181-6.025-6.684-11.888-10.268-17.687c-0.966-1.563-2.813-2.558-4.119-3.943
		c-0.749-0.793-1.514-1.778-1.76-2.799c-0.745-3.082-1.24-6.224-1.685-9.469c2.258,4.475,4.986,8.429,11.44,10.697
		c-6.262-7.422-6.131-13.528,1.358-19.31c-2.933,0-4.915,0-6.899,0c0-0.124,0-0.247,0-0.372c2.807-0.13,5.616-0.182,8.415-0.407
		c4.86-0.392,8.872,2.207,11.203,7.387c1.654,3.676,0.626,7.813-3.203,10.836c-1.686,1.331-3.974,1.897-5.775,2.714
		C193.036,157.99,206.566,182.133,214.141,209.649z"/>
	<path fill-rule="evenodd" clip-rule="evenodd" d="M190.305,134.627c4.844-0.965,9.112-1.815,14.185-2.826
		c10.021,20.125,20.057,40.278,30.321,60.894c-3.56,3.066-6.917,5.958-10.736,9.251
		C214.949,178.191,205.672,155.247,190.305,134.627z"/>
	<path fill-rule="evenodd" clip-rule="evenodd" d="M214.48,128.6c3.397-1.364,7.298-2.931,11.812-4.743
		c5.624,11.3,11.252,22.456,16.733,33.683c2.612,5.355,4.67,10.995,7.536,16.201c1.167,2.117,0.728,3.022-0.586,4.411
		c-2.716,2.873-5.348,5.828-7.525,8.213C233.083,167.021,223.894,148.041,214.48,128.6z"/>
	<path fill-rule="evenodd" clip-rule="evenodd" d="M94.461,125.593c-1.322,0.617-3.231,0.869-3.874,1.905
		c-5.109,8.234-10.371,16.414-14.803,25.013c-3.926,7.613-6.753,15.788-10.264,23.625c-1.189,2.654-1.546,5.072-0.15,7.653
		c-3.617-3.166-7.232-6.333-10.007-8.761c4.563-9.678,8.284-18.006,12.391-26.138c2.977-5.897,6.509-11.512,9.707-17.3
		c1.995-3.615,3.825-7.322,5.879-11.277C86.599,121.862,90.531,123.728,94.461,125.593z"/>
	<path fill-rule="evenodd" clip-rule="evenodd" d="M99.025,214.206c1.024-0.907,2.525-1.616,2.999-2.751
		c5.277-12.679,9.755-25.733,15.742-38.06c6.036-12.428,13.518-24.153,20.405-36.161c0.326-0.567,1.051-0.907,2.377-2.005
		c-1.52,4.727-1.698,8.372-5.105,11.825c-4.177,4.233-6.959,10.105-9.474,15.663c-7.28,16.075-14.148,32.339-21.099,48.562
		c-0.612,1.426-0.649,3.1-0.199,4.906c9.038-22.047,17.565-44.226,31.09-64.146c-0.994,4.298-1.628,8.73-3.144,12.838
		c-0.703,1.903-3.753,2.877-4.653,4.785c-4.229,8.972-8.208,18.068-12.027,27.226c-2.965,7.104-5.562,14.361-8.449,21.88
		c-2.882-1.585-5.636-3.098-8.408-4.598C99.061,214.183,99.025,214.206,99.025,214.206z"/>
	<path fill-rule="evenodd" clip-rule="evenodd" d="M168.521,149.215c-0.949-3.463-1.899-6.928-2.848-10.391
		c0.42-0.151,0.844-0.303,1.267-0.455c14.653,24.852,27.58,50.493,35.104,79.132c-1.091,0.42-2.375,0.914-3.66,1.408l0.067,0.147
		c-0.052-1.396,0.225-2.902-0.208-4.17c-3.457-10.171-6.48-20.541-10.743-30.371c-5.206-12.011-11.474-23.563-17.33-35.289
		c-0.501-1.003-1.441-2.592-1.771,0.166L168.521,149.215z"/>
	<path fill-rule="evenodd" clip-rule="evenodd" d="M198.384,218.909c-1.223,0.851-2.446,1.7-3.889,2.701
		c-4.031-17.43-14.603-44.606-22.094-56.863c-0.396,1.144-0.703,2.043-1.145,3.323c-0.946-6.523-1.84-12.688-2.735-18.855
		l-0.123,0.178c1.516,3.288,2.829,6.685,4.577,9.844c10.022,18.123,17.48,37.279,23.389,57.087c0.307,1.027,1.374,1.827,2.087,2.733
		L198.384,218.909z"/>
	<path fill-rule="evenodd" clip-rule="evenodd" d="M128.525,191.781c15.557-1.812,31.103-1.337,47.104,0.35
		C169.499,195.373,139.665,195.19,128.525,191.781z"/>
	<path fill-rule="evenodd" clip-rule="evenodd" d="M161.707,163.001c1.365,1.256,2.327,2.142,3.289,3.026
		c-1.192,0.805-2.349,2.164-3.583,2.238c-0.97,0.062-2.041-1.462-3.066-2.281C159.329,165.111,160.313,164.24,161.707,163.001z"/>
	<path fill-rule="evenodd" clip-rule="evenodd" d="M139.264,165.704c1.706-2.867,3.789-3.091,5.931-1.177
		c0.481,0.433,0.415,2.446-0.097,2.854C142.769,169.239,140.81,168.512,139.264,165.704z"/>
	<path fill-rule="evenodd" clip-rule="evenodd" d="M257.56,113.449c-1.493,0.961-2.558,2.127-3.169,1.926
		c-0.931-0.307-1.549-1.561-2.301-2.414c0.848-0.635,1.677-1.734,2.547-1.767C255.396,111.167,256.201,112.338,257.56,113.449z"/>
	<path fill-rule="evenodd" clip-rule="evenodd" d="M182.206,123.563c0.007,1.391-0.886,1.799-1.956,1.945
		c-1.348,0.186-1.818-0.759-1.958-1.823c-0.171-1.329,0.8-1.777,1.88-1.904C181.49,121.626,181.893,122.596,182.206,123.563z"/>
	<path fill-rule="evenodd" clip-rule="evenodd" d="M127.644,121.8c0.009,1.392-0.884,1.799-1.956,1.946
		c-1.349,0.185-1.818-0.759-1.958-1.823c-0.171-1.329,0.798-1.777,1.881-1.904C126.929,119.864,127.33,120.834,127.644,121.8z"/>
	<g>
		<g>
			<path d="M255.531,111.242c6.285-1.388,12.237-0.708,16.02,4.977c3.176,4.773,3.729,11.136,3.907,16.694
				c0.493,15.39-13.366,29.547-25.481,37.097c-2.729,1.7-0.222,6.027,2.523,4.316c14.941-9.31,28.821-25.398,27.852-43.942
				c-0.367-7.017-2.037-14.179-6.699-19.609c-4.857-5.659-12.735-5.836-19.451-4.354
				C251.054,107.116,252.389,111.936,255.531,111.242L255.531,111.242z"/>
		</g>
	</g>
	<g>
		<g>
			<path d="M51.519,104.373c-6.797-1.501-13.371-1.129-18.757,3.646c-5.22,4.627-6.667,12.5-7.302,19.067
				c-1.835,18.974,12.57,35.727,27.761,45.192c2.745,1.711,5.253-2.616,2.523-4.316c-12.184-7.592-24.52-20.656-25.473-35.687
				c-0.362-5.707,0.728-12.125,3.372-17.21c3.353-6.448,10.044-7.307,16.546-5.871C53.332,109.888,54.667,105.068,51.519,104.373
				L51.519,104.373z"/>
		</g>
	</g>
</g>
</svg>
