<?xml version="1.0" encoding="utf-8"?>
<!-- Generator: Adobe Illustrator 16.0.0, SVG Export Plug-In . SVG Version: 6.00 Build 0)  -->
<!DOCTYPE svg PUBLIC "-//W3C//DTD SVG 1.1//EN" "http://www.w3.org/Graphics/SVG/1.1/DTD/svg11.dtd">
<svg version="1.1" id="Capa_1" xmlns="http://www.w3.org/2000/svg" xmlns:xlink="http://www.w3.org/1999/xlink" x="0px" y="0px"
	 width="300px" height="300px" viewBox="0 0 300 300" enable-background="new 0 0 300 300" xml:space="preserve">
<path fill="#FFFFFF" d="M259.478,246.041c21.957-25.393,35.248-58.488,35.248-94.695c0-36.092-13.199-69.099-35.034-94.462
	c-0.056,0.006-0.108,0.018-0.163,0.024l0.002,0.005l-33.434,18.431l-0.125-0.113l18.486-33.404l0.086,0.085
	c0.012-0.058,0.024-0.115,0.036-0.175c-0.036-0.031-0.074-0.067-0.113-0.099c-1.305-1.127-2.633-2.232-3.979-3.313
	c-24.812-19.919-56.324-31.838-90.62-31.838c-36.135,0-69.133,13.276-94.495,35.17l18.368,33.572L40.224,56.868l-0.296,0.246
	C18.186,82.448,5.01,115.342,5.01,151.346c0,36.187,13.299,69.246,35.237,94.634L73.64,227.57l0.127,0.112L55.31,261.034
	c25.377,21.898,58.409,35.17,94.558,35.17c34.97,0,67.046-12.392,92.076-33.022c0.825-0.682,1.638-1.376,2.448-2.074l-18.426-33.424
	l0.112-0.125L259.478,246.041z"/>
<g>
	<path fill-rule="evenodd" clip-rule="evenodd" fill="#F18716" d="M80.428,108.162c-4.089-2.905-7.646-5.432-11.843-8.414
		c-0.46,2.305-0.687,4.062-1.189,5.736c-0.347,1.151-1.11,3.141-1.623,3.119c-3.267-0.129-6.515-0.712-11.149-1.331
		c4.074-3.239,7.127-5.961,10.469-8.268c13.917-9.611,29.747-14.242,46.25-16.133c31.67-3.628,63.289-2.999,94.57,3.76
		c14.377,3.107,27.866,8.588,39.902,17.215c2.534,1.816,4.701,4.148,7.652,6.797c-3.498,0-6.384,0-9.854,0
		c0.438,1.283,0.816,1.865,0.778,2.416c-0.063,0.843-0.412,1.664-0.641,2.495c-0.67-0.338-1.643-0.502-1.956-1.045
		c-1.207-2.095-2.2-4.311-3.407-6.748c-1.672-0.689-3.736-1.543-6.213-2.566c0.666,2.125,1.1,3.393,1.401,4.691
		c0.023,0.099-1.195,0.711-1.321,0.581c-0.772-0.787-1.394-1.722-1.714-2.143c-3.265,0.157-6.504,0.423-9.737,0.381
		c-0.651-0.008-1.288-1.183-1.931-1.82c1.132-0.769,2.266-1.537,4.061-2.752c-0.281-2.366-0.657-5.531-1.156-9.725
		c-6.291,4.996-11.911,9.458-17.978,14.274c-0.874-2.333-1.185-4.62-2.449-6.088c-1.095-1.275-3.269-1.625-5.035-2.415
		c1.168-1.652,2.128-3.011,2.992-4.233c-2.19-0.64-3.605-1.054-5.021-1.467c0.921-0.955,1.841-1.911,3.166-3.286
		c-0.069-0.139-0.527-1.083-1.273-2.616c-5.433,6.013-10.547,11.679-16.419,18.18c-4.173-7.392-8.047-14.25-12.265-21.72
		c-1.502,2.126-2.785,3.753-3.862,5.503c-2.777,4.512-5.79,8.923-8.072,13.68c-1.454,3.027-3.963,3.304-6.45,4.035
		c-0.493,0.145-1.213-0.492-1.83-0.769c0.535-1.167,1.067-2.335,1.96-4.29c-0.317-0.635-1.059-2.121-1.57-3.145
		c-1.871,0.25-3.304,0.442-4.737,0.634c0.723-1.274,1.447-2.549,2.45-4.314c-1.771-3.056-3.88-6.698-6.504-11.227
		c-4.953,7.729-9.463,14.763-14.514,22.645c-5.263-7.042-10.224-13.681-15.666-20.961c-3.056,6.596-5.882,12.695-8.907,19.224
		c-4.945-4.621-9.485-8.86-14.655-13.691C83.494,97.876,82.053,102.709,80.428,108.162z"/>
	<path fill-rule="evenodd" clip-rule="evenodd" fill="#F18716" d="M189.336,136.586c4.745-0.945,8.926-1.778,13.894-2.768
		c9.814,19.713,19.644,39.449,29.697,59.64c-3.486,3.005-6.775,5.837-10.516,9.063C213.474,179.255,204.388,156.782,189.336,136.586
		z"/>
	<path fill-rule="evenodd" clip-rule="evenodd" fill="#F18716" d="M213.015,130.684c3.328-1.336,7.147-2.871,11.568-4.646
		c5.508,11.067,11.021,21.993,16.389,32.99c2.559,5.243,4.574,10.769,7.382,15.867c1.143,2.073,0.712,2.96-0.575,4.321
		c-2.66,2.813-5.237,5.707-7.369,8.043C231.234,168.313,222.233,149.724,213.015,130.684z"/>
	<path fill-rule="evenodd" clip-rule="evenodd" fill="#F18716" d="M95.466,127.738c-1.295,0.604-3.165,0.851-3.794,1.866
		c-5.003,8.064-10.157,16.076-14.499,24.498c-3.845,7.458-6.614,15.463-10.053,23.139c-1.164,2.6-1.515,4.968-0.147,7.497
		c-3.542-3.103-7.083-6.203-9.801-8.581c4.469-9.479,8.114-17.635,12.136-25.601c2.916-5.776,6.375-11.275,9.507-16.944
		c1.954-3.541,3.747-7.172,5.758-11.045C87.766,124.083,91.617,125.911,95.466,127.738z"/>
	<path fill-rule="evenodd" clip-rule="evenodd" fill="#F18716" d="M99.937,214.527c1.002-0.889,2.473-1.583,2.937-2.695
		c5.169-12.417,9.555-25.203,15.418-37.275c5.912-12.173,13.239-23.656,19.985-35.417c0.319-0.555,1.029-0.888,2.328-1.963
		c-1.488,4.629-1.664,8.2-5,11.582c-4.091,4.146-6.816,9.896-9.279,15.34c-7.13,15.743-13.856,31.673-20.664,47.562
		c-0.6,1.396-0.635,3.036-0.195,4.807c8.852-21.594,17.204-43.316,30.45-62.827c-0.974,4.21-1.595,8.551-3.079,12.573
		c-0.688,1.866-3.676,2.818-4.557,4.688c-4.141,8.788-8.039,17.698-11.78,26.665c-2.903,6.959-5.447,14.065-8.275,21.43
		c-2.823-1.552-5.521-3.034-8.234-4.503C99.971,214.504,99.937,214.527,99.937,214.527z"/>
	<path fill-rule="evenodd" clip-rule="evenodd" fill="#F18716" d="M168.002,150.874c-0.93-3.392-1.86-6.785-2.79-10.177
		c0.412-0.148,0.826-0.296,1.241-0.445c14.352,24.339,27.013,49.453,34.381,77.502c-1.068,0.412-2.326,0.896-3.585,1.379
		l0.066,0.145c-0.051-1.367,0.22-2.843-0.204-4.083c-3.386-9.961-6.347-20.119-10.521-29.747
		c-5.1-11.764-11.237-23.077-16.974-34.562c-0.49-0.982-1.412-2.539-1.735,0.163L168.002,150.874z"/>
	<path fill-rule="evenodd" clip-rule="evenodd" fill="#F18716" d="M197.249,219.134c-1.198,0.833-2.396,1.665-3.809,2.645
		c-3.948-17.07-14.302-43.687-21.64-55.693c-0.387,1.12-0.688,2.003-1.12,3.255c-0.927-6.388-1.802-12.427-2.679-18.466
		l-0.121,0.174c1.484,3.22,2.771,6.546,4.482,9.641c9.816,17.75,17.122,36.513,22.908,55.911c0.3,1.008,1.346,1.79,2.044,2.678
		C197.315,219.277,197.249,219.133,197.249,219.134z"/>
	<path fill-rule="evenodd" clip-rule="evenodd" fill="#F18716" d="M128.829,192.563c15.237-1.773,30.462-1.31,46.135,0.343
		C168.959,196.082,139.739,195.902,128.829,192.563z"/>
	<path fill-rule="evenodd" clip-rule="evenodd" fill="#F18716" d="M161.328,164.375c1.337,1.231,2.278,2.099,3.221,2.965
		c-1.168,0.789-2.3,2.12-3.509,2.193c-0.95,0.059-1.999-1.432-3.003-2.234C158.999,166.442,159.962,165.589,161.328,164.375z"/>
	<path fill-rule="evenodd" clip-rule="evenodd" fill="#F18716" d="M139.347,167.023c1.671-2.808,3.711-3.027,5.808-1.151
		c0.472,0.422,0.407,2.396-0.095,2.795C142.779,170.486,140.86,169.774,139.347,167.023z"/>
	<path fill-rule="evenodd" clip-rule="evenodd" fill="#F18716" d="M255.207,115.844c-1.463,0.941-2.505,2.084-3.104,1.887
		c-0.912-0.3-1.518-1.529-2.254-2.364c0.83-0.622,1.642-1.698,2.495-1.73C253.088,113.609,253.876,114.757,255.207,115.844z"/>
	<path fill="#F18716" d="M99.971,214.504c-0.007-0.005-0.015-0.011-0.021-0.017c-0.005,0.014-0.01,0.026-0.013,0.04L99.971,214.504z
		"/>
	<path fill="#F18716" d="M130.117,133.873c1.501-2.82,4.263-5.765,4.356-8.792c0.1-3.229-1.92-6.786-3.765-9.731
		c-1.576-2.517-8.794-0.196-11.964,3.553c-3.826,4.526-2.138,9.45,5.795,15.897c-2.592-0.3-4.722-0.321-6.734-0.82
		c-6.925-1.714-13.806-3.595-20.708-5.411c0.507,0.273,0.982,0.676,1.522,0.798c4.361,0.986,3.562,3.289,1.818,6.184
		c-2.579,4.286-5.245,8.57-7.295,13.116c-5.871,13.016-11.412,26.181-17.212,39.231c-0.505,1.14-1.948,1.867-2.957,2.784
		c3.067,3.229,6.133,6.46,9.115,9.601c2.166-5.524,4.08-10.497,6.065-15.442c2.95-7.337,5.666-14.788,9.021-21.938
		c2.494-5.311,5.893-10.193,8.793-15.318c1.716-3.026,3.303-6.128,4.851-9.244c2.038-4.099,7.333-4.911,13.741-2.031
		c-0.031,0.279,0.03,0.622-0.111,0.826c-13.29,19.273-23.723,39.959-30.993,62.24c-0.8,2.451-2.447,4.624-3.892,7.274
		c2.948,2.225,6.666,5.03,10.387,7.837c2.051-6.323,4.094-12.65,6.151-18.974c1.653-5.079,2.966-10.307,5.084-15.184
		c1.938-4.461,4.875-8.478,7.148-12.807c2.982-5.683,5.577-11.575,8.657-17.201c2.877-5.26,6.071-10.36,9.342-15.387
		c1.065-1.634,2.774-3.582,4.757-0.053c1.147-3.934,2.25-7.708,3.352-11.481C141.471,130.095,136.447,133.342,130.117,133.873z
		 M126.05,125.929c-1.321,0.181-1.781-0.743-1.917-1.786c-0.168-1.301,0.782-1.74,1.842-1.864c1.291-0.152,1.684,0.799,1.991,1.744
		C127.974,125.386,127.1,125.785,126.05,125.929z"/>
	<path fill="#F18716" d="M212.682,210.063c-7.419-26.95-20.67-50.596-34.014-73.9c1.765-0.8,4.006-1.354,5.656-2.658
		c3.75-2.96,4.758-7.012,3.138-10.613c-2.283-5.074-6.213-7.619-10.973-7.235c-2.741,0.221-5.493,0.271-8.241,0.399
		c0,0.122,0,0.243,0,0.364c1.942,0,3.884,0,6.757,0c-7.335,5.663-7.464,11.643-1.33,18.913c-6.322-2.222-8.994-6.095-11.205-10.477
		c0.435,3.178,0.92,6.255,1.65,9.274c0.24,1,0.989,1.964,1.723,2.741c1.28,1.357,3.089,2.332,4.035,3.862
		c3.51,5.679,6.94,11.422,10.056,17.322c4.01,7.597,7.761,15.329,11.449,23.088c0.829,1.748,0.316,4.395,1.471,5.688
		c6.288,7.041,7.512,16.168,10.577,24.521c0.457,1.241,0.064,2.795,0.064,4.835C206.665,214.073,209.809,211.98,212.682,210.063z
		 M177.571,125.869c-0.168-1.301,0.783-1.74,1.841-1.864c1.292-0.152,1.685,0.799,1.992,1.745c0.007,1.362-0.867,1.762-1.915,1.905
		C178.168,127.836,177.708,126.912,177.571,125.869z"/>
	<g>
		<g>
			<path fill="#F18716" d="M253.233,113.732c5.907-1.3,11.659-0.805,15.376,4.453c3.329,4.708,3.896,11.15,4.076,16.722
				c0.487,15.058-13.087,28.901-24.933,36.288c-2.729,1.701-0.221,6.028,2.523,4.316c14.682-9.154,28.27-24.933,27.3-43.153
				c-0.358-6.744-1.968-13.494-6.267-18.827c-4.717-5.853-12.666-6.104-19.406-4.62
				C248.755,109.604,250.091,114.424,253.233,113.732L253.233,113.732z"/>
		</g>
	</g>
	<g>
		<g>
			<path fill="#F18716" d="M53.421,106.905c-6.811-1.499-13.456-1.08-18.727,3.884c-4.855,4.572-6.226,11.992-6.852,18.305
				c-1.849,18.651,12.277,35.103,27.205,44.413c2.744,1.712,5.252-2.615,2.523-4.316c-11.912-7.43-23.952-20.172-24.921-34.864
				c-0.378-5.733,0.749-12.213,3.516-17.265c3.304-6.032,9.803-6.682,15.925-5.335C55.234,112.418,56.57,107.598,53.421,106.905
				L53.421,106.905z"/>
		</g>
	</g>
</g>
</svg>
