<?xml version="1.0" encoding="utf-8"?>
<!-- Generator: Adobe Illustrator 16.0.0, SVG Export Plug-In . SVG Version: 6.00 Build 0)  -->
<!DOCTYPE svg PUBLIC "-//W3C//DTD SVG 1.1//EN" "http://www.w3.org/Graphics/SVG/1.1/DTD/svg11.dtd">
<svg version="1.1" id="Capa_1" xmlns="http://www.w3.org/2000/svg" xmlns:xlink="http://www.w3.org/1999/xlink" x="0px" y="0px"
	 width="300px" height="300px" viewBox="0 0 300 300" enable-background="new 0 0 300 300" xml:space="preserve">
<path d="M261.525,246.207c22.166-25.635,35.584-59.047,35.584-95.6c0-36.437-13.326-69.759-35.369-95.365
	c-0.056,0.006-0.108,0.018-0.164,0.024l0.002,0.005l-33.754,18.607l-0.126-0.114l18.663-33.724l0.087,0.086
	c0.013-0.058,0.024-0.116,0.036-0.177c-0.036-0.031-0.074-0.068-0.113-0.099c-1.317-1.138-2.659-2.253-4.018-3.344
	c-25.048-20.109-56.862-32.142-91.485-32.142c-36.48,0-69.793,13.403-95.397,35.506l18.543,33.893L40.177,55.227l-0.299,0.248
	C17.928,81.051,4.626,114.26,4.626,150.607c0,36.532,13.426,69.907,35.574,95.538l33.712-18.586l0.128,0.114l-18.634,33.67
	c25.62,22.107,58.967,35.506,95.461,35.506c35.304,0,67.687-12.51,92.955-33.339c0.833-0.688,1.654-1.389,2.473-2.093
	l-18.603-33.743l0.114-0.127L261.525,246.207z"/>
<g>
	<path fill-rule="evenodd" clip-rule="evenodd" fill="#FFFFFF" d="M80.765,107.011c-4.129-2.932-7.72-5.484-11.957-8.494
		c-0.465,2.327-0.694,4.101-1.201,5.792c-0.35,1.162-1.121,3.171-1.638,3.149c-3.298-0.13-6.577-0.719-11.255-1.343
		c4.113-3.27,7.195-6.018,10.569-8.347c14.049-9.703,30.03-14.378,46.692-16.287c31.973-3.663,63.893-3.027,95.473,3.796
		c14.515,3.137,28.133,8.67,40.283,17.379c2.559,1.833,4.747,4.188,7.727,6.862c-3.532,0-6.445,0-9.949,0
		c0.442,1.295,0.824,1.883,0.786,2.439c-0.063,0.85-0.417,1.68-0.646,2.518c-0.677-0.342-1.659-0.507-1.975-1.056
		c-1.22-2.115-2.223-4.352-3.44-6.813c-1.688-0.696-3.772-1.558-6.272-2.59c0.673,2.146,1.11,3.425,1.415,4.736
		c0.023,0.1-1.207,0.718-1.334,0.586c-0.78-0.794-1.407-1.738-1.73-2.163c-3.296,0.158-6.565,0.427-9.83,0.384
		c-0.657-0.008-1.301-1.194-1.949-1.838c1.143-0.775,2.287-1.551,4.1-2.779c-0.284-2.388-0.664-5.584-1.167-9.818
		c-6.352,5.044-12.025,9.548-18.149,14.41c-0.883-2.355-1.196-4.664-2.473-6.146c-1.105-1.288-3.301-1.641-5.084-2.438
		c1.18-1.668,2.149-3.04,3.021-4.273c-2.211-0.646-3.64-1.063-5.068-1.481c0.931-0.964,1.859-1.929,3.197-3.317
		c-0.07-0.141-0.533-1.093-1.286-2.641c-5.485,6.071-10.647,11.791-16.575,18.354c-4.214-7.463-8.125-14.386-12.383-21.928
		c-1.516,2.147-2.812,3.789-3.898,5.556c-2.805,4.555-5.846,9.009-8.149,13.811c-1.468,3.056-4.001,3.335-6.512,4.074
		c-0.498,0.146-1.226-0.497-1.848-0.776c0.54-1.179,1.078-2.358,1.978-4.331c-0.319-0.641-1.069-2.142-1.584-3.175
		c-1.889,0.252-3.336,0.446-4.783,0.64c0.73-1.286,1.461-2.573,2.474-4.355c-1.787-3.085-3.917-6.762-6.566-11.334
		c-5,7.803-9.553,14.904-14.653,22.86c-5.313-7.109-10.322-13.812-15.815-21.161c-3.085,6.66-5.939,12.817-8.992,19.408
		c-4.992-4.665-9.576-8.945-14.796-13.822C83.86,96.627,82.406,101.506,80.765,107.011z"/>
	<path fill-rule="evenodd" clip-rule="evenodd" fill="#FFFFFF" d="M100.495,214.369c-3.765-2.84-7.526-5.679-10.508-7.929
		c1.459-2.676,3.121-4.869,3.929-7.345c7.34-22.493,17.872-43.376,31.289-62.834c0.143-0.206,0.081-0.552,0.113-0.834
		c-6.469-2.907-11.815-2.087-13.872,2.051c-1.563,3.146-3.165,6.277-4.897,9.333c-2.929,5.174-6.36,10.103-8.877,15.464
		c-3.388,7.218-6.129,14.74-9.107,22.147c-2.004,4.992-3.937,10.013-6.123,15.59c-3.01-3.171-6.106-6.432-9.202-9.692
		c1.018-0.927,2.475-1.66,2.984-2.812c5.856-13.174,11.45-26.465,17.377-39.605c2.07-4.589,4.762-8.914,7.365-13.241
		c1.76-2.923,2.567-5.248-1.835-6.243c-0.545-0.124-1.024-0.531-1.537-0.806c6.968,1.834,13.915,3.733,20.906,5.463
		c2.032,0.503,4.182,0.525,6.798,0.828c-8.009-6.509-9.713-11.479-5.851-16.049c3.2-3.785,10.488-6.127,12.079-3.587
		c1.862,2.974,3.901,6.565,3.801,9.825c-0.094,3.057-2.882,6.029-4.397,8.876c6.391-0.535,11.462-3.813,14.46-10.571
		c-1.112,3.81-2.225,7.62-3.384,11.591c-2.001-3.563-3.727-1.597-4.802,0.053c-3.303,5.075-6.527,10.223-9.432,15.533
		c-3.109,5.681-5.728,11.63-8.739,17.366c-2.294,4.371-5.26,8.426-7.216,12.93c-2.138,4.923-3.464,10.201-5.132,15.328
		c-2.081,6.396-4.148,12.798-6.223,19.195L100.495,214.369z"/>
	<path fill-rule="evenodd" clip-rule="evenodd" fill="#FFFFFF" d="M214.282,209.887c-2.901,1.935-6.074,4.047-9.274,6.181
		c0-2.06,0.396-3.627-0.065-4.881c-3.095-8.433-4.33-17.646-10.678-24.755c-1.166-1.307-0.647-3.978-1.485-5.743
		c-3.724-7.832-7.511-15.639-11.559-23.308c-3.146-5.957-6.608-11.755-10.152-17.488c-0.955-1.545-2.781-2.529-4.072-3.899
		c-0.741-0.785-1.497-1.758-1.74-2.768c-0.737-3.047-1.227-6.154-1.666-9.363c2.232,4.424,4.93,8.334,11.313,10.578
		c-6.192-7.339-6.063-13.376,1.343-19.093c-2.9,0-4.86,0-6.822,0c0-0.123,0-0.245,0-0.368c2.775-0.129,5.553-0.18,8.32-0.402
		c4.806-0.387,8.772,2.182,11.078,7.304c1.636,3.635,0.618,7.726-3.168,10.714c-1.666,1.316-3.929,1.876-5.71,2.684
		C193.414,158.807,206.792,182.678,214.282,209.887z"/>
	<path fill-rule="evenodd" clip-rule="evenodd" fill="#FFFFFF" d="M190.713,135.707c4.79-0.954,9.011-1.795,14.026-2.794
		c9.908,19.901,19.831,39.827,29.98,60.209c-3.52,3.033-6.84,5.893-10.616,9.148C215.081,178.783,205.908,156.096,190.713,135.707z"
		/>
	<path fill-rule="evenodd" clip-rule="evenodd" fill="#FFFFFF" d="M214.617,129.748c3.36-1.349,7.217-2.898,11.68-4.69
		c5.561,11.174,11.125,22.203,16.545,33.306c2.584,5.294,4.617,10.872,7.452,16.019c1.153,2.094,0.719,2.988-0.58,4.362
		c-2.686,2.841-5.287,5.763-7.44,8.121C233.012,167.737,223.925,148.971,214.617,129.748z"/>
	<path fill-rule="evenodd" clip-rule="evenodd" fill="#FFFFFF" d="M95.947,126.775c-1.308,0.609-3.195,0.859-3.831,1.884
		c-5.051,8.141-10.254,16.229-14.637,24.732c-3.882,7.529-6.677,15.61-10.148,23.359c-1.176,2.625-1.529,5.016-0.149,7.568
		c-3.577-3.132-7.151-6.262-9.895-8.663c4.511-9.568,8.191-17.803,12.251-25.845c2.944-5.831,6.437-11.382,9.598-17.105
		c1.972-3.575,3.782-7.24,5.813-11.15C88.172,123.085,92.06,124.93,95.947,126.775z"/>
	<path fill-rule="evenodd" clip-rule="evenodd" fill="#FFFFFF" d="M100.459,214.393c1.012-0.896,2.497-1.598,2.965-2.722
		c5.219-12.535,9.646-25.442,15.566-37.63c5.968-12.29,13.365-23.883,20.176-35.756c0.322-0.561,1.039-0.896,2.35-1.982
		c-1.502,4.674-1.679,8.278-5.047,11.691c-4.13,4.187-6.881,9.991-9.368,15.487c-7.198,15.894-13.989,31.976-20.862,48.016
		c-0.605,1.41-0.642,3.065-0.197,4.853c8.937-21.8,17.369-43.73,30.742-63.427c-0.983,4.249-1.61,8.632-3.108,12.693
		c-0.695,1.884-3.711,2.845-4.601,4.731c-4.181,8.872-8.116,17.867-11.892,26.92c-2.932,7.025-5.5,14.2-8.354,21.634
		c-2.85-1.566-5.573-3.063-8.313-4.545C100.495,214.369,100.459,214.393,100.459,214.393z"/>
	<path fill-rule="evenodd" clip-rule="evenodd" fill="#FFFFFF" d="M169.175,150.131c-0.938-3.424-1.878-6.85-2.816-10.274
		c0.416-0.149,0.835-0.299,1.254-0.449c14.487,24.572,27.27,49.925,34.709,78.242c-1.079,0.417-2.35,0.905-3.619,1.393l0.066,0.146
		c-0.051-1.38,0.222-2.869-0.206-4.121c-3.418-10.057-6.407-20.313-10.622-30.032c-5.147-11.875-11.345-23.298-17.136-34.892
		c-0.495-0.992-1.425-2.563-1.752,0.165L169.175,150.131z"/>
	<path fill-rule="evenodd" clip-rule="evenodd" fill="#FFFFFF" d="M198.702,219.043c-1.21,0.841-2.419,1.681-3.846,2.67
		c-3.985-17.233-14.438-44.104-21.846-56.226c-0.391,1.131-0.695,2.022-1.131,3.286c-0.936-6.448-1.819-12.546-2.705-18.643
		l-0.122,0.177c1.499,3.249,2.798,6.607,4.525,9.731c9.91,17.92,17.285,36.862,23.127,56.446c0.303,1.017,1.358,1.807,2.063,2.702
		C198.769,219.188,198.702,219.042,198.702,219.043z"/>
	<path fill-rule="evenodd" clip-rule="evenodd" fill="#FFFFFF" d="M129.628,192.219c15.383-1.79,30.753-1.322,46.575,0.347
		C170.142,195.771,140.642,195.59,129.628,192.219z"/>
	<path fill-rule="evenodd" clip-rule="evenodd" fill="#FFFFFF" d="M162.438,163.761c1.35,1.244,2.3,2.119,3.252,2.993
		c-1.18,0.797-2.322,2.141-3.543,2.215c-0.959,0.06-2.019-1.445-3.031-2.256C160.086,165.849,161.058,164.986,162.438,163.761z"/>
	<path fill-rule="evenodd" clip-rule="evenodd" fill="#FFFFFF" d="M140.246,166.435c1.687-2.834,3.746-3.056,5.864-1.162
		c0.476,0.426,0.411,2.419-0.096,2.822C143.711,169.932,141.774,169.212,140.246,166.435z"/>
	<path fill-rule="evenodd" clip-rule="evenodd" fill="#FFFFFF" d="M257.213,114.767c-1.477,0.95-2.529,2.104-3.133,1.904
		c-0.92-0.303-1.532-1.543-2.275-2.386c0.838-0.628,1.658-1.714,2.519-1.747C255.074,112.511,255.869,113.669,257.213,114.767z"/>
	<path fill-rule="evenodd" clip-rule="evenodd" d="M182.705,124.767c0.008,1.375-0.875,1.779-1.934,1.923
		c-1.333,0.184-1.798-0.75-1.936-1.803c-0.17-1.314,0.79-1.757,1.858-1.882C181.998,122.852,182.396,123.812,182.705,124.767z"/>
	<path fill-rule="evenodd" clip-rule="evenodd" d="M128.756,123.024c0.009,1.376-0.874,1.778-1.934,1.924
		c-1.334,0.183-1.798-0.75-1.936-1.803c-0.17-1.314,0.789-1.757,1.859-1.882C128.049,121.109,128.446,122.069,128.756,123.024z"/>
	<g>
		<g>
			<path fill="#FFFFFF" d="M255.215,112.611c6.201-1.37,12.076-0.702,15.809,4.908c3.137,4.715,3.683,11.002,3.858,16.493
				c0.486,15.208-13.209,29.195-25.182,36.655c-2.729,1.7-0.222,6.027,2.523,4.316c14.783-9.21,28.511-25.126,27.553-43.472
				c-0.362-6.946-2.017-14.034-6.632-19.409c-4.809-5.603-12.61-5.78-19.26-4.312C250.737,108.485,252.072,113.305,255.215,112.611
				L255.215,112.611z"/>
		</g>
	</g>
	<g>
		<g>
			<path fill="#FFFFFF" d="M53.494,105.766c-6.731-1.486-13.24-1.116-18.574,3.612c-5.167,4.581-6.6,12.373-7.228,18.873
				c-1.815,18.771,12.436,35.345,27.463,44.709c2.745,1.711,5.253-2.616,2.523-4.316c-12.037-7.502-24.231-20.411-25.173-35.262
				c-0.357-5.637,0.719-11.979,3.33-17.002c3.309-6.364,9.912-7.209,16.329-5.792C55.307,111.281,56.642,106.461,53.494,105.766
				L53.494,105.766z"/>
		</g>
	</g>
</g>
</svg>
