<?xml version="1.0" encoding="utf-8"?>
<!-- Generator: Adobe Illustrator 16.0.0, SVG Export Plug-In . SVG Version: 6.00 Build 0)  -->
<!DOCTYPE svg PUBLIC "-//W3C//DTD SVG 1.1//EN" "http://www.w3.org/Graphics/SVG/1.1/DTD/svg11.dtd">
<svg version="1.1" id="Capa_1" xmlns="http://www.w3.org/2000/svg" xmlns:xlink="http://www.w3.org/1999/xlink" x="0px" y="0px"
	 width="300px" height="300px" viewBox="0 0 300 300" enable-background="new 0 0 300 300" xml:space="preserve">
<path fill="#FFFFFF" d="M261.288,245.145c22.188-25.658,35.618-59.102,35.618-95.689c0-36.471-13.339-69.825-35.402-95.455
	c-0.057,0.006-0.109,0.019-0.165,0.024l0.002,0.005l-33.785,18.625l-0.126-0.114l18.68-33.755l0.088,0.086
	c0.012-0.058,0.024-0.116,0.036-0.177c-0.036-0.032-0.075-0.068-0.114-0.1c-1.318-1.139-2.661-2.255-4.021-3.347
	c-25.072-20.128-56.916-32.172-91.572-32.172c-36.515,0-69.859,13.416-95.487,35.539l18.56,33.925L39.73,53.984l-0.299,0.249
	C17.46,79.833,4.146,113.074,4.146,149.455c0,36.567,13.439,69.974,35.607,95.628l33.745-18.603l0.128,0.114l-18.651,33.701
	c25.644,22.129,59.022,35.54,95.552,35.54c35.337,0,67.751-12.521,93.043-33.37c0.834-0.688,1.655-1.391,2.475-2.096l-18.619-33.774
	l0.113-0.127L261.288,245.145z"/>
<g>
	<path d="M251.416,94.213c-12.047,0-23.166,0-35.168,0c11.882,13.343,22.979,25.807,35.168,39.494
		C251.416,119.359,251.416,106.721,251.416,94.213z"/>
	<path d="M279.52,102.57c-7.037,5.502-11.119,14.779-14.656,23.896c7.104-6.25,14.206-12.498,21.309-18.748
		c1.048,0.362,2.092,0.726,3.14,1.089c-1.031,10.8-2.294,21.585-3,32.408c-0.407,6.214-0.231,12.513,0.264,18.728
		c0.609,7.674,1.821,15.3,2.771,22.946c-1.018,0.683-2.039,1.369-3.06,2.054c-10.465-10.683-21.287-21.04-31.302-32.131
		c-12.534-13.879-24.452-28.32-36.553-42.592c-32.298-38.093-92.887-29.975-113.6,15.271c-0.075,0.166,0.341,0.557,0.719,1.148
		c14.415-14.984,30.363-27.369,52.082-28.858c21.633-1.483,39.688,5.175,54.303,22.185c19.473,22.67,38.526,46.104,60.733,65.87
		c6.146,5.471,10.466,10.829,13.121,16.63c6.37-16.297,9.872-34.032,9.872-52.585c0-18.957-3.656-37.057-10.294-53.644
		C284.001,98.424,282.114,100.542,279.52,102.57z"/>
	<path d="M208.492,65.512c-3.227-3.264-6.447-6.528-11.408-11.548c-4.826,4.823-8.003,8.001-11.182,11.179
		c3.819,2.564,7.57,7.002,11.481,7.146C201,72.421,204.783,67.954,208.492,65.512z"/>
	<path d="M161.624,65.978c-3.866-2.527-7.693-6.919-11.607-7c-3.223-0.065-6.551,4.985-9.832,7.768
		c3.175,2.89,6.352,5.78,11.059,10.067C155.64,72.225,158.632,69.101,161.624,65.978z"/>
	<path d="M21.895,201.705c11.409-6.312,18.217-15.65,21.523-28.824c-9.225,6.954-17.798,13.419-26.37,19.883
		c-1.34-0.802-2.678-1.602-4.02-2.403c2.095-6.47,3.129-13.569,6.509-19.282c6.651-11.242,7.047-23.982,0.697-34.729
		c-3.496-5.923-5.262-12.866-6.492-20.079c15.335,4.729,26.05,14.548,35.746,25.389c23.48,26.267,50.186,47.76,83.585,60.353
		c27.098,10.216,52.86,4.344,67.992-16.365c11.597-15.871,12.256-39.47,1.545-55.291c-10.328-15.253-30.812-22.672-48.719-17.647
		c-14.568,4.087-25.97,17.377-26.873,31.322c-1.159,17.844,5.068,29.773,19.306,35.711c10.071,4.201,19.856,3.666,28.927-3.269
		c8.325-6.362,9.858-15.047,8.867-24.569c-0.86-8.264-10.311-16.167-18.756-15.662c-7.404,0.444-12.066,3.969-11.715,13.639
		c3.518-0.496,6.804-1.729,9.753-1.174c3.383,0.637,7.853,2.081,9.28,4.619c1.382,2.45,0.472,7.314-1.158,10.117
		c-4.284,7.367-13.183,9.203-21.573,5.352c-10.072-4.626-15.042-15.079-12.019-25.127c3.192-10.609,9.947-18.057,20.761-20.29
		c13.413-2.77,24.959,1.594,33.629,12.356c8.554,10.611,8.502,22.738,3.996,34.646c-5.337,14.112-16.06,22.75-31.148,24.629
		c-21.244,2.644-40.036-5.629-56.194-17.612c-18.714-13.877-35.172-30.758-53.009-45.866c-11.118-9.418-22.659-18.422-34.651-26.681
		c-2.46-1.694-4.418-3.179-5.657-5.085c-5.774,15.614-8.934,32.496-8.934,50.118c0,19.521,3.881,38.134,10.899,55.12
		C18.923,203.666,20.481,202.488,21.895,201.705z"/>
	<path d="M181.874,242.049c3.712,2.328,7.558,6.684,11.101,6.451c4.011-0.265,7.753-4.642,11.612-7.233
		c-3.158-2.812-6.317-5.623-11.009-9.797C188.743,235.843,185.307,238.945,181.874,242.049z"/>
	<path d="M92.634,243.487c7.058,6.946,16.903,8.194,20.829,2.499c1.158-1.68,0.783-6.13-0.646-7.573
		C107.324,232.854,99.12,234.979,92.634,243.487z"/>
	<path d="M149.44,234.289c-4.118,0.646-7.671,4.908-11.467,7.63c2.843,2.731,5.688,5.465,10.301,9.9
		c4.429-4.503,7.582-7.704,10.733-10.907C155.791,238.525,152.216,233.854,149.44,234.289z"/>
	<path d="M181.874,268.704c3.712,2.33,7.558,6.685,11.101,6.45c4.011-0.262,7.753-4.642,11.612-7.232
		c-3.158-2.811-6.317-5.621-11.009-9.796C188.743,262.498,185.307,265.602,181.874,268.704z"/>
	<path d="M92.634,270.142c7.058,6.948,16.903,8.197,20.829,2.499c1.158-1.679,0.783-6.127-0.646-7.572
		C107.324,259.509,99.12,261.636,92.634,270.142z"/>
	<path d="M149.44,260.946c-4.118,0.645-7.671,4.905-11.467,7.629c2.843,2.732,5.688,5.464,10.301,9.899
		c4.429-4.502,7.582-7.705,10.733-10.907C155.791,265.183,152.216,260.51,149.44,260.946z"/>
	<path d="M226.013,165.763c0,14.24,0,27.815,0,41.486c14.049,0,27.331,0,37.81,0C251.807,194.065,239.028,180.046,226.013,165.763z"
		/>
	<path d="M75.822,137.177c0-13.114,0-26.283,0-38.479c-15.052,0-28.64,0-42.327,0C48.227,112.089,62.086,124.69,75.822,137.177z"/>
	<path d="M117.414,66.533c-3.474-2.624-7.042-7.453-10.399-7.312c-4.153,0.174-8.132,4.476-12.186,6.995
		c2.974,3.09,5.951,6.179,10.235,10.628C110.155,72.593,113.784,69.563,117.414,66.533z"/>
	<path d="M208.492,42.631c-3.227-3.264-6.447-6.528-11.408-11.548c-4.826,4.823-8.003,8.001-11.182,11.179
		c3.819,2.564,7.57,7.002,11.481,7.146C201,49.54,204.783,45.073,208.492,42.631z"/>
	<path d="M161.624,43.097c-3.866-2.527-7.693-6.919-11.607-7c-3.223-0.065-6.551,4.985-9.832,7.768
		c3.175,2.89,6.352,5.78,11.059,10.067C155.64,49.344,158.632,46.22,161.624,43.097z"/>
	<path d="M117.414,43.652c-3.474-2.624-7.042-7.453-10.399-7.312c-4.153,0.174-8.132,4.476-12.186,6.995
		c2.974,3.09,5.951,6.179,10.235,10.628C110.155,49.712,113.784,46.682,117.414,43.652z"/>
	<path d="M55.702,177.864c0,10.156,0,19.381,0,29.651c14.194,0,27.455,0,41.879,0C82.919,197.134,69.612,187.713,55.702,177.864z"/>
</g>
</svg>
