<?xml version="1.0" encoding="UTF-8" standalone="no"?>
<svg
   xmlns:dc="http://purl.org/dc/elements/1.1/"
   xmlns:cc="http://creativecommons.org/ns#"
   xmlns:rdf="http://www.w3.org/1999/02/22-rdf-syntax-ns#"
   xmlns:svg="http://www.w3.org/2000/svg"
   xmlns="http://www.w3.org/2000/svg"
   xml:space="preserve"
   enable-background="new 0 0 300 300"
   viewBox="0 0 30 30"
   height="30"
   width="30"
   y="0px"
   x="0px"
   id="Capa_1"
   version="1.1"><metadata
     id="metadata53"><rdf:RDF><cc:Work
         rdf:about=""><dc:format>image/svg+xml</dc:format><dc:type
           rdf:resource="http://purl.org/dc/dcmitype/StillImage" /><dc:title></dc:title></cc:Work></rdf:RDF></metadata><defs
     id="defs51" /><g
     transform="matrix(0.09983176,0,0,0.10103591,0.01927165,-0.05098118)"
     id="g3404"><path
       style="fill:none;stroke:#ffffff;stroke-miterlimit:10"
       stroke-miterlimit="10"
       d="m 261.862,245.699 c 22.272,-25.758 35.755,-59.33 35.755,-96.058 0,-36.612 -13.39,-70.094 -35.539,-95.823 -0.056,0.006 -0.109,0.019 -0.165,0.024 l 0.002,0.005 -33.915,18.697 -0.127,-0.114 18.753,-33.885 0.087,0.086 c 0.013,-0.059 0.024,-0.117 0.037,-0.178 -0.037,-0.032 -0.076,-0.068 -0.115,-0.1 -1.323,-1.144 -2.671,-2.264 -4.036,-3.36 C 217.43,14.787 185.463,2.697 150.674,2.697 c -36.655,0 -70.128,13.467 -95.855,35.676 l 18.631,34.056 -34,-18.626 -0.3,0.25 C 17.095,79.751 3.729,113.12 3.729,149.641 c 0,36.708 13.491,70.243 35.744,95.998 l 33.875,-18.675 0.129,0.114 -18.723,33.831 c 25.743,22.214 59.25,35.677 95.92,35.677 35.473,0 68.012,-12.569 93.401,-33.499 0.837,-0.691 1.662,-1.395 2.484,-2.103 l -18.691,-33.906 0.114,-0.127 33.88,18.748 z"
       id="path3" /><g
       id="g5"
       transform="matrix(0.82496858,-0.77162758,0.75588233,0.84215291,-93.395586,142.23269)"><path
         d="m 153.145,130 c 4.984,-18.747 1.589,-37.389 9.104,-53.623 1.897,0.317 3.796,0.636 5.691,0.952 -2.435,18.931 -4.744,37.88 -7.539,56.759 -0.233,1.574 -3.615,3.499 -5.762,3.848 -26.423,4.298 -52.888,8.333 -80.741,12.651 2.476,-19.847 4.566,-38.268 7.319,-56.587 0.35,-2.327 3.954,-5.543 6.444,-5.951 20.509,-3.38 41.108,-6.193 62.972,-9.364 -1.734,14.731 -3.297,27.977 -5.05,42.844 -19.257,-8.586 -36.999,-16.497 -56.563,-25.219 -1.961,14.938 -3.74,28.492 -5.779,44.023 24.506,-3.623 47.423,-7.011 69.904,-10.333 z"
         id="path7"
         style="clip-rule:evenodd;fill:#f18716;fill-rule:evenodd" /><path
         d="m 205.49,203.487 c -12.383,-7.281 -24.767,-14.562 -37.147,-21.841 0.026,-1.016 0.053,-2.033 0.08,-3.049 17.518,-2.812 35.036,-5.621 54.236,-8.705 -1.879,13.727 -3.168,25.377 -5.271,36.877 -0.479,2.622 -3.437,6.359 -5.798,6.826 -22.438,4.434 -44.995,8.271 -69.017,12.548 2.584,-20.502 4.861,-39.285 7.467,-58.022 0.222,-1.597 2.428,-3.911 3.999,-4.176 23.226,-3.93 46.498,-7.57 70.361,-8.305 -20.758,10.44 -44.038,10.15 -67.035,16.284 -1.86,13.825 -3.808,28.313 -5.946,44.215 18.954,-3.405 36.318,-6.525 53.684,-9.644 0.128,-1.002 0.256,-2.007 0.387,-3.008 z"
         id="path9"
         style="clip-rule:evenodd;fill:#f18716;fill-rule:evenodd" /><path
         d="m 285.82,126.537 c -17.111,14.34 -38.666,13.003 -58.698,16.719 -20.986,3.895 -42.17,6.747 -63.273,10.017 -43.038,6.669 -86.094,13.216 -129.099,20.079 -5.597,0.894 -10.936,3.371 -18.956,5.934 16.97,-17.735 37.375,-16.123 56.043,-19.164 64.902,-10.572 129.92,-20.433 194.824,-30.986 6.287,-1.022 12.102,-4.958 18.141,-7.539 0.338,1.648 0.678,3.294 1.018,4.94 z"
         id="path11"
         style="clip-rule:evenodd;fill:#f18716;fill-rule:evenodd" /><path
         d="m 122.458,186.251 c -9.59,31.725 -0.344,65.568 -21.844,93.47 4.047,-28.159 7.936,-55.213 12.106,-84.228 -27.344,4.464 -52.701,8.603 -78.058,12.742 -0.468,-0.506 -0.938,-1.01 -1.405,-1.513 5.95,-3.216 11.579,-8.15 17.908,-9.336 22.872,-4.278 45.981,-7.292 71.293,-11.135 z"
         id="path13"
         style="clip-rule:evenodd;fill:#f18716;fill-rule:evenodd" /><path
         d="m 275.762,94.06 c -2.869,1.896 -5.767,3.814 -8.666,5.73 0.278,0.607 0.554,1.214 0.828,1.818 3.453,-0.408 6.907,-0.818 10.359,-1.227 0.123,0.83 0.245,1.663 0.366,2.493 -29.19,4.187 -58.384,8.371 -90.37,12.958 6.36,-30.907 1.708,-62.35 19.139,-89.85 -3.391,26.08 -6.786,52.158 -10.518,80.817 27.194,-4.392 52.834,-8.534 78.862,-12.739 z"
         id="path15"
         style="clip-rule:evenodd;fill:#f18716;fill-rule:evenodd" /><path
         d="m 162.271,25.737 c 0.799,-4.711 1.396,-8.242 1.995,-11.772 0.692,0.032 1.385,0.064 2.079,0.095 0.099,3.71 0.194,7.418 0.291,11.127 0.882,0.231 1.765,0.465 2.649,0.697 1.437,-3.276 2.874,-6.551 4.311,-9.826 0.559,0.021 1.115,0.04 1.676,0.063 -0.546,5.146 -1.091,10.292 -1.726,16.281 -27.805,3.991 -55.191,7.921 -83.057,11.92 -1.663,-4.981 -3.256,-9.759 -4.848,-14.534 0.613,-0.314 1.229,-0.628 1.842,-0.94 2.488,3.335 4.98,6.674 7.469,10.008 0.778,-0.245 1.556,-0.495 2.332,-0.744 -0.864,-4.215 -1.732,-8.433 -2.599,-12.65 0.589,-0.226 1.179,-0.453 1.767,-0.681 1.746,3.104 3.491,6.208 5.386,9.575 19.601,-2.795 39.755,-5.668 60.433,-8.619 z"
         id="path17"
         style="clip-rule:evenodd;fill:#f18716;fill-rule:evenodd" /><path
         d="m 119.083,272.082 c 5.998,-35.131 7.165,-71.128 15.66,-105.814 1.876,0.298 3.753,0.595 5.629,0.893 -2.553,21.313 -5,42.643 -7.691,63.94 -1.488,11.762 -3.175,23.509 -5.243,35.181 -0.489,2.757 -2.874,5.178 -4.39,7.753 -1.321,-0.651 -2.643,-1.301 -3.965,-1.953 z"
         id="path19"
         style="clip-rule:evenodd;fill:#f18716;fill-rule:evenodd" /><path
         d="m 189.858,30.61 c -3.812,32.709 -7.541,65.43 -11.578,98.112 -0.328,2.633 -2.779,5.004 -4.245,7.497 -1.266,-0.48 -2.531,-0.958 -3.794,-1.437 1.728,-15.599 3.416,-31.203 5.191,-46.796 1.96,-17.208 3.828,-34.431 6.164,-51.59 0.389,-2.841 2.985,-5.382 4.56,-8.061 1.235,0.758 2.47,1.518 3.702,2.275 z"
         id="path21"
         style="clip-rule:evenodd;fill:#f18716;fill-rule:evenodd" /><path
         d="m 172.811,45.572 c -2.718,1.747 -5.263,4.591 -8.188,5.065 -27.37,4.443 -54.788,8.588 -82.242,12.461 -2.671,0.376 -5.685,-1.648 -8.538,-2.56 2.366,-1.855 4.539,-4.964 7.131,-5.37 29.911,-4.661 59.882,-8.916 89.838,-13.279 0.669,1.23 1.334,2.455 1.999,3.683 z"
         id="path23"
         style="clip-rule:evenodd;fill:#f18716;fill-rule:evenodd" /><path
         d="m 282.202,109.816 c -3.255,1.948 -6.416,3.841 -12.344,7.384 7.039,-0.155 10.792,-0.238 14.546,-0.32 0.01,0.582 0.018,1.167 0.029,1.75 -32.256,4.725 -64.512,9.45 -96.769,14.175 -0.46,-1.52 -0.922,-3.04 -1.38,-4.56 4.061,-1.697 7.981,-4.261 12.204,-4.948 19.76,-3.211 39.621,-5.8 59.411,-8.835 8.03,-1.23 15.963,-3.034 24.303,-4.646 z"
         id="path25"
         style="clip-rule:evenodd;fill:#f18716;fill-rule:evenodd" /><path
         d="m 170.938,63.237 c -3.572,1.785 -6.983,4.592 -10.743,5.188 -24.397,3.871 -48.854,7.376 -73.339,10.647 -2.638,0.35 -5.576,-1.575 -8.373,-2.44 2.409,-1.628 4.645,-4.295 7.25,-4.72 27.658,-4.516 55.374,-8.676 83.074,-12.932 0.713,1.419 1.422,2.839 2.131,4.257 z"
         id="path27"
         style="clip-rule:evenodd;fill:#f18716;fill-rule:evenodd" /><path
         d="m 215.932,256.249 c -1.247,6.603 -2.241,11.831 -3.273,17.29 -1.474,-2.165 -3.542,-5.194 -5.384,-7.897 -19.901,3.165 -39.688,5.962 -59.301,9.678 -4.922,0.933 -9.284,4.816 -13.051,6.878 -1.32,-10.152 0.568,-12.991 13.009,-15.011 23.122,-3.75 46.253,-7.444 68,-10.938 z"
         id="path29"
         style="clip-rule:evenodd;fill:#f18716;fill-rule:evenodd" /><path
         d="m 123.463,174.374 c -29.135,10.121 -60.289,10.134 -90.091,16.915 -0.629,-1.395 -1.258,-2.786 -1.887,-4.179 2.464,-1.799 4.734,-4.783 7.42,-5.214 26.826,-4.318 53.718,-8.236 80.606,-12.168 1.048,-0.153 2.241,0.687 3.365,1.063 0.196,1.194 0.392,2.388 0.587,3.583 z"
         id="path31"
         style="clip-rule:evenodd;fill:#f18716;fill-rule:evenodd" /><path
         d="m 224.005,245.5 c -29.146,4.956 -56.832,9.664 -88.124,14.985 3.453,-4.564 4.617,-7.843 6.69,-8.579 22.315,-7.939 75.684,-13.012 81.434,-6.406 z"
         id="path33"
         style="clip-rule:evenodd;fill:#f18716;fill-rule:evenodd" /><path
         d="m 140.325,239.045 c 25.053,-9.39 51.644,-12.007 78.826,-17.175 -3.511,9.167 -56.687,21.304 -78.826,17.175 z"
         id="path35"
         style="clip-rule:evenodd;fill:#f18716;fill-rule:evenodd" /><path
         d="m 275.024,146.013 c -1.89,16.746 -3.777,33.492 -5.757,51.033 3.772,1.599 7.447,3.157 11.125,4.715 -0.221,0.991 -0.44,1.979 -0.663,2.967 -4.166,-0.908 -8.334,-1.818 -15.706,-3.428 5.041,4.47 8.057,7.144 12.842,11.389 -5.521,-0.55 -9.068,-0.906 -15.29,-1.525 4.428,4.182 6.965,6.574 10.939,10.323 -8.058,-1.676 -13.638,-2.646 -12.403,-11.679 2.578,-18.864 4.6,-37.804 7.183,-56.665 0.42,-3.041 2.54,-5.848 3.872,-8.764 1.287,0.543 2.573,1.087 3.858,1.634 z"
         id="path37"
         style="clip-rule:evenodd;fill:#f18716;fill-rule:evenodd" /><path
         d="m 55.899,86.594 c -2.798,22.956 -3.926,46.244 -8.867,68.776 -2.261,-0.444 -4.522,-0.885 -6.785,-1.327 1.81,-23.252 5.347,-46.193 8.516,-69.202 2.38,0.584 4.758,1.168 7.136,1.753 z"
         id="path39"
         style="clip-rule:evenodd;fill:#f18716;fill-rule:evenodd" /><path
         d="m 259.142,146.294 c -3.336,25.302 -4.803,48.647 -11.921,70.979 -6.043,-13.935 2.161,-64.919 11.921,-70.979 z"
         id="path41"
         style="clip-rule:evenodd;fill:#f18716;fill-rule:evenodd" /><path
         d="m 242.029,151.626 c -2.95,21.288 -5.901,42.574 -8.854,63.86 -2.361,-0.287 -4.722,-0.574 -7.084,-0.859 2.415,-19.871 4.677,-39.765 7.469,-59.581 0.303,-2.149 3.649,-3.872 5.584,-5.793 0.963,0.79 1.924,1.582 2.885,2.373 z"
         id="path43"
         style="clip-rule:evenodd;fill:#f18716;fill-rule:evenodd" /><path
         d="m 56.883,155.698 c 2.921,-23.631 5.307,-43.664 8.026,-63.652 0.224,-1.643 2.712,-2.978 4.147,-4.457 1.096,1.373 3.271,2.872 3.125,4.098 -2.268,19.337 -4.753,38.648 -7.51,57.919 -0.192,1.362 -2.891,2.366 -7.788,6.092 z"
         id="path45"
         style="clip-rule:evenodd;fill:#f18716;fill-rule:evenodd" /><path
         d="m 27.048,135.747 c -3.695,-0.515 -7.295,-1.019 -10.894,-1.522 -0.039,-0.835 -0.079,-1.672 -0.118,-2.508 3.999,-0.256 8.002,-0.51 15.56,-0.992 -6.957,-3.183 -10.738,-4.911 -14.517,-6.641 0.091,-0.607 0.184,-1.214 0.277,-1.82 4.033,0.262 8.065,0.526 15.492,1.011 -5.891,-3.463 -9.097,-5.349 -14.724,-8.656 7.128,-0.53 11.718,-0.869 17.378,-1.288 -1.583,13.806 -3.281,28.672 -4.931,43.103 -5.706,-2.63 -10.298,-4.749 -16.241,-7.49 4.542,-0.684 8.163,-1.226 11.84,-1.778 0.299,-3.861 0.588,-7.643 0.878,-11.419 z"
         id="path47"
         style="clip-rule:evenodd;fill:#f18716;fill-rule:evenodd" /></g></g></svg>