<?xml version="1.0" encoding="utf-8"?>
<!-- Generator: Adobe Illustrator 16.0.0, SVG Export Plug-In . SVG Version: 6.00 Build 0)  -->
<!DOCTYPE svg PUBLIC "-//W3C//DTD SVG 1.1//EN" "http://www.w3.org/Graphics/SVG/1.1/DTD/svg11.dtd">
<svg version="1.1" id="Capa_1" xmlns="http://www.w3.org/2000/svg" xmlns:xlink="http://www.w3.org/1999/xlink" x="0px" y="0px"
	 width="300px" height="300px" viewBox="0 0 300 300" enable-background="new 0 0 300 300" xml:space="preserve">
<path fill="#FFFFFF" d="M261.914,246.686c22.418-25.926,35.988-59.718,35.988-96.686c0-36.851-13.477-70.552-35.77-96.448
	c-0.057,0.006-0.111,0.018-0.168,0.024l0.004,0.005L227.83,72.4l-0.127-0.115l18.875-34.106l0.088,0.087
	c0.012-0.059,0.025-0.118,0.037-0.179c-0.037-0.032-0.076-0.068-0.115-0.101c-1.332-1.151-2.689-2.279-4.063-3.382
	C217.191,14.266,185.018,2.097,150,2.097c-36.895,0-70.586,13.555-96.481,35.909l18.753,34.278L38.052,53.536l-0.303,0.251
	C15.55,79.654,2.097,113.24,2.097,150c0,36.947,13.579,70.701,35.978,96.623l34.096-18.797l0.13,0.115l-18.846,34.053
	c25.911,22.358,59.637,35.909,96.546,35.909c35.705,0,68.455-12.651,94.011-33.717c0.842-0.696,1.672-1.405,2.5-2.117
	l-18.813-34.126l0.115-0.129L261.914,246.686z"/>
<g>
	<path fill-rule="evenodd" clip-rule="evenodd" d="M152.488,130.23c5.016-18.869,1.598-37.633,9.162-53.973
		c1.91,0.319,3.82,0.64,5.729,0.958c-2.451,19.054-4.775,38.127-7.588,57.129c-0.236,1.584-3.641,3.521-5.799,3.873
		c-26.596,4.326-53.234,8.387-81.269,12.734c2.492-19.978,4.596-38.518,7.367-56.957c0.353-2.343,3.98-5.58,6.486-5.99
		c20.643-3.402,41.376-6.233,63.383-9.425c-1.746,14.827-3.319,28.159-5.083,43.124c-19.383-8.643-37.24-16.604-56.932-25.384
		c-1.974,15.035-3.764,28.678-5.816,44.311C106.793,136.984,129.86,133.574,152.488,130.23z"/>
	<path fill-rule="evenodd" clip-rule="evenodd" d="M205.176,204.197c-12.465-7.328-24.93-14.655-37.391-21.982
		c0.025-1.024,0.053-2.048,0.08-3.07c17.631-2.83,35.266-5.657,54.59-8.761c-1.891,13.817-3.188,25.543-5.305,37.117
		c-0.48,2.64-3.459,6.4-5.836,6.871c-22.584,4.462-45.289,8.324-69.467,12.629c2.601-20.634,4.893-39.541,7.516-58.4
		c0.223-1.608,2.443-3.936,4.025-4.203c23.377-3.956,46.801-7.62,70.82-8.359c-20.893,10.51-44.326,10.216-67.473,16.391
		c-1.871,13.915-3.832,28.499-5.985,44.503c19.079-3.426,36.555-6.567,54.034-9.705
		C204.914,206.218,205.043,205.206,205.176,204.197z"/>
	<path fill-rule="evenodd" clip-rule="evenodd" d="M286.029,126.745c-17.223,14.434-38.918,13.088-59.082,16.829
		c-21.123,3.919-42.445,6.791-63.686,10.083c-43.319,6.712-86.656,13.301-129.942,20.21c-5.632,0.898-11.007,3.393-19.079,5.973
		c17.081-17.853,37.619-16.229,56.409-19.288c65.326-10.643,130.769-20.567,196.095-31.189c6.328-1.028,12.182-4.99,18.26-7.588
		C285.344,123.432,285.688,125.088,286.029,126.745z"/>
	<path fill-rule="evenodd" clip-rule="evenodd" d="M121.601,186.849c-9.653,31.933-0.347,65.996-21.986,94.079
		c4.074-28.343,7.987-55.573,12.185-84.775c-27.522,4.491-53.045,8.657-78.567,12.824c-0.472-0.509-0.944-1.017-1.415-1.523
		c5.989-3.236,11.655-8.203,18.025-9.396C72.863,193.752,96.123,190.718,121.601,186.849z"/>
	<path fill-rule="evenodd" clip-rule="evenodd" d="M275.904,94.056c-2.887,1.908-5.805,3.839-8.723,5.768
		c0.281,0.611,0.557,1.222,0.834,1.83c3.475-0.411,6.951-0.824,10.428-1.235c0.123,0.835,0.246,1.673,0.367,2.509
		c-29.381,4.214-58.764,8.425-90.959,13.043c6.402-31.109,1.719-62.757,19.264-90.436c-3.414,26.25-6.83,52.499-10.586,81.345
		C223.898,102.458,249.707,98.289,275.904,94.056z"/>
	<path fill-rule="evenodd" clip-rule="evenodd" d="M161.672,25.287c0.805-4.742,1.406-8.295,2.01-11.849
		c0.695,0.033,1.393,0.065,2.092,0.096c0.1,3.735,0.195,7.467,0.293,11.2c0.887,0.232,1.777,0.468,2.666,0.702
		c1.447-3.298,2.893-6.594,4.34-9.89c0.563,0.021,1.123,0.04,1.688,0.063c-0.551,5.179-1.1,10.359-1.738,16.387
		c-27.986,4.017-55.551,7.973-83.599,11.998c-1.674-5.014-3.277-9.822-4.879-14.629c0.617-0.316,1.237-0.632,1.854-0.946
		c2.504,3.357,5.013,6.718,7.517,10.073c0.784-0.247,1.566-0.499,2.347-0.749c-0.869-4.243-1.744-8.488-2.615-12.733
		c0.593-0.228,1.187-0.456,1.778-0.685c1.757,3.125,3.515,6.249,5.421,9.638C120.576,31.149,140.861,28.257,161.672,25.287z"/>
	<path fill-rule="evenodd" clip-rule="evenodd" d="M118.204,273.24c6.037-35.361,7.211-71.593,15.762-106.506
		c1.889,0.3,3.778,0.6,5.666,0.898c-2.569,21.454-5.033,42.922-7.741,64.358c-1.498,11.839-3.196,23.662-5.278,35.409
		c-0.492,2.776-2.892,5.213-4.418,7.804C120.864,274.549,119.535,273.896,118.204,273.24z"/>
	<path fill-rule="evenodd" clip-rule="evenodd" d="M189.441,30.192c-3.836,32.923-7.592,65.857-11.654,98.752
		c-0.33,2.65-2.797,5.037-4.273,7.546c-1.273-0.483-2.547-0.965-3.818-1.446c1.738-15.701,3.439-31.407,5.225-47.102
		c1.973-17.321,3.854-34.656,6.205-51.927c0.391-2.859,3.006-5.417,4.59-8.113C186.957,28.666,188.201,29.43,189.441,30.192z"/>
	<path fill-rule="evenodd" clip-rule="evenodd" d="M172.281,45.252c-2.734,1.758-5.297,4.621-8.242,5.098
		c-27.547,4.473-55.144,8.645-82.778,12.542c-2.689,0.379-5.722-1.659-8.594-2.576c2.382-1.867,4.569-4.997,7.178-5.404
		c30.106-4.692,60.273-8.974,90.424-13.366C170.943,42.783,171.611,44.016,172.281,45.252z"/>
	<path fill-rule="evenodd" clip-rule="evenodd" d="M282.387,109.915c-3.275,1.96-6.457,3.866-12.424,7.432
		c7.086-0.156,10.863-0.24,14.641-0.322c0.01,0.586,0.018,1.174,0.029,1.762c-32.467,4.756-64.934,9.511-97.4,14.267
		c-0.463-1.53-0.928-3.059-1.389-4.59c4.088-1.708,8.033-4.288,12.283-4.98c19.889-3.232,39.881-5.837,59.801-8.893
		C266.008,113.353,273.992,111.537,282.387,109.915z"/>
	<path fill-rule="evenodd" clip-rule="evenodd" d="M170.396,63.032c-3.594,1.796-7.027,4.622-10.813,5.222
		c-24.557,3.896-49.172,7.425-73.818,10.716c-2.655,0.353-5.612-1.585-8.427-2.457c2.425-1.638,4.675-4.323,7.297-4.75
		c27.838-4.545,55.735-8.733,83.616-13.016C168.969,60.176,169.684,61.604,170.396,63.032z"/>
	<path fill-rule="evenodd" clip-rule="evenodd" d="M215.684,257.305c-1.256,6.644-2.256,11.907-3.293,17.402
		c-1.484-2.18-3.566-5.229-5.42-7.949c-20.031,3.185-39.947,6-59.688,9.74c-4.955,0.939-9.344,4.849-13.137,6.923
		c-1.329-10.218,0.572-13.076,13.094-15.108C170.514,264.538,193.795,260.821,215.684,257.305z"/>
	<path fill-rule="evenodd" clip-rule="evenodd" d="M122.612,174.895c-29.325,10.188-60.682,10.2-90.679,17.024
		c-0.633-1.403-1.266-2.804-1.899-4.206c2.48-1.81,4.765-4.813,7.469-5.246c27-4.347,54.068-8.29,81.131-12.248
		c1.056-0.154,2.256,0.689,3.387,1.069C122.219,172.489,122.416,173.692,122.612,174.895z"/>
	<path fill-rule="evenodd" clip-rule="evenodd" d="M223.811,246.483c-29.336,4.99-57.203,9.729-88.699,15.085
		c3.475-4.596,4.647-7.896,6.733-8.636C164.305,244.941,218.023,239.836,223.811,246.483z"/>
	<path fill-rule="evenodd" clip-rule="evenodd" d="M139.583,239.986c25.217-9.45,51.981-12.085,79.34-17.287
		C215.391,231.927,161.867,244.144,139.583,239.986z"/>
	<path fill-rule="evenodd" clip-rule="evenodd" d="M275.162,146.348c-1.902,16.855-3.803,33.712-5.795,51.365
		c3.797,1.609,7.496,3.178,11.199,4.748c-0.223,0.995-0.443,1.991-0.668,2.985c-4.193-0.915-8.389-1.829-15.809-3.451
		c5.074,4.499,8.109,7.19,12.926,11.463c-5.559-0.554-9.129-0.912-15.391-1.535c4.457,4.208,7.01,6.617,11.012,10.393
		c-8.111-1.688-13.729-2.665-12.484-11.756c2.594-18.987,4.629-38.051,7.229-57.035c0.424-3.061,2.557-5.887,3.898-8.821
		C272.574,145.25,273.869,145.798,275.162,146.348z"/>
	<path fill-rule="evenodd" clip-rule="evenodd" d="M54.607,86.541c-2.816,23.106-3.951,46.546-8.924,69.227
		c-2.276-0.448-4.551-0.892-6.829-1.337c1.822-23.404,5.382-46.495,8.572-69.653C49.82,85.365,52.213,85.953,54.607,86.541z"/>
	<path fill-rule="evenodd" clip-rule="evenodd" d="M259.176,146.631c-3.357,25.467-4.834,48.964-11.998,71.442
		C241.096,204.048,249.354,152.73,259.176,146.631z"/>
	<path fill-rule="evenodd" clip-rule="evenodd" d="M241.951,151.998c-2.969,21.427-5.939,42.852-8.912,64.276
		c-2.375-0.288-4.752-0.576-7.129-0.865c2.43-20,4.707-40.022,7.518-59.97c0.305-2.164,3.672-3.896,5.619-5.83
		C240.018,150.405,240.984,151.202,241.951,151.998z"/>
	<path fill-rule="evenodd" clip-rule="evenodd" d="M55.598,156.096c2.94-23.785,5.341-43.948,8.078-64.067
		c0.226-1.653,2.729-2.997,4.174-4.486c1.104,1.382,3.293,2.891,3.146,4.124c-2.283,19.463-4.784,38.9-7.559,58.297
		C63.244,151.336,60.526,152.346,55.598,156.096z"/>
	<path fill-rule="evenodd" clip-rule="evenodd" d="M25.568,136.016c-3.719-0.518-7.342-1.026-10.964-1.532
		c-0.04-0.841-0.08-1.683-0.119-2.524c4.025-0.257,8.055-0.514,15.662-0.999c-7.001-3.203-10.808-4.943-14.611-6.685
		c0.092-0.611,0.185-1.222,0.279-1.832c4.059,0.264,8.117,0.529,15.593,1.017c-5.929-3.485-9.156-5.383-14.82-8.712
		c7.174-0.533,11.794-0.874,17.492-1.296c-1.593,13.896-3.302,28.859-4.963,43.384c-5.743-2.647-10.365-4.78-16.347-7.539
		c4.572-0.688,8.216-1.233,11.917-1.79C24.985,143.623,25.276,139.816,25.568,136.016z"/>
</g>
</svg>
