<?xml version="1.0" encoding="utf-8"?>
<!-- Generator: Adobe Illustrator 16.0.0, SVG Export Plug-In . SVG Version: 6.00 Build 0)  -->
<!DOCTYPE svg PUBLIC "-//W3C//DTD SVG 1.1//EN" "http://www.w3.org/Graphics/SVG/1.1/DTD/svg11.dtd">
<svg version="1.1" id="Capa_1" xmlns="http://www.w3.org/2000/svg" xmlns:xlink="http://www.w3.org/1999/xlink" x="0px" y="0px"
	 width="300px" height="300px" viewBox="0 0 300 300" enable-background="new 0 0 300 300" xml:space="preserve">
<path fill="#FFFFFF" d="M261.753,246.19c22.265-25.748,35.741-59.308,35.741-96.023c0-36.598-13.384-70.067-35.524-95.786
	c-0.056,0.006-0.109,0.019-0.166,0.024l0.003,0.005L227.903,73.1l-0.126-0.115l18.745-33.872l0.088,0.086
	c0.012-0.059,0.024-0.117,0.036-0.178c-0.036-0.032-0.075-0.068-0.114-0.1c-1.323-1.143-2.671-2.263-4.035-3.359
	c-25.159-20.199-57.113-32.284-91.89-32.284c-36.642,0-70.102,13.462-95.819,35.663l18.625,34.042L39.427,54.366l-0.3,0.249
	C17.08,80.304,3.719,113.66,3.719,150.167c0,36.693,13.485,70.216,35.73,95.959l33.862-18.668l0.129,0.114l-18.716,33.82
	c25.733,22.204,59.228,35.661,95.883,35.661c35.46,0,67.985-12.564,93.366-33.484c0.837-0.69,1.661-1.396,2.483-2.104
	l-18.685-33.891l0.114-0.129L261.753,246.19z"/>
<g>
	<path fill-rule="evenodd" clip-rule="evenodd" d="M106.048,84.039c-9.531,10.836-17.357,19.734-26.732,30.392
		c-3.645-11.824-7.006-22.729-11.384-36.927C82.168,79.945,93.307,81.855,106.048,84.039z"/>
	<path fill-rule="evenodd" clip-rule="evenodd" d="M217.7,66.785c-1.37,14.899-2.409,26.191-3.566,38.794
		c-11.273-9.382-20.928-17.418-32.263-26.848C193.407,74.886,204.111,71.316,217.7,66.785z"/>
	<path fill-rule="evenodd" clip-rule="evenodd" d="M73.24,134.305c1.188,13.972,2.137,25.13,3.286,38.68
		c-10.682-5.052-20.825-9.848-30.966-14.646c-0.231-1.254-0.463-2.506-0.695-3.759C54.204,147.904,63.548,141.229,73.24,134.305z"/>
	<path fill-rule="evenodd" clip-rule="evenodd" d="M193.958,210.107c8.807-10.094,16.008-18.347,25.231-28.915
		c3.865,11.884,7.31,22.482,11.775,36.202C216.772,214.603,205.779,212.438,193.958,210.107z"/>
	<path fill-rule="evenodd" clip-rule="evenodd" d="M115.998,216.606c-11.27,4.253-21.396,8.073-35.22,13.289
		c2.063-14.14,3.681-25.25,5.552-38.08C96.64,200.43,105.257,207.63,115.998,216.606z"/>
	<path fill-rule="evenodd" clip-rule="evenodd" d="M124.114,177.53c-1.201,13.082-2.088,22.758-3.328,36.302
		c-11.645-9.688-20.681-17.208-29.723-24.729c0.292-1.153,0.583-2.306,0.875-3.455C101.901,183.133,111.863,180.619,124.114,177.53z
		"/>
	<path fill-rule="evenodd" clip-rule="evenodd" d="M163.616,72.63c-14.226,1.036-25.507,1.855-39.186,2.851
		c4.709-10.684,9.089-20.616,14.669-33.273C147.863,53.086,155.208,62.199,163.616,72.63z"/>
	<path fill-rule="evenodd" clip-rule="evenodd" d="M206.253,110.689c-9.86,2.276-19.718,4.551-31.428,7.253
		c0.889-11.913,1.628-21.835,2.369-31.758c1.119-0.685,2.233-1.37,3.353-2.055c9.097,7.532,18.193,15.063,27.287,22.593
		C207.309,108.045,206.778,109.366,206.253,110.689z"/>
	<path fill-rule="evenodd" clip-rule="evenodd" d="M179.328,173.066c11.94,0.942,21.556,1.702,32.744,2.587
		c-3.516,14.276-12.729,21.325-23.456,30.234C185.426,194.614,182.717,185.031,179.328,173.066z"/>
	<path fill-rule="evenodd" clip-rule="evenodd" d="M158.607,253.159c-8.515-11.4-15.186-20.338-22.583-30.242
		c13.547-1.075,25.018-1.989,39.05-3.103C169.744,230.609,164.834,240.552,158.607,253.159z"/>
	<path fill-rule="evenodd" clip-rule="evenodd" d="M225.641,161.453c-1.129-13.452-2.082-24.828-3.218-38.357
		c10.623,5.007,20.576,9.7,33.134,15.622C244.314,147.261,235.106,154.259,225.641,161.453z"/>
	<path fill-rule="evenodd" clip-rule="evenodd" d="M111.591,91.425c2.535,9.328,5.068,18.656,8.31,30.6
		c-12.243-1.099-21.918-1.967-31.59-2.835c-0.76-1.137-1.521-2.275-2.278-3.413c7.061-8.584,14.122-17.17,21.186-25.753
		C108.676,90.491,110.133,90.957,111.591,91.425z"/>
	<path fill-rule="evenodd" clip-rule="evenodd" d="M110.105,150.73c-9.97,7.953-17.431,13.899-27.896,22.249
		c-1.481-14.049-2.645-25.087-3.806-36.126c1.136-0.693,2.273-1.386,3.412-2.078C90.485,139.665,99.154,144.555,110.105,150.73z"/>
	<path fill-rule="evenodd" clip-rule="evenodd" d="M181.567,256.712c3.366-8.61,4.772-22.294,10.598-24.545
		c7.319-2.827,18.257,3.703,27.634,6.196c0.214,1.177,0.429,2.354,0.642,3.529c-11.384,5.868-22.771,11.737-34.157,17.604
		C184.71,258.568,183.138,257.639,181.567,256.712z"/>
	<path fill-rule="evenodd" clip-rule="evenodd" d="M152.784,186.597c8.06,9.612,14.446,17.229,23.359,27.857
		c-14.517,1.285-26.033,2.305-37.55,3.322c-0.507-1.104-1.015-2.211-1.521-3.317C142.011,205.703,146.948,196.948,152.784,186.597z"
		/>
	<path fill-rule="evenodd" clip-rule="evenodd" d="M177.77,62.241c-4.84-10.098-9.037-18.859-13.236-27.621
		c0.681-1.011,1.361-2.019,2.041-3.029c12.083,3.911,24.165,7.823,36.25,11.735c0.043,1.185,0.09,2.374,0.136,3.56
		C194.983,51.749,187.008,56.61,177.77,62.241z"/>
	<path fill-rule="evenodd" clip-rule="evenodd" d="M217.467,126.099c0.851,11.013,1.699,22.024,2.815,36.513
		c-11.608-6.494-20.282-11.348-31.565-17.661c9.826-7.983,17.483-14.205,25.139-20.426
		C215.062,125.05,216.263,125.575,217.467,126.099z"/>
	<path fill-rule="evenodd" clip-rule="evenodd" d="M162.301,81.164c-5.178,8.497-10.359,16.993-16.852,27.646
		c-7.247-9.382-13.128-17.002-21.432-27.762c14.223-1.33,25.37-2.371,36.513-3.414C161.119,78.812,161.712,79.989,162.301,81.164z"
		/>
	<path fill-rule="evenodd" clip-rule="evenodd" d="M53.282,217.053c-5.812-11.4-11.627-22.803-18.876-37.021
		c12.431,3.305,21.676,5.763,32.478,8.634c-3.642,9.537-7.085,18.537-10.524,27.538C55.333,216.487,54.309,216.771,53.282,217.053z"
		/>
	<path fill-rule="evenodd" clip-rule="evenodd" d="M244.653,77.472c6.683,13.249,12.448,24.688,19.266,38.208
		c-4.581-0.493-6.233-0.532-7.827-0.864C230.104,109.407,227.346,102.044,244.653,77.472z"/>
	<path fill-rule="evenodd" clip-rule="evenodd" d="M266.647,166.666c-3.963,11.457-7.925,22.911-11.89,34.368
		c-0.957,0.33-1.913,0.661-2.867,0.991c-4.232-7.377-8.745-14.616-12.444-22.252c-0.722-1.487,1.117-5.719,2.849-6.621
		c6.802-3.546,14.035-6.27,21.105-9.298C264.483,164.791,265.565,165.729,266.647,166.666z"/>
	<path fill-rule="evenodd" clip-rule="evenodd" d="M135.25,263.4c-14.63-3.891-26.501-7.046-38.371-10.203
		c-0.349-1.099-0.697-2.194-1.041-3.292c7.93-5.176,15.861-10.35,25.442-16.6C126.129,243.749,130.212,252.545,135.25,263.4z"/>
	<path fill-rule="evenodd" clip-rule="evenodd" d="M79.821,52.168c11.148-5.487,22.296-10.972,33.444-16.46
		c1.02,0.92,2.04,1.838,3.061,2.759c-2.908,8.371-4.078,22.235-9.126,23.832c-7.692,2.431-18.07-3.632-27.305-6.087
		C79.871,54.862,79.847,53.514,79.821,52.168z"/>
	<path fill-rule="evenodd" clip-rule="evenodd" d="M46.692,94.917c4.78,7.731,9.561,15.466,15.113,24.448
		c-9.79,4.447-18.327,8.324-28.319,12.865c3.65-13.727,6.754-25.406,9.859-37.084C44.458,95.07,45.576,94.992,46.692,94.917z"/>
	<path fill-rule="evenodd" clip-rule="evenodd" d="M119.031,147.818c-5.603-5.331-9.623-9.156-15.711-14.952
		c8.063-1.203,13.686-2.042,20.498-3.058C122.087,136.321,120.836,141.026,119.031,147.818z"/>
	<path fill-rule="evenodd" clip-rule="evenodd" d="M154.632,177.482c6.229-3.162,10.563-5.362,15.975-8.112
		c0.538,6.453,0.987,11.821,1.734,20.771C165.179,185.023,160.458,181.647,154.632,177.482z"/>
	<path fill-rule="evenodd" clip-rule="evenodd" d="M127.662,168.507c-6.877-0.013-12.273-0.022-20.284-0.036
		c4.497-6.439,7.538-10.792,11.48-16.44C122.008,157.928,124.382,162.368,127.662,168.507z"/>
	<path fill-rule="evenodd" clip-rule="evenodd" d="M179.222,143.628c-2.251-7.032-3.653-11.41-5.314-16.601
		c3.264-0.173,8.73-0.463,17.926-0.952C186.92,132.907,183.901,137.111,179.222,143.628z"/>
	<path fill-rule="evenodd" clip-rule="evenodd" d="M163.897,102.819c1.351,8.693,2.177,14.008,3.129,20.12
		c-6.599-1.754-11.622-3.09-18.405-4.893C153.635,113.047,157.692,109.004,163.897,102.819z"/>
	<path fill-rule="evenodd" clip-rule="evenodd" d="M174.603,165.22c2.152-6.848,3.594-11.439,5.441-17.32
		c4.767,4.49,8.687,8.182,14.797,13.934C186.81,163.178,181.607,164.049,174.603,165.22z"/>
	<path fill-rule="evenodd" clip-rule="evenodd" d="M127.144,104.819c7.003,5.146,11.581,8.508,17.613,12.939
		c-5.749,2.865-9.72,4.849-15.389,7.674C128.672,118.976,128.077,113.465,127.144,104.819z"/>
	<path fill-rule="evenodd" clip-rule="evenodd" d="M148.597,178.049c-4.45,4.923-7.88,8.72-13.191,14.596
		c-1.336-8.182-2.241-13.725-3.354-20.531C137.854,174.193,142.07,175.706,148.597,178.049z"/>
</g>
</svg>
