<?xml version="1.0" encoding="UTF-8"?>
<!DOCTYPE svg PUBLIC "-//W3C//DTD SVG 1.1//EN" "http://www.w3.org/Graphics/SVG/1.1/DTD/svg11.dtd">
<svg version="1.2" width="73.61mm" height="74.84mm" viewBox="11400 3916 7361 7484" preserveAspectRatio="xMidYMid" fill-rule="evenodd" stroke-width="28.222" stroke-linejoin="round" xmlns="http://www.w3.org/2000/svg" xmlns:ooo="http://xml.openoffice.org/svg/export" xmlns:xlink="http://www.w3.org/1999/xlink" xmlns:presentation="http://sun.com/xmlns/staroffice/presentation" xmlns:smil="http://www.w3.org/2001/SMIL20/" xmlns:anim="urn:oasis:names:tc:opendocument:xmlns:animation:1.0" xml:space="preserve">
 <defs class="ClipPathGroup">
  <clipPath id="presentation_clip_path" clipPathUnits="userSpaceOnUse">
   <rect x="11400" y="3916" width="7361" height="7484"/>
  </clipPath>
 </defs>
 <defs class="TextShapeIndex">
  <g ooo:slide="id1" ooo:id-list="id3"/>
 </defs>
 <defs class="EmbeddedBulletChars">
  <g id="bullet-char-template(57356)" transform="scale(0.00048828125,-0.00048828125)">
   <path d="M 580,1141 L 1163,571 580,0 -4,571 580,1141 Z"/>
  </g>
  <g id="bullet-char-template(57354)" transform="scale(0.00048828125,-0.00048828125)">
   <path d="M 8,1128 L 1137,1128 1137,0 8,0 8,1128 Z"/>
  </g>
  <g id="bullet-char-template(10146)" transform="scale(0.00048828125,-0.00048828125)">
   <path d="M 174,0 L 602,739 174,1481 1456,739 174,0 Z M 1358,739 L 309,1346 659,739 1358,739 Z"/>
  </g>
  <g id="bullet-char-template(10132)" transform="scale(0.00048828125,-0.00048828125)">
   <path d="M 2015,739 L 1276,0 717,0 1260,543 174,543 174,936 1260,936 717,1481 1274,1481 2015,739 Z"/>
  </g>
  <g id="bullet-char-template(10007)" transform="scale(0.00048828125,-0.00048828125)">
   <path d="M 0,-2 C -7,14 -16,27 -25,37 L 356,567 C 262,823 215,952 215,954 215,979 228,992 255,992 264,992 276,990 289,987 310,991 331,999 354,1012 L 381,999 492,748 772,1049 836,1024 860,1049 C 881,1039 901,1025 922,1006 886,937 835,863 770,784 769,783 710,716 594,584 L 774,223 C 774,196 753,168 711,139 L 727,119 C 717,90 699,76 672,76 641,76 570,178 457,381 L 164,-76 C 142,-110 111,-127 72,-127 30,-127 9,-110 8,-76 1,-67 -2,-52 -2,-32 -2,-23 -1,-13 0,-2 Z"/>
  </g>
  <g id="bullet-char-template(10004)" transform="scale(0.00048828125,-0.00048828125)">
   <path d="M 285,-33 C 182,-33 111,30 74,156 52,228 41,333 41,471 41,549 55,616 82,672 116,743 169,778 240,778 293,778 328,747 346,684 L 369,508 C 377,444 397,411 428,410 L 1163,1116 C 1174,1127 1196,1133 1229,1133 1271,1133 1292,1118 1292,1087 L 1292,965 C 1292,929 1282,901 1262,881 L 442,47 C 390,-6 338,-33 285,-33 Z"/>
  </g>
  <g id="bullet-char-template(9679)" transform="scale(0.00048828125,-0.00048828125)">
   <path d="M 813,0 C 632,0 489,54 383,161 276,268 223,411 223,592 223,773 276,916 383,1023 489,1130 632,1184 813,1184 992,1184 1136,1130 1245,1023 1353,916 1407,772 1407,592 1407,412 1353,268 1245,161 1136,54 992,0 813,0 Z"/>
  </g>
  <g id="bullet-char-template(8226)" transform="scale(0.00048828125,-0.00048828125)">
   <path d="M 346,457 C 273,457 209,483 155,535 101,586 74,649 74,723 74,796 101,859 155,911 209,963 273,989 346,989 419,989 480,963 531,910 582,859 608,796 608,723 608,648 583,586 532,535 482,483 420,457 346,457 Z"/>
  </g>
  <g id="bullet-char-template(8211)" transform="scale(0.00048828125,-0.00048828125)">
   <path d="M -4,459 L 1135,459 1135,606 -4,606 -4,459 Z"/>
  </g>
 </defs>
 <defs class="TextEmbeddedBitmaps"/>
 <g class="SlideGroup">
  <g>
   <g id="id1" class="Slide" clip-path="url(#presentation_clip_path)">
    <g class="Page">
     <g class="Graphic">
      <g id="id3">
       <rect class="BoundingBox" stroke="none" fill="none" x="11400" y="3916" width="7362" height="7485"/>
       <path fill="rgb(0,0,0)" stroke="none" d="M 12130,7945 C 12130,9853 13392,11400 14948,11400 16504,11400 17766,9853 17766,7945 17766,6038 16504,4491 14948,4491 13392,4491 12130,6038 12130,7945 L 12130,7945 12130,7945 Z"/>
       <path fill="none" stroke="rgb(0,0,0)" stroke-width="1" stroke-linejoin="miter" d="M 12130,7945 C 12130,9853 13392,11400 14948,11400 16504,11400 17766,9853 17766,7945 17766,6038 16504,4491 14948,4491 13392,4491 12130,6038 12130,7945 L 12130,7945 12130,7945 Z"/>
       <path fill="rgb(232,204,186)" stroke="none" d="M 12190,7951 C 12190,9828 13430,11349 14960,11349 16490,11349 17730,9828 17730,7951 17730,6075 16490,4554 14960,4554 13430,4554 12190,6075 12190,7951 L 12190,7951 12190,7951 Z"/>
       <path fill="none" stroke="rgb(0,0,0)" stroke-width="1" stroke-linejoin="miter" d="M 12190,7951 C 12190,9828 13430,11349 14960,11349 16490,11349 17730,9828 17730,7951 17730,6075 16490,4554 14960,4554 13430,4554 12190,6075 12190,7951 L 12190,7951 12190,7951 Z"/>
       <path fill="rgb(0,0,0)" stroke="none" d="M 14429,7320 C 14429,7414 14514,7491 14619,7491 14724,7491 14808,7414 14808,7320 14808,7226 14724,7149 14619,7149 14514,7149 14429,7226 14429,7320 L 14429,7320 14429,7320 Z"/>
       <path fill="none" stroke="rgb(0,0,0)" stroke-width="1" stroke-linejoin="miter" d="M 14429,7320 C 14429,7414 14514,7491 14619,7491 14724,7491 14808,7414 14808,7320 14808,7226 14724,7149 14619,7149 14514,7149 14429,7226 14429,7320 L 14429,7320 14429,7320 Z"/>
       <path fill="rgb(255,255,255)" stroke="none" d="M 14525,7289 C 14525,7318 14548,7341 14576,7341 14605,7341 14628,7318 14628,7289 14628,7261 14605,7238 14576,7238 14548,7238 14525,7261 14525,7289 L 14525,7289 14525,7289 Z"/>
       <path fill="none" stroke="rgb(0,0,0)" stroke-width="1" stroke-linejoin="miter" d="M 14525,7289 C 14525,7318 14548,7341 14576,7341 14605,7341 14628,7318 14628,7289 14628,7261 14605,7238 14576,7238 14548,7238 14525,7261 14525,7289 L 14525,7289 14525,7289 Z"/>
       <path fill="rgb(0,0,0)" stroke="none" d="M 14333,6910 C 14367,6884 14436,6843 14494,6822 14549,6801 14618,6783 14665,6782 14709,6780 14755,6795 14764,6811 14771,6826 14746,6861 14711,6875 14674,6886 14597,6872 14545,6887 14491,6903 14438,6939 14401,6963 14365,6983 14343,7017 14327,7019 14307,7021 14296,6998 14296,6979 14296,6959 14301,6937 14333,6910 L 14333,6910 14333,6910 Z"/>
       <path fill="none" stroke="rgb(0,0,0)" stroke-width="1" stroke-linejoin="miter" d="M 14333,6910 C 14367,6884 14436,6843 14494,6822 14549,6801 14618,6783 14665,6782 14709,6780 14755,6795 14764,6811 14771,6826 14746,6861 14711,6875 14674,6886 14597,6872 14545,6887 14491,6903 14438,6939 14401,6963 14365,6983 14343,7017 14327,7019 14307,7021 14296,6998 14296,6979 14296,6959 14301,6937 14333,6910 L 14333,6910 14333,6910 Z"/>
       <path fill="rgb(0,0,0)" stroke="none" d="M 15422,7307 C 15422,7400 15337,7474 15232,7474 15127,7474 15042,7400 15042,7307 15042,7214 15127,7140 15232,7140 15337,7140 15422,7214 15422,7307 L 15422,7307 15422,7307 Z"/>
       <path fill="none" stroke="rgb(0,0,0)" stroke-width="1" stroke-linejoin="miter" d="M 15422,7307 C 15422,7400 15337,7474 15232,7474 15127,7474 15042,7400 15042,7307 15042,7214 15127,7140 15232,7140 15337,7140 15422,7214 15422,7307 L 15422,7307 15422,7307 Z"/>
       <path fill="rgb(255,255,255)" stroke="none" d="M 15271,7276 C 15271,7304 15248,7328 15219,7328 15190,7328 15167,7304 15167,7276 15167,7248 15190,7224 15219,7224 15248,7224 15271,7248 15271,7276 L 15271,7276 15271,7276 Z"/>
       <path fill="none" stroke="rgb(0,0,0)" stroke-width="1" stroke-linejoin="miter" d="M 15271,7276 C 15271,7304 15248,7328 15219,7328 15190,7328 15167,7304 15167,7276 15167,7248 15190,7224 15219,7224 15248,7224 15271,7248 15271,7276 L 15271,7276 15271,7276 Z"/>
       <path fill="rgb(0,0,0)" stroke="none" d="M 15567,6988 C 15531,6953 15453,6898 15395,6866 15334,6832 15262,6802 15214,6792 15166,6782 15119,6787 15112,6804 15104,6818 15132,6860 15171,6881 15209,6899 15290,6899 15345,6924 15401,6950 15457,6999 15499,7031 15539,7059 15560,7098 15581,7105 15598,7110 15613,7088 15611,7068 15609,7048 15603,7021 15567,6988 L 15567,6988 15567,6988 Z"/>
       <path fill="none" stroke="rgb(0,0,0)" stroke-width="1" stroke-linejoin="miter" d="M 15567,6988 C 15531,6953 15453,6898 15395,6866 15334,6832 15262,6802 15214,6792 15166,6782 15119,6787 15112,6804 15104,6818 15132,6860 15171,6881 15209,6899 15290,6899 15345,6924 15401,6950 15457,6999 15499,7031 15539,7059 15560,7098 15581,7105 15598,7110 15613,7088 15611,7068 15609,7048 15603,7021 15567,6988 L 15567,6988 15567,6988 Z"/>
       <path fill="rgb(0,0,0)" stroke="none" d="M 12299,7185 C 12218,7164 12138,7168 12054,7196 11969,7222 11862,7258 11796,7350 11728,7441 11661,7596 11657,7745 11652,7896 11715,8110 11775,8234 11834,8356 11903,8431 12017,8474 12131,8517 12274,8520 12454,8487 L 12454,8487 12299,7185 12299,7185 12299,7185 Z"/>
       <path fill="none" stroke="rgb(0,0,0)" stroke-width="1" stroke-linejoin="miter" d="M 12299,7185 C 12218,7164 12138,7168 12054,7196 11969,7222 11862,7258 11796,7350 11728,7441 11661,7596 11657,7745 11652,7896 11715,8110 11775,8234 11834,8356 11903,8431 12017,8474 12131,8517 12274,8520 12454,8487 L 12454,8487 12299,7185 12299,7185 12299,7185 Z"/>
       <path fill="rgb(232,204,186)" stroke="none" d="M 12249,8585 C 12378,8624 12469,8612 12525,8549 12581,8483 12599,8400 12584,8204 12567,8004 12478,7559 12428,7374 12376,7190 12329,7102 12282,7107 L 12282,7107 C 12277,7160 12266,7198 12245,7224 12224,7248 12198,7248 12158,7260 12116,7272 12053,7274 12003,7300 11952,7325 11902,7339 11860,7407 11816,7475 11760,7591 11747,7704 11734,7817 11759,7981 11782,8077 11806,8173 11851,8219 11888,8272 11924,8320 11958,8354 11999,8378 12040,8400 12088,8404 12126,8414 12161,8424 12194,8408 12215,8437 12234,8466 12248,8514 12249,8585 L 12249,8585 12249,8585 Z"/>
       <path fill="rgb(0,0,0)" stroke="none" d="M 17622,7208 C 17702,7187 17782,7190 17866,7218 17951,7245 18056,7281 18124,7373 18191,7464 18260,7619 18264,7768 18266,7917 18206,8133 18146,8258 18084,8379 18016,8454 17904,8497 17789,8539 17646,8543 17467,8510 L 17467,8510 17622,7208 17622,7208 17622,7208 Z"/>
       <path fill="none" stroke="rgb(0,0,0)" stroke-width="1" stroke-linejoin="miter" d="M 17622,7208 C 17702,7187 17782,7190 17866,7218 17951,7245 18056,7281 18124,7373 18191,7464 18260,7619 18264,7768 18266,7917 18206,8133 18146,8258 18084,8379 18016,8454 17904,8497 17789,8539 17646,8543 17467,8510 L 17467,8510 17622,7208 17622,7208 17622,7208 Z"/>
       <path fill="rgb(232,204,186)" stroke="none" d="M 17672,8607 C 17543,8647 17452,8635 17396,8572 17339,8506 17320,8425 17336,8227 17352,8027 17441,7582 17493,7396 17545,7212 17591,7125 17639,7130 L 17639,7130 C 17643,7182 17654,7221 17676,7247 17696,7270 17722,7272 17762,7283 17803,7294 17866,7298 17918,7322 17968,7346 18018,7363 18062,7430 18104,7498 18159,7613 18173,7726 18185,7840 18162,8003 18138,8100 18114,8196 18068,8241 18033,8294 17996,8342 17962,8377 17922,8401 17880,8424 17831,8426 17795,8437 17758,8445 17726,8432 17706,8461 17684,8489 17673,8537 17672,8607 L 17672,8607 17672,8607 Z"/>
       <path fill="rgb(0,0,0)" stroke="none" d="M 14864,10260 C 14736,10247 14687,10251 14541,10207 14396,10163 14162,10087 14001,9996 13841,9905 13714,9806 13586,9667 13459,9528 13325,9338 13242,9171 13161,9002 13147,8774 13096,8670 13045,8566 13009,8609 13039,8756 13069,8902 13217,9256 13217,9256 L 13217,9256 C 13304,9453 13417,9618 13568,9764 13720,9908 13944,10033 14112,10118 14277,10201 14436,10231 14556,10264 14673,10297 14730,10305 14820,10314 14910,10322 15002,10322 15092,10314 15181,10305 15239,10297 15358,10264 15477,10231 15635,10201 15801,10118 15968,10033 16193,9908 16345,9764 16494,9618 16606,9425 16696,9256 16784,9086 16843,8923 16874,8756 L 16874,8756 C 16891,8649 16894,8592 16885,8577 16876,8563 16854,8593 16817,8670 L 16817,8670 C 16801,8838 16752,9002 16670,9171 16588,9338 16454,9528 16327,9667 16199,9806 16073,9905 15912,9996 15751,10087 15517,10163 15372,10207 15227,10251 15176,10247 15050,10260 14922,10274 14990,10274 14864,10260 L 14864,10260 14864,10260 Z"/>
       <path fill="none" stroke="rgb(0,0,0)" stroke-width="1" stroke-linejoin="miter" d="M 14864,10260 C 14736,10247 14687,10251 14541,10207 14396,10163 14162,10087 14001,9996 13841,9905 13714,9806 13586,9667 13459,9528 13325,9338 13242,9171 13161,9002 13147,8774 13096,8670 13045,8566 13009,8609 13039,8756 13069,8902 13217,9256 13217,9256 L 13217,9256 C 13304,9453 13417,9618 13568,9764 13720,9908 13944,10033 14112,10118 14277,10201 14436,10231 14556,10264 14673,10297 14730,10305 14820,10314 14910,10322 15002,10322 15092,10314 15181,10305 15239,10297 15358,10264 15477,10231 15635,10201 15801,10118 15968,10033 16193,9908 16345,9764 16494,9618 16606,9425 16696,9256 16784,9086 16843,8923 16874,8756 L 16874,8756 C 16891,8649 16894,8592 16885,8577 16876,8563 16854,8593 16817,8670 L 16817,8670 C 16801,8838 16752,9002 16670,9171 16588,9338 16454,9528 16327,9667 16199,9806 16073,9905 15912,9996 15751,10087 15517,10163 15372,10207 15227,10251 15176,10247 15050,10260 14922,10274 14990,10274 14864,10260 L 14864,10260 14864,10260 Z"/>
       <path fill="rgb(0,0,0)" stroke="none" d="M 12126,7505 C 12094,7531 12029,7641 12008,7714 11985,7786 11969,7878 11994,7935 12018,7991 12096,8046 12158,8049 12219,8048 12302,7944 12362,7945 12420,7947 12481,8061 12506,8058 12530,8053 12527,7952 12506,7913 12482,7873 12430,7817 12371,7822 12309,7829 12204,7941 12153,7945 12102,7944 12065,7897 12071,7832 12078,7764 12180,7610 12189,7555 12197,7499 12156,7479 12126,7505 L 12126,7505 12126,7505 Z"/>
       <path fill="none" stroke="rgb(0,0,0)" stroke-width="1" stroke-linejoin="miter" d="M 12126,7505 C 12094,7531 12029,7641 12008,7714 11985,7786 11969,7878 11994,7935 12018,7991 12096,8046 12158,8049 12219,8048 12302,7944 12362,7945 12420,7947 12481,8061 12506,8058 12530,8053 12527,7952 12506,7913 12482,7873 12430,7817 12371,7822 12309,7829 12204,7941 12153,7945 12102,7944 12065,7897 12071,7832 12078,7764 12180,7610 12189,7555 12197,7499 12156,7479 12126,7505 L 12126,7505 12126,7505 Z"/>
       <path fill="rgb(0,0,0)" stroke="none" d="M 17806,7505 C 17836,7531 17902,7641 17924,7714 17947,7786 17961,7878 17938,7935 17911,7991 17837,8046 17775,8049 17712,8048 17629,7944 17571,7945 17511,7947 17450,8061 17426,8058 17401,8053 17403,7952 17426,7913 17449,7873 17501,7817 17562,7822 17622,7829 17727,7941 17780,7945 17829,7944 17866,7897 17861,7832 17854,7764 17751,7610 17743,7555 17734,7499 17776,7479 17806,7505 L 17806,7505 17806,7505 Z"/>
       <path fill="none" stroke="rgb(0,0,0)" stroke-width="1" stroke-linejoin="miter" d="M 17806,7505 C 17836,7531 17902,7641 17924,7714 17947,7786 17961,7878 17938,7935 17911,7991 17837,8046 17775,8049 17712,8048 17629,7944 17571,7945 17511,7947 17450,8061 17426,8058 17401,8053 17403,7952 17426,7913 17449,7873 17501,7817 17562,7822 17622,7829 17727,7941 17780,7945 17829,7944 17866,7897 17861,7832 17854,7764 17751,7610 17743,7555 17734,7499 17776,7479 17806,7505 L 17806,7505 17806,7505 Z"/>
       <path fill="rgb(0,0,0)" stroke="none" d="M 15004,4153 C 14913,4048 14791,3981 14629,3948 14463,3915 14251,3892 14035,3960 13819,4027 13586,4152 13350,4350 13113,4550 12836,4845 12633,5140 12428,5434 12262,5824 12138,6095 12014,6364 11974,6596 11889,6741 11802,6884 11715,6897 11633,6945 11551,6990 11435,6961 11410,7019 11385,7079 11408,7221 11487,7294 11567,7366 11758,7432 11882,7447 12006,7458 12115,7432 12218,7368 L 12218,7368 C 12494,7435 12700,7458 12844,7437 12984,7415 13041,7396 13071,7242 13100,7085 12970,6768 13024,6515 13077,6262 13195,5955 13388,5738 13581,5521 13948,5312 14175,5224 14401,5136 14611,5198 14738,5213 14864,5225 14858,5304 14929,5304 15000,5304 15076,5236 15159,5214 15242,5190 15304,5138 15428,5168 15553,5196 15759,5289 15901,5384 16039,5479 16139,5575 16258,5733 16377,5891 16520,6078 16608,6329 16693,6582 16701,7045 16774,7232 16847,7416 16941,7387 17043,7433 17143,7478 17239,7510 17376,7505 17513,7498 17672,7463 17860,7398 L 17860,7398 C 17941,7398 18034,7383 18144,7352 18254,7320 18411,7294 18515,7212 18618,7129 18779,6937 18759,6859 18739,6780 18488,6785 18395,6743 18302,6700 18294,6776 18202,6607 18108,6434 17992,6038 17835,5726 17676,5413 17503,5008 17262,4746 17017,4483 16678,4289 16394,4160 16109,4031 15787,3991 15576,3977 15366,3962 15239,4035 15144,4066 15046,4095 15002,4124 15004,4153 L 15004,4153 15004,4153 Z"/>
       <path fill="none" stroke="rgb(0,0,0)" stroke-width="1" stroke-linejoin="miter" d="M 15004,4153 C 14913,4048 14791,3981 14629,3948 14463,3915 14251,3892 14035,3960 13819,4027 13586,4152 13350,4350 13113,4550 12836,4845 12633,5140 12428,5434 12262,5824 12138,6095 12014,6364 11974,6596 11889,6741 11802,6884 11715,6897 11633,6945 11551,6990 11435,6961 11410,7019 11385,7079 11408,7221 11487,7294 11567,7366 11758,7432 11882,7447 12006,7458 12115,7432 12218,7368 L 12218,7368 C 12494,7435 12700,7458 12844,7437 12984,7415 13041,7396 13071,7242 13100,7085 12970,6768 13024,6515 13077,6262 13195,5955 13388,5738 13581,5521 13948,5312 14175,5224 14401,5136 14611,5198 14738,5213 14864,5225 14858,5304 14929,5304 15000,5304 15076,5236 15159,5214 15242,5190 15304,5138 15428,5168 15553,5196 15759,5289 15901,5384 16039,5479 16139,5575 16258,5733 16377,5891 16520,6078 16608,6329 16693,6582 16701,7045 16774,7232 16847,7416 16941,7387 17043,7433 17143,7478 17239,7510 17376,7505 17513,7498 17672,7463 17860,7398 L 17860,7398 C 17941,7398 18034,7383 18144,7352 18254,7320 18411,7294 18515,7212 18618,7129 18779,6937 18759,6859 18739,6780 18488,6785 18395,6743 18302,6700 18294,6776 18202,6607 18108,6434 17992,6038 17835,5726 17676,5413 17503,5008 17262,4746 17017,4483 16678,4289 16394,4160 16109,4031 15787,3991 15576,3977 15366,3962 15239,4035 15144,4066 15046,4095 15002,4124 15004,4153 L 15004,4153 15004,4153 Z"/>
       <path fill="rgb(73,50,42)" stroke="none" d="M 12946,4851 C 13074,4697 13213,4562 13368,4440 13522,4315 13712,4199 13868,4124 14024,4048 14157,4006 14300,3997 14442,3987 14603,4031 14715,4065 14824,4096 14911,4112 14960,4192 15006,4272 14992,4415 15002,4543 15011,4670 15023,4831 15015,4949 15004,5064 14981,5154 14942,5229 L 14942,5229 C 14892,5187 14814,5158 14706,5139 14595,5119 14437,5090 14291,5115 14145,5140 14005,5185 13839,5288 13672,5389 13438,5560 13298,5718 13157,5875 13066,6049 13006,6224 12947,6398 12937,6589 12941,6751 12945,6911 13037,7070 13023,7176 13005,7280 12937,7345 12849,7377 12759,7407 12617,7378 12504,7366 12391,7354 12284,7332 12178,7302 L 12178,7302 C 12084,7373 11985,7406 11881,7401 11774,7394 11624,7327 11554,7270 11482,7212 11439,7111 11464,7063 11489,7013 11629,7025 11709,6979 11788,6932 11861,6918 11936,6792 12009,6664 12050,6457 12150,6229 12250,6000 12396,5667 12529,5436 12663,5205 12799,5013 12946,4851 L 12946,4851 12946,4851 Z"/>
       <path fill="rgb(73,50,42)" stroke="none" d="M 15028,4197 C 15107,4127 15216,4083 15361,4059 15503,4034 15674,4009 15887,4056 16099,4104 16401,4209 16632,4339 16863,4469 17070,4600 17257,4829 17443,5058 17611,5447 17737,5699 17860,5949 17924,6147 17998,6321 18068,6494 18093,6636 18169,6728 18247,6816 18382,6830 18459,6854 18533,6875 18581,6846 18617,6864 18650,6882 18695,6903 18665,6959 18632,7015 18537,7132 18433,7192 18326,7250 18153,7288 18046,7310 17938,7331 17858,7333 17798,7318 L 17798,7318 C 17731,7394 17637,7431 17509,7433 17380,7432 17223,7396 17031,7321 L 17031,7321 C 16983,7339 16941,7328 16903,7288 16865,7248 16838,7226 16806,7081 16774,6931 16784,6637 16708,6409 16631,6178 16492,5917 16348,5722 16201,5526 15997,5361 15843,5251 15690,5143 15568,5083 15433,5077 15295,5070 15164,5114 15031,5211 L 15031,5211 C 15067,5124 15089,5020 15096,4893 15102,4766 15084,4567 15073,4451 15061,4335 15047,4251 15028,4197 L 15028,4197 15028,4197 Z"/>
       <path fill="rgb(0,0,0)" stroke="none" d="M 15348,4352 C 15400,4323 15505,4234 15675,4244 15845,4252 16139,4284 16356,4409 16573,4534 16762,4732 16962,4989 17161,5246 17389,5652 17542,5938 17691,6221 17772,6510 17860,6678 17944,6844 17971,6871 18055,6927 18140,6978 18329,6979 18366,6999 18401,7020 18332,7049 18270,7047 18204,7043 18064,7037 17982,6975 17898,6910 17860,6836 17776,6666 17693,6494 17600,6194 17483,5955 17363,5713 17215,5449 17067,5233 16918,5018 16744,4808 16598,4671 16451,4534 16332,4474 16192,4414 16048,4351 15871,4323 15753,4308 15634,4295 15555,4315 15490,4332 15426,4348 15387,4400 15365,4404 15340,4405 15296,4379 15348,4352 L 15348,4352 15348,4352 Z"/>
       <path fill="none" stroke="rgb(0,0,0)" stroke-width="1" stroke-linejoin="miter" d="M 15348,4352 C 15400,4323 15505,4234 15675,4244 15845,4252 16139,4284 16356,4409 16573,4534 16762,4732 16962,4989 17161,5246 17389,5652 17542,5938 17691,6221 17772,6510 17860,6678 17944,6844 17971,6871 18055,6927 18140,6978 18329,6979 18366,6999 18401,7020 18332,7049 18270,7047 18204,7043 18064,7037 17982,6975 17898,6910 17860,6836 17776,6666 17693,6494 17600,6194 17483,5955 17363,5713 17215,5449 17067,5233 16918,5018 16744,4808 16598,4671 16451,4534 16332,4474 16192,4414 16048,4351 15871,4323 15753,4308 15634,4295 15555,4315 15490,4332 15426,4348 15387,4400 15365,4404 15340,4405 15296,4379 15348,4352 L 15348,4352 15348,4352 Z"/>
       <path fill="rgb(0,0,0)" stroke="none" d="M 15326,4578 C 15411,4555 15633,4473 15812,4517 15990,4559 16192,4660 16386,4835 16579,5013 16783,5270 16958,5567 17132,5863 17299,6355 17421,6595 17541,6832 17647,6918 17674,6985 17699,7050 17643,7081 17577,6988 17509,6891 17383,6636 17280,6420 17175,6200 17076,5914 16955,5694 16832,5473 16688,5276 16553,5115 16419,4952 16266,4825 16157,4738 16047,4652 15993,4630 15897,4604 15800,4576 15688,4567 15588,4576 15487,4585 15351,4652 15306,4654 15261,4652 15240,4600 15326,4578 L 15326,4578 15326,4578 Z"/>
       <path fill="none" stroke="rgb(0,0,0)" stroke-width="1" stroke-linejoin="miter" d="M 15326,4578 C 15411,4555 15633,4473 15812,4517 15990,4559 16192,4660 16386,4835 16579,5013 16783,5270 16958,5567 17132,5863 17299,6355 17421,6595 17541,6832 17647,6918 17674,6985 17699,7050 17643,7081 17577,6988 17509,6891 17383,6636 17280,6420 17175,6200 17076,5914 16955,5694 16832,5473 16688,5276 16553,5115 16419,4952 16266,4825 16157,4738 16047,4652 15993,4630 15897,4604 15800,4576 15688,4567 15588,4576 15487,4585 15351,4652 15306,4654 15261,4652 15240,4600 15326,4578 L 15326,4578 15326,4578 Z"/>
       <path fill="rgb(0,0,0)" stroke="none" d="M 15288,4797 C 15373,4790 15657,4778 15815,4817 15969,4857 16077,4885 16220,5036 16362,5186 16537,5497 16663,5712 16786,5925 16845,6076 16961,6310 17076,6543 17289,6963 17347,7101 17403,7233 17363,7234 17296,7117 17225,6997 17063,6644 16941,6401 16819,6156 16699,5891 16572,5670 16442,5449 16313,5224 16177,5090 16039,4957 15901,4910 15756,4871 15609,4831 15392,4860 15312,4849 15233,4836 15204,4802 15288,4797 L 15288,4797 15288,4797 Z"/>
       <path fill="none" stroke="rgb(0,0,0)" stroke-width="1" stroke-linejoin="miter" d="M 15288,4797 C 15373,4790 15657,4778 15815,4817 15969,4857 16077,4885 16220,5036 16362,5186 16537,5497 16663,5712 16786,5925 16845,6076 16961,6310 17076,6543 17289,6963 17347,7101 17403,7233 17363,7234 17296,7117 17225,6997 17063,6644 16941,6401 16819,6156 16699,5891 16572,5670 16442,5449 16313,5224 16177,5090 16039,4957 15901,4910 15756,4871 15609,4831 15392,4860 15312,4849 15233,4836 15204,4802 15288,4797 L 15288,4797 15288,4797 Z"/>
       <path fill="rgb(0,0,0)" stroke="none" d="M 14816,4250 C 14756,4224 14632,4144 14446,4164 14257,4184 13933,4238 13701,4377 13470,4517 13272,4726 13071,4998 12865,5270 12642,5689 12494,5985 12346,6278 12277,6573 12193,6746 12108,6915 12083,6949 11993,7008 11901,7067 11693,7077 11654,7101 11615,7124 11692,7150 11763,7143 11833,7134 11990,7119 12078,7050 12163,6981 12204,6901 12284,6728 12364,6550 12445,6247 12561,5999 12675,5750 12821,5474 12971,5249 13119,5023 13298,4803 13452,4655 13604,4507 13731,4441 13885,4370 14039,4299 14233,4257 14365,4235 14494,4214 14584,4226 14658,4240 14730,4251 14774,4300 14802,4303 14828,4303 14875,4273 14816,4250 L 14816,4250 14816,4250 Z"/>
       <path fill="none" stroke="rgb(0,0,0)" stroke-width="1" stroke-linejoin="miter" d="M 14816,4250 C 14756,4224 14632,4144 14446,4164 14257,4184 13933,4238 13701,4377 13470,4517 13272,4726 13071,4998 12865,5270 12642,5689 12494,5985 12346,6278 12277,6573 12193,6746 12108,6915 12083,6949 11993,7008 11901,7067 11693,7077 11654,7101 11615,7124 11692,7150 11763,7143 11833,7134 11990,7119 12078,7050 12163,6981 12204,6901 12284,6728 12364,6550 12445,6247 12561,5999 12675,5750 12821,5474 12971,5249 13119,5023 13298,4803 13452,4655 13604,4507 13731,4441 13885,4370 14039,4299 14233,4257 14365,4235 14494,4214 14584,4226 14658,4240 14730,4251 14774,4300 14802,4303 14828,4303 14875,4273 14816,4250 L 14816,4250 14816,4250 Z"/>
       <path fill="rgb(0,0,0)" stroke="none" d="M 14769,4553 C 14676,4530 14447,4457 14246,4493 14045,4527 13792,4601 13581,4763 13370,4925 13173,5154 12996,5458 12819,5763 12647,6301 12529,6573 12408,6841 12313,6989 12284,7067 12256,7143 12289,7145 12358,7033 12424,6917 12569,6641 12679,6397 12785,6154 12878,5819 13000,5586 13123,5351 13278,5156 13409,5009 13538,4863 13650,4783 13775,4712 13899,4640 14035,4605 14155,4580 14274,4553 14379,4543 14487,4552 14593,4559 14742,4628 14791,4629 14838,4628 14860,4576 14769,4553 L 14769,4553 14769,4553 Z"/>
       <path fill="none" stroke="rgb(0,0,0)" stroke-width="1" stroke-linejoin="miter" d="M 14769,4553 C 14676,4530 14447,4457 14246,4493 14045,4527 13792,4601 13581,4763 13370,4925 13173,5154 12996,5458 12819,5763 12647,6301 12529,6573 12408,6841 12313,6989 12284,7067 12256,7143 12289,7145 12358,7033 12424,6917 12569,6641 12679,6397 12785,6154 12878,5819 13000,5586 13123,5351 13278,5156 13409,5009 13538,4863 13650,4783 13775,4712 13899,4640 14035,4605 14155,4580 14274,4553 14379,4543 14487,4552 14593,4559 14742,4628 14791,4629 14838,4628 14860,4576 14769,4553 L 14769,4553 14769,4553 Z"/>
       <path fill="rgb(0,0,0)" stroke="none" d="M 14658,4875 C 14579,4855 14385,4795 14216,4824 14045,4852 13836,4920 13654,5053 13471,5186 13296,5364 13137,5619 12977,5875 12807,6336 12710,6571 12613,6800 12571,6932 12557,6999 12541,7065 12569,7077 12619,6971 12671,6860 12766,6572 12861,6356 12952,6140 13060,5876 13169,5692 13277,5508 13398,5375 13508,5260 13616,5146 13712,5069 13818,5009 13924,4947 14036,4921 14139,4898 14239,4874 14329,4867 14419,4874 14510,4880 14635,4938 14677,4939 14716,4938 14734,4895 14658,4875 L 14658,4875 14658,4875 Z"/>
       <path fill="none" stroke="rgb(0,0,0)" stroke-width="1" stroke-linejoin="miter" d="M 14658,4875 C 14579,4855 14385,4795 14216,4824 14045,4852 13836,4920 13654,5053 13471,5186 13296,5364 13137,5619 12977,5875 12807,6336 12710,6571 12613,6800 12571,6932 12557,6999 12541,7065 12569,7077 12619,6971 12671,6860 12766,6572 12861,6356 12952,6140 13060,5876 13169,5692 13277,5508 13398,5375 13508,5260 13616,5146 13712,5069 13818,5009 13924,4947 14036,4921 14139,4898 14239,4874 14329,4867 14419,4874 14510,4880 14635,4938 14677,4939 14716,4938 14734,4895 14658,4875 L 14658,4875 14658,4875 Z"/>
       <path fill="rgb(0,0,0)" stroke="none" d="M 15140,5304 C 15175,5282 15295,5252 15371,5252 15445,5253 15525,5278 15583,5305 15638,5331 15704,5391 15706,5406 15707,5419 15645,5403 15593,5387 15539,5371 15466,5313 15395,5311 15322,5309 15208,5379 15164,5379 15122,5377 15104,5325 15140,5304 L 15140,5304 15140,5304 Z"/>
       <path fill="none" stroke="rgb(0,0,0)" stroke-width="1" stroke-linejoin="miter" d="M 15140,5304 C 15175,5282 15295,5252 15371,5252 15445,5253 15525,5278 15583,5305 15638,5331 15704,5391 15706,5406 15707,5419 15645,5403 15593,5387 15539,5371 15466,5313 15395,5311 15322,5309 15208,5379 15164,5379 15122,5377 15104,5325 15140,5304 L 15140,5304 15140,5304 Z"/>
       <path fill="rgb(0,0,0)" stroke="none" d="M 16015,5628 C 16049,5684 16192,5822 16249,5913 16304,6001 16328,6145 16348,6165 16366,6182 16379,6096 16358,6030 16335,5963 16267,5847 16214,5772 16159,5696 16069,5606 16035,5583 16001,5557 15979,5573 16015,5628 L 16015,5628 16015,5628 Z"/>
       <path fill="none" stroke="rgb(0,0,0)" stroke-width="1" stroke-linejoin="miter" d="M 16015,5628 C 16049,5684 16192,5822 16249,5913 16304,6001 16328,6145 16348,6165 16366,6182 16379,6096 16358,6030 16335,5963 16267,5847 16214,5772 16159,5696 16069,5606 16035,5583 16001,5557 15979,5573 16015,5628 L 16015,5628 16015,5628 Z"/>
       <path fill="rgb(0,0,0)" stroke="none" d="M 16796,7441 C 16811,7461 16917,7531 16987,7563 17056,7593 17145,7618 17207,7623 17265,7625 17353,7596 17341,7581 17326,7565 17202,7550 17129,7528 17053,7504 16957,7460 16901,7445 16845,7430 16780,7421 16796,7441 L 16796,7441 16796,7441 Z"/>
       <path fill="none" stroke="rgb(0,0,0)" stroke-width="1" stroke-linejoin="miter" d="M 16796,7441 C 16811,7461 16917,7531 16987,7563 17056,7593 17145,7618 17207,7623 17265,7625 17353,7596 17341,7581 17326,7565 17202,7550 17129,7528 17053,7504 16957,7460 16901,7445 16845,7430 16780,7421 16796,7441 L 16796,7441 16796,7441 Z"/>
       <path fill="rgb(0,0,0)" stroke="none" d="M 16364,6228 C 16366,6252 16379,6269 16396,6269 16412,6268 16426,6249 16424,6227 16424,6204 16410,6186 16393,6186 16376,6187 16364,6206 16364,6228 L 16364,6228 16364,6228 Z"/>
       <path fill="none" stroke="rgb(0,0,0)" stroke-width="1" stroke-linejoin="miter" d="M 16364,6228 C 16366,6252 16379,6269 16396,6269 16412,6268 16426,6249 16424,6227 16424,6204 16410,6186 16393,6186 16376,6187 16364,6206 16364,6228 L 16364,6228 16364,6228 Z"/>
       <path fill="rgb(0,0,0)" stroke="none" d="M 16428,6339 C 16429,6362 16443,6380 16460,6379 16476,6379 16489,6360 16488,6337 16488,6314 16474,6296 16457,6297 16440,6298 16428,6316 16428,6339 L 16428,6339 16428,6339 Z"/>
       <path fill="none" stroke="rgb(0,0,0)" stroke-width="1" stroke-linejoin="miter" d="M 16428,6339 C 16429,6362 16443,6380 16460,6379 16476,6379 16489,6360 16488,6337 16488,6314 16474,6296 16457,6297 16440,6298 16428,6316 16428,6339 L 16428,6339 16428,6339 Z"/>
       <path fill="rgb(0,0,0)" stroke="none" d="M 14968,5359 C 14969,5381 14983,5399 15000,5399 15016,5399 15029,5379 15028,5357 15028,5334 15014,5316 14997,5317 14980,5318 14968,5336 14968,5359 L 14968,5359 14968,5359 Z"/>
       <path fill="none" stroke="rgb(0,0,0)" stroke-width="1" stroke-linejoin="miter" d="M 14968,5359 C 14969,5381 14983,5399 15000,5399 15016,5399 15029,5379 15028,5357 15028,5334 15014,5316 14997,5317 14980,5318 14968,5336 14968,5359 L 14968,5359 14968,5359 Z"/>
       <path fill="rgb(0,0,0)" stroke="none" d="M 17401,7591 C 17403,7613 17416,7631 17433,7631 17449,7630 17463,7611 17461,7589 17461,7565 17447,7547 17430,7548 17413,7549 17401,7567 17401,7591 L 17401,7591 17401,7591 Z"/>
       <path fill="none" stroke="rgb(0,0,0)" stroke-width="1" stroke-linejoin="miter" d="M 17401,7591 C 17403,7613 17416,7631 17433,7631 17449,7630 17463,7611 17461,7589 17461,7565 17447,7547 17430,7548 17413,7549 17401,7567 17401,7591 L 17401,7591 17401,7591 Z"/>
       <path fill="rgb(0,0,0)" stroke="none" d="M 12727,7543 C 12728,7565 12742,7583 12759,7583 12775,7583 12788,7563 12787,7540 12786,7518 12773,7500 12755,7500 12739,7501 12726,7520 12727,7543 L 12727,7543 12727,7543 Z"/>
       <path fill="none" stroke="rgb(0,0,0)" stroke-width="1" stroke-linejoin="miter" d="M 12727,7543 C 12728,7565 12742,7583 12759,7583 12775,7583 12788,7563 12787,7540 12786,7518 12773,7500 12755,7500 12739,7501 12726,7520 12727,7543 L 12727,7543 12727,7543 Z"/>
       <path fill="rgb(0,0,0)" stroke="none" d="M 12237,7480 C 12263,7497 12335,7526 12397,7543 12457,7558 12567,7577 12600,7573 12632,7568 12617,7525 12591,7513 12562,7499 12491,7508 12433,7496 12374,7481 12275,7437 12242,7435 12209,7431 12211,7461 12237,7480 L 12237,7480 12237,7480 Z"/>
       <path fill="none" stroke="rgb(0,0,0)" stroke-width="1" stroke-linejoin="miter" d="M 12237,7480 C 12263,7497 12335,7526 12397,7543 12457,7558 12567,7577 12600,7573 12632,7568 12617,7525 12591,7513 12562,7499 12491,7508 12433,7496 12374,7481 12275,7437 12242,7435 12209,7431 12211,7461 12237,7480 L 12237,7480 12237,7480 Z"/>
      </g>
     </g>
    </g>
   </g>
  </g>
 </g>
</svg>