<?xml version="1.0" encoding="utf-8"?>
<!-- Generator: Adobe Illustrator 19.2.1, SVG Export Plug-In . SVG Version: 6.00 Build 0)  -->
<svg version="1.1" id="Layer_1" xmlns="http://www.w3.org/2000/svg" xmlns:xlink="http://www.w3.org/1999/xlink" x="0px" y="0px"
	 viewBox="0 0 215.5 215.6" style="enable-background:new 0 0 215.5 215.6;" xml:space="preserve">
<style type="text/css">
	.st0{fill-rule:evenodd;clip-rule:evenodd;fill:#D1D3D4;stroke:#000000;stroke-width:0.4446;stroke-miterlimit:22.9256;}
	.st1{fill-rule:evenodd;clip-rule:evenodd;fill:#FFFFFF;stroke:#000000;stroke-width:0.3334;stroke-miterlimit:22.9256;}
	.st2{fill-rule:evenodd;clip-rule:evenodd;}
</style>
<g>
	<ellipse class="st0" cx="107.7" cy="107.7" rx="102" ry="102"/>
	<circle class="st1" cx="107.7" cy="107.7" r="76.5"/>
	<circle class="st2" cx="18.7" cy="116.2" r="4.2"/>
	<path class="st2" d="M197.2,120.5c2.3,0,4.2-1.9,4.2-4.2c0-2.3-1.9-4.3-4.2-4.3c-2.4,0-4.3,1.9-4.3,4.3
		C192.9,118.6,194.9,120.5,197.2,120.5z"/>
	<path class="st2" d="M141.1,160.8v-37.4c0.2,0.3,0.4,0.6,0.6,1h0.7h7.8l0.7,0l1.1,0.3c0.2,2.1,0.7,0.7,0.7,2.1c0,1,0.2,1,0.4,1.8
		c-0.4,0.9-0.4,0.5-0.4,1.8v1.8v0.7c0.7,1.3,1.4,1.9,1.4,3.9l1.4,0l0.4-4.6v-6.4c0-0.9-0.6-1-1.1-1.8l2.8-1.4v-0.7v-1.1
		c-2.5,0.1-3.7,3.2-5,3.2c-0.4,0-1.1-0.7-1.1-1.4v-1.8c1.7-0.6,2.6-1.8,3.7-3.1c1.7-2,3.9-0.8,4.1-3l-2.5,0.4
		c-0.4,0.6-0.5,1.1-1.4,1.1h-2.1c-0.6,1.6-2.4,1-2.6,4.2l-1.3,1.9h-0.7H147v-0.7h1.1v-1.1c0-1,2.1-2.8,2.1-5.4
		c1.9-1.4,2.3-5.1,5.7-5.3v1.1h-0.7l0,0.7l0.7,0.4c-1.2,0.3-1.3,0.3-1.4,1.8c2.3,0,2.7-0.7,5-0.7l0.4-0.1l3.2,0.5
		c0.8,0.1,1.4-0.7,1.4-1.4v-1.4v-0.7c-1.4-2.6-1.5-3.8-2.5-6.7c-0.5-1.3-3.5-5.5-3.5-5.7c0-1.9,0.7-2.5,0.7-4.6c0-2-0.7-3.7-1.1-5.3
		c-2.7-0.6-3.9-1-6.1-2.1v-0.7v-0.7c0-1.6-4.5-3.9-6.1-4.3V77c0-1.3,2.2-3.1,3.2-3.6c0.2,0.4,0.7,1.2,0.7,1.8c0,1-0.2,1-0.4,1.8
		c0.8,1.7,0.4,2.5,2.1,3.6c0.3,0.2,5.1,2.8,2.5,2.8v0.7c0.8,0.2,0.8,0.4,1.8,0.4l1.3-0.1l0.9-2.4v-0.7v-1.1c0-3.7-1.2-5.8-1.4-8.2
		c-2.8-1-3.3-2.9-4.6-5.3h-0.7H151c-2.3,0-2.7,0.7-5,0.7h-1.4c-1.8,0-2,0.6-3.5,0.7v-6c0.1,0,0.2,0,0.3,0h1.4h0.7
		c0.5-0.2,1.7-1.1,2.1-1.1l5,0.7h2.5c-1.5-1.3-4.3-1.6-6.1-2.5h-0.7c-1.8,0-3.7-1-5.3-1.3v-2.3c0.1,0,0.2,0,0.3,0.1
		c2.5,0.5,6.1,2.3,8.2,2.8c3.5,0.8,5.8,0.8,7.7,3.4c1.1,1.6,3,5.8,3,8.4l0,0.7l-0.7,1.4l0,0.7l-0.1,0.4l0.8,5.3
		c0.2,1.1-0.5,4.8-0.7,5.7c0.3,1.3,1.4,5.9,1.4,7.1c0,1,0.2,0.4,0,1.8l-0.4,3.2c-0.1,0.5,2.9,5,3.4,6.6c0.5,1.3,0.6,2.6,1.1,3.9
		c0.3,0.7,1.9,3.3,1.9,3.4c0,2.9-2.5,4.9-5.3,5c0,1.1,1,3.4,1.4,4.3l-0.3,1.4h-3.6v2.1c0,1.3-0.9,2.2-1.4,3.2v0.7l-0.1,2.9l0.5,3.6
		v0.7c-1.9,3.5-0.2,4.1-3.9,6.1h-0.7c-2.3,0-2.7,1.1-5.3,1.1l-0.4,1.8c3,0.8,9.6,8,9.6,11.1c0,1.9-7.2,5.3-9.2,5.5l-4,2.7
		C143.2,162.3,142.2,161.7,141.1,160.8L141.1,160.8z M141.1,111.6l2.8,1.4l0.7,0c0.8,0,0.5-0.1,1.4-0.4c-0.1-1.8-1.3-2.5-3.2-2.5
		c-0.4-0.6-1-1.4-1.7-2.2V111.6L141.1,111.6z M141.1,103.6l4.5-0.3l0.7,0c0.8,0.4,1.9,1.4,2.5,1.4h1.1h0.7c1.5-0.8,0.6,0.1,1.1-1.1
		h0.7c0.1,1.4,0.2,1.9,1.1,2.5v1.4c0.6,0.4,0.6,0.7,1.4,0.7h1.4c1,0,1.9,1,2.1,1.8h1.1c1,0,1-0.2,1.8-0.4c0-4.1-2.3-5.6-5.7-6.4
		v-2.5h0.7L157,98c-0.1-0.8-0.3-0.8-0.3-1.8c0-1.5,0.7-2.2,0.7-4.3c0-1-0.5-1.1-1.1-1.4c-1.2,0.3-3.8,1.1-5,1.1h-0.7l-5,1.8
		c-0.2,2-1.8,4.4-3.9,4.6c0.2-2.1,2.1-2.8,2.1-5.7v-5.7c0-1,0.1-0.7,0.7-1.1l1-3.9l-0.8-2.1c-1.5,1-2.7,2.5-3.7,4.2v4.3l0.5,0.3
		l0.1,1.2l-0.6,0.2v9.1l0.6,0h0.4c3.9,0,4.6-2.8,7.5-2.9c0.6-0.8,1.4-1.1,2.9-1.1h0.7l1.4,0.7l0,1.4l-3.6,0.3
		c-1,0.1-3.7,2.1-4.3,2.9c-2,0-2.5,0.7-4.6,0.7h-1V103.6z M133,147.8c0.8-0.4,2-1,3-1c1.3,0,1.7-1.6,3.6-1.8
		c0.1,1.4,1.1,2.9,1.1,4.6c0,1.3-1.6,1.4-2.9,1.4h-2.9c-0.5,0-1.4-0.6-2-1v2.3c2.7,2.8,5.5,6.3,8.1,8.4v-37.4
		c-0.9-1.1-1.8-1.2-3.3-2.2c-0.1-2.7-0.9-4.3-1.7-6.1c-0.7-1.5-1.7-3.4-2.5-4.9v-0.7v-0.4l0.7-5c1.1-0.1,1.3-0.4,2.5-0.4h2.5
		l1.9-0.1v-2.7h-1.5l-4.6,0.4c-0.8,0.1-1.1-0.3-1.1-1.1c0-3,2.5-5.8,2.5-8.9v-3.9c0-1.9-2.1-5.7-2.9-7.1v-0.7l-0.5-3.6l0.1-2.9
		c0-1.5,0.4-1.9,0.7-3.2l1.2-0.6c1.7-0.2,3.7-1.2,5.6-1.2c0.2,0,0.3,0,0.4,0v-6c-3.7,0.1-3.6,2.8-5.1,2.8h-1.1c-0.9,0-0.8-0.6-2-0.9
		V143c0.1,0.3,0.2,0.7,0.2,1l-0.2,0V147.8L133,147.8z M141.1,55.5v2.3c-0.3-0.1-0.5-0.1-0.8-0.1h-0.4c-1.8,0-3.4-1.7-6.3-2.3
		l-0.7-0.1v-2.6h0.2C135.7,52.7,137.6,54.8,141.1,55.5L141.1,55.5z M141.1,83.7v4.3l-1.9-1C139.8,85.8,140.4,84.7,141.1,83.7
		L141.1,83.7z M141.1,89.6v9.1l-0.1,0l-1-0.3l-0.4-3.6c-0.1-0.5,1.1-2.1,1.1-3.9v-0.4l0-0.7L141.1,89.6L141.1,89.6z M141.1,107.9
		v3.7l-0.8-0.4h-0.7l-0.9,0.2l-2.5-2.5c1.1-2,0.5-2.2,2.3-3.4C139.2,105.9,140.2,106.9,141.1,107.9z M132.8,149.4v-0.7v-0.7l0.2-0.1
		V144c-1.9,0.2-2.9,0.9-3.8,1.5v3.5c1.2,0.8,2.5,2,3.8,3.4v-2.3c-0.1,0-0.1-0.1-0.2-0.1V149.4L132.8,149.4z M133,52.7v2.6
		c-1.4-0.3-2.6-0.6-3.8-1v-2.5c0.9,0.2,1.5,0.6,2.2,0.9h0.7H133L133,52.7z M133,63.9V143c-0.6-1.8-2.6-3-3.8-4.4v-16.5
		c0.3,0.1,0.7,0.2,1.1,0.2c0,0,1.3-0.6,1.4-0.7v-0.7V119v-0.7c-1.3-2.5-1.8-3.6-2.6-6.7V99.3c0.8-1.3,1.5-2.5,1.9-3.1v-0.7v-1.8
		c0-2.5-0.9-4.3-1.9-6V63.9c0.2-0.6,0.2-1.2,2.1-1.2l0.4,1C132.2,63.8,132.7,63.8,133,63.9L133,63.9z M129.1,162.7v-0.3l0,0.1
		L129.1,162.7L129.1,162.7z M129.1,61.1v-1.8c0.2,0.2,0.4,0.3,0.4,0.6C129.6,60.3,129.4,60.7,129.1,61.1z M129.1,51.8v2.5
		c-0.7-0.3-1.4-0.5-2.1-0.9l-0.7,0l-2.5-0.2v-1.7c0.2,0,0.5,0,0.7,0h3.2C128.3,51.6,128.7,51.7,129.1,51.8L129.1,51.8z M129.1,59.3
		v1.8c-0.6,1-1.7,2-1.7,3.8c1.3-0.1,1.6-0.5,1.7-0.9v23.8c-0.6-1-1.2-1.9-1.7-2.9v-0.7v-0.7c0-2-0.7-2.8-0.7-4.3v-0.7
		c-1-1.9-0.9-4.1-1.8-5.7c-0.3-0.5-0.6-1.1-1.1-1.9V54.9c1.5,0.6,2.6,1.4,4,1.7l0.3,2.1C128.4,58.9,128.8,59,129.1,59.3L129.1,59.3z
		 M129.1,99.3v12.4l-0.1-0.3c-0.3-1.5-0.4-2.4-1.1-3.6c-0.6-1-1.3-1.8-1.3-3.3C126.7,103.4,128,101.2,129.1,99.3L129.1,99.3z
		 M129.1,122.1c-0.9-0.3-1.7-0.9-2.4-1.3v-0.7v-3.6c0-3.5-1.7-7-2.9-10.5v13.3c0.2,0.6,0.4,1.2,0.4,1.8c-0.1,0-0.3,0-0.4,0v1.8h0.4
		h0.4l0.9-0.2l2.3,2.7l0.1,0.7l-0.4,3.2c-1.1-0.1-1.8-0.3-1.8-1.4v-2.9c-1.9,0.2-0.6,0.3-1.8,1.5v5.2h0c0.1,1.7,0.7,2.7,0.7,4.6v0.4
		c0,1.5,0.9,1.9,0.8,3.6l-0.5,5.3c0,0.5-0.5,1-1.1,1.4v18.1c0.2,1,0.3,1.7,0.4,2.2h1.8c1,0,0.6-0.1,1.1-0.7c1.1,0,1.8,0.1,1.8-1.1
		V165l0.3-2.3v-0.3L128,158l-0.6-0.4c-0.1-2-0.7-5-1.4-6.4v-0.7v-0.7V149l0.4-1c0.8,0,1.8,0.4,2.7,1.1v-3.5c-0.8,0.5-1.5,1-2.5,1
		l1.2-5.7l-1.2-3.9l1.6,0c0.2,0.6,0.5,1.2,1,1.7V122.1L129.1,122.1z M123.9,95.5v-3.2h2.2v-0.7h2.1l0.3,1.1
		C127.6,93.3,125.3,95.2,123.9,95.5z M123.9,51.6v1.7l-3.9-0.2v1.1c1.6,0,2.9,0.4,3.9,0.8v15.9c-0.6-1-1.3-2.1-1.8-2.8
		c-0.5-0.8-1.8-2.3-3.2-3.8V51c0.7-0.3,1.4-0.4,1.8-0.4C121.5,50.6,122.3,51.4,123.9,51.6L123.9,51.6z M123.9,92.3v3.2
		c-0.1,0-0.2,0-0.3,0c-2.1,0-2.9-1.1-4.3-1.4c0-1.1-0.1-1.8,1.1-1.8H123.9L123.9,92.3z M123.9,106.1v13.3c-0.5-1.3-1.5-2.5-2.8-2.5
		h-1.1v1.8c0,1,0.2,1,0.4,1.7l1,0.4h0.7c1.2,0,0.8,0.2,1.8,0.3v1.8h-0.3c-1.1,0.6-3.3,2.3-4.6,3.9v-11.1l2.5-0.3l0.4,0.1h0.7
		l0.7-1.4c-0.1-5.4-4.3-8.3-4.3-9.3V104c0-1.1,0.6-0.5,1.1-2.1c-0.4,0-0.7,0-1.1,0.1v-2c0.2,0.1,0.4,0.2,1.1,0.2
		c1.2,0,0.5,0.7,1.8,0.7h1.1C122.8,102.5,123.3,104.3,123.9,106.1L123.9,106.1z M123.9,126.6c0,0-0.1,0.1-0.1,0.1
		c-1,1-0.7,1-1.6,1.9c-2,2-1.6,1.6-3.2,2.3v3.5c0.6-0.3,1.1-0.4,1.9-1.2c1.1-1,1.1-1.5,3.1-1.5V126.6L123.9,126.6z M123.9,147.2
		v18.1c-0.9-4.3-3.1-12.4-4.6-12.4c-0.1,0-0.2,0-0.4,0V149C120.2,149,122.5,148.2,123.9,147.2L123.9,147.2z M118.9,164.4
		c0.4-0.1,0.7-0.1,0.7-1.1v-1.1l-0.7-0.1V164.4L118.9,164.4z M118.9,141.4v-4.4c0.7-0.3,1.5-0.6,2.1-0.9c0.8,0.4,2.1,1,2.1,2.1v0.4
		C123.2,139.5,120,141,118.9,141.4L118.9,141.4z M118.9,86.7V84c0.6-0.2,1.3-0.3,2.1-0.3C121,85.1,120.1,86.1,118.9,86.7z M118.9,51
		v13.3c-1.6-1.7-3.2-3.3-4.1-3.9c-0.8-0.6-1.6-1.1-2.4-1.7v-5.4C114.5,52.8,117,51.6,118.9,51L118.9,51z M118.9,84v2.7
		c-1,0.5-2.3,0.7-3.6,0.6l-2.9-0.3v-2.7c1,0.3,2,0.5,3.2,0.5h0.4C117,84.8,117.8,84.3,118.9,84L118.9,84z M118.9,100v2
		c-1.3,0.1-2.2,0.4-3.2,0.3l-3.2-0.3v-2.4l4.3,0.3l0.7-0.1C118.4,99.8,118.6,99.9,118.9,100L118.9,100z M118.9,104v0.8v0V104
		L118.9,104L118.9,104z M118.9,115.7v11.1c-0.5,0.7-1,1.3-1.1,1.8L115,129l1.2-3.5l-1.6,0c-0.5,1-1.3,1.8-2.1,2.6v-3.5
		c0.8-0.6,1-0.9,2.4-1.8c0.9-0.6,1.5-1.7,1.5-3.1v-0.4c0-2,1-2.4,1.8-3.6L118.9,115.7L118.9,115.7z M118.9,131v3.5
		c-0.2,0.1-0.5,0.2-0.8,0.4c-2.4,1.6-3.6,1.3-4.9,3.7v0.7v0.4l0,0.7l0.8,1.4l0,0.7c0,1.7,0.4,1.1,0.4,2.5v0.7l0.8,1.7
		c1.3,0.2,1.4,0.8,2.8,1.5h0.7h0.4l0,0v3.9c-1,0-1.8,0.3-2.5,0.7c-0.4-0.2-0.4-0.4-1.1-0.4c-1.8,0-2.8-0.2-2.9-2.1l0,0v-15.4
		c1.3-1.9,3.3-3.3,5.1-4.1C118.1,131.4,118.5,131.2,118.9,131L118.9,131z M118.9,137.1c-1.7,0.7-3.4,1.4-4.3,3l0.4,2l2.1,0.1v-0.7
		h1.4c0.1,0,0.2,0,0.4-0.1V137.1L118.9,137.1z M118.9,162v2.3c-0.3,0.1-0.7,0.2-1,1.2c-0.3,1.2-2.7,1.6-4,1.6c-0.5,0-1,0-1.4,0
		v-12.5c1,0.5,2.1,0.8,3,1l1.2,0.9c0.1,1.4,0.5,1.2,0.3,2.5l-0.2,4.7l1-1.9L118.9,162L118.9,162z M112.5,114.1v-2.6l0,0
		c1,0,2.5-1.6,4.3-1.8v1.1C116.7,112.1,114.4,113.6,112.5,114.1L112.5,114.1z M112.5,108.6V104c0.2,0,0.4,0.1,0.7,0.1h0.4
		c1.9,0,1.9,0.9,3.6,1.1c0.2,1,0.7,1.4,0.7,2.1C117.8,108.1,114.7,108.5,112.5,108.6z M112.5,53.3v5.4c-0.7-0.5-1.3-0.9-2.1-1.4
		c-1.3-0.9-2.5-1.2-3.8-1.7v-2.9c0.3,0,0.6,0.1,0.9,0.1c0.4,0.6,0.1,0.7,1.1,0.7h2.5C111.5,53.4,111.9,53.4,112.5,53.3L112.5,53.3z
		 M112.5,84.3V87l-4.3-0.5c-1.3,0-0.7-0.4-1.6-0.8v-0.9l0.5-0.7c1.6,0,1.2-0.4,2.5-0.4C110.6,83.7,111.5,84,112.5,84.3L112.5,84.3z
		 M112.5,99.6v2.4l-2.1-0.2l-0.7,0.1c-0.9,0.5-2,1.1-3,1.5v-2.7c1.2-0.5,2.3-1,3-1.4h0.7L112.5,99.6L112.5,99.6z M112.5,104v4.6
		c-0.7,0-1.4,0.1-1.8,0.1h-1.4c-1.3,0-0.6,0.9-1.8,0.7l-0.9-0.1v-3.4h0.2c0.2,0,4.2-1.9,4.6-2.1C111.9,103.8,112.1,104,112.5,104
		L112.5,104z M112.5,111.6v2.6c-0.5,0.2-1,0.3-1.4,0.3c-0.7-2.6-2.6-1.4-2.9-3.9c1.8,0.1,2.5,1.1,3.2,1.1H112.5L112.5,111.6z
		 M112.5,124.6v3.5c-1.6,1.5-3.7,2.7-5.4,3.8l-0.5-0.2v-2.3c1.6-1.2,3.5-3,5.4-4.4C112.2,124.8,112.3,124.7,112.5,124.6L112.5,124.6
		z M112.5,135.8v15.4h-1.1c-0.9,0-1.4-1.1-3.6-1.1c-0.4,0-0.9,0.3-1.2,0.6v-18.1h0.5v0.7h0.7v4.6c0,1.4,0.8,5.7,2.1,5.7h1.1
		l-0.3-1.4c0.4-0.5,0.3,0.7,0.3-0.7v-1.4C111,138.5,111.6,137,112.5,135.8L112.5,135.8z M112.5,154.6v12.5c-2.7,0.1-4.3,0.3-5.9-0.6
		v-14c0.4-0.3,0.7-0.6,0.9-0.6c1,0,1.4,0.8,1.8,1.4h1.4C111,153.8,111.7,154.3,112.5,154.6L112.5,154.6z M106.6,92.8v-1.5
		c0.2,0.1,0.3,0.2,0.5,0.3C107,91.8,106.8,92.2,106.6,92.8z M106.6,52.6v2.9c-0.4-0.2-0.9-0.4-1.4-0.6c-0.9-0.4-2.6-1.2-4.5-1.9
		v-2.6c0.4,0.1,0.7,0.1,1.1,0.1l0.4,0.7C104.1,51.3,104.9,52.3,106.6,52.6L106.6,52.6z M106.6,84.8v0.9c-0.1-0.1-0.3-0.1-0.5-0.2
		L106.6,84.8L106.6,84.8z M106.6,91.3c-1.2-0.7-2-0.7-3-2.2c-1.3-1.8-1.6-1.2-2.7-3.7c0-0.1-0.1-0.2-0.1-0.3v15.9
		c0.1,0.1,0.2,0.1,0.4,0.1c1.7,0,1.4-0.7,2.9-1.1v-1.1c0-0.2,1.7-4.2,2.7-6.3V91.3L106.6,91.3z M106.6,100.8v2.7l-0.1,0
		c-1.3,0.5-2.3,0.5-3.3,0.9l-1-0.4C102.5,102.8,104.6,101.7,106.6,100.8L106.6,100.8z M106.6,105.9v3.4l-1.9-0.3l-0.4,0.1l-2.8-0.4
		l-0.7-0.9v-1.6c1,0.2,1.9-0.3,3.6-0.3H106.6L106.6,105.9z M106.6,129.3v2.3l-0.5-0.2L106.6,129.3L106.6,129.3L106.6,129.3z
		 M106.6,132.6h-2v-2.9c0-1.9-0.7-2.1-0.7-3.6l0-0.7l-0.3-1.1h-1.1c-0.3,1.2-0.4,1.8-1.4,2.2l-0.4,1.4c0.6,1.1,0.6,2.1,1.8,2.5v1.8
		c-1.3-0.7-0.9-0.5-1.8-1.8h0v29.4c0.4,0.4,0.9,0.8,1.4,1.4c1.1,1.3,1.8,2.9,3.2,4.3c0.5,0.5,0.9,0.8,1.3,1v-14
		c-0.2,0.2-0.4,0.3-0.5,0.4v-1.1c0-0.4,0.2-0.8,0.5-1.2V132.6L106.6,132.6z M100.7,125.6v-3.9c0.3,0.4,0.5,0.4,0.4,1L100.7,125.6
		L100.7,125.6z M100.7,118.8v-2.5c0.3,0.3,0.5,0.6,0.7,0.9c2.8,0.1,2.9,1.5,4.6,2.1c-0.1,1,0,1.4-1.1,1.4
		C104.5,120.8,102.5,119.8,100.7,118.8z M100.7,50.5v2.6c-1.9-0.7-3.9-1.3-5.4-1.6v-2.3C97.3,49.7,99.1,50.3,100.7,50.5L100.7,50.5z
		 M100.7,85.1v15.9c-0.4-0.4-0.7-1.3-0.7-2v-3.2l-0.3-3.2c-0.4-2.5-3.9-2.4-3.9-6.8c0-1.7-0.4-0.5-0.4-2.1V83l0,0v-3.9
		c1.6,0.2,2.6,1.3,3.3,2.4C98.9,82.2,100.2,84.3,100.7,85.1L100.7,85.1z M100.7,106.1v1.6l0-0.1l-2.8-0.4c-0.4-0.6-4.4-3.6-1.4-3.6
		h0.4c0.8,0,2.3,1.7,3.2,2.2C100.2,106,100.4,106.1,100.7,106.1L100.7,106.1z M100.7,116.3v2.5c-1.3-0.7-2.4-1.3-2.9-1.5
		c-0.6-0.3-1.5-0.5-2.5-0.8v-6.9c0.6,1,1.5,1.8,2.2,3C98.1,113.7,99.6,115.1,100.7,116.3L100.7,116.3z M100.7,121.6v3.9l0,0.2
		c-0.4,0.3-1.5,1.4-1.7,1.4c-1,0-1.8-0.5-2.9-0.7v1.8v0.7c0.6,0.3,1.6,1.1,2.1,1.1c1.3,0,0.8,0.3,2.5,0.4v29.4
		c-0.8-0.7-1.6-1.4-2.2-2.6c0-0.1-1.6-1.9-3.2-3.8v-8.9c0.3,0.4,0.6,0.9,0.7,1.6h1.4l1,0.8l-0.6-2.6l-1.5,0.4
		c-0.4-1.5-0.2-2-1.1-2.1v-22.4l2.5-0.2c0.3,0.1,2,0.7,2.5,0.8C100.4,121.2,100.6,121.5,100.7,121.6z M95.3,49.2v2.3
		c-0.5-0.1-1-0.2-1.4-0.2h-5.3c-0.2,0-0.4,0-0.5,0v-2.8c0.7-0.1,1.3-0.1,2-0.1C91.9,48.4,93.6,48.8,95.3,49.2L95.3,49.2z M95.3,79.2
		V83c-0.8-0.4-1.7-0.6-1.7-1.8v-0.7c0-0.7,0.6-1.4,1.1-1.4C94.9,79.1,95.1,79.1,95.3,79.2L95.3,79.2z M95.3,109.6v6.9
		c-2-0.6-4.2-1.3-4.2-2.8v-0.4c0-3.4,1.2-4.7,3.2-6.1C94.5,108.2,94.9,108.9,95.3,109.6L95.3,109.6z M95.3,120.3l-2.1,0.2
		c-2.2,0.2-3.1-3.9-3.5-5.7l0.3-2.5v-2.9c0-1.4-0.5-3.5-0.8-4.9c-0.8-3.4-0.2-1.8-0.2-4.8c0-1.5-0.4-2.8-0.9-3.9v18.9
		c0.2-0.1,0.3-0.3,0.5-0.4c0,1.2-0.1,1.6-0.5,1.9v28.4c0.1,0.1,0.2,0.2,0.3,0.3c1.4,1.4,1.9,3.1,3.3,4.2c0.2,0.2,2,2.3,3.8,4.3v-8.9
		c-0.9-1.2-2.2-1.6-3.2-3.4c1.5,0.1,1.5,0.4,2.1,1.4c0.5,0,0.8,0,1,0.1V120.3L95.3,120.3z M88,78.4v-4c0.7-1.6,2-3.1,3-3.1h0.4
		c2,0,1.8,1.3,3.2,1.8c-0.9,1.2-1.8,0.9-1.8,3.2c0,1.6-0.6,2-2.1,2.1c0-5.4,1.6-4.1,2.1-6.1c-3.1,0.1-3.9,2.8-3.9,6.1H88L88,78.4z
		 M88,71.3c0.3-0.5,0.5-1,0.5-1.5c-0.2,0-0.4,0-0.5,0V71.3z M88,48.5v2.8c-1,0-2,0.1-3,0.3v-2.6C86,48.8,87,48.6,88,48.5L88,48.5z
		 M88,69.9v1.4c-0.7,1.3-2,2.7-2,3.5c0,0.7-0.5,2.4-1.1,3.3v-5.3C85.5,71.5,85.9,70.1,88,69.9L88,69.9z M88,74.3
		c-0.3,0.8-0.5,1.6-0.5,2.3v1.8H88V74.3L88,74.3z M88,95.8v18.9c-1.2,1-2.2,2.3-2.3,4.3c1.4-0.2,1.4-0.4,1.4-2.1
		c0.4-0.3,0.7-0.4,0.9-0.6v28.4c-1.2-1.3-1.9-2.4-3-3.6V93.4h1.1h0.7C87.2,94.1,87.6,94.9,88,95.8L88,95.8z M85,70.3
		c0.5-0.5,0.9-1.1,1.4-1.9c-0.5,0-1,0.1-1.4,0.2V70.3z M85,49.1v2.6c-0.4,0.1-0.8,0.2-1.3,0.3v-2.5C84.1,49.3,84.6,49.2,85,49.1
		L85,49.1z M85,68.6v1.7c-0.5,0.5-0.9,1.1-1.3,1.6v-2.7C84.1,68.9,84.5,68.7,85,68.6L85,68.6z M85,72.8v5.3
		c-0.2,0.4-0.5,0.7-0.7,0.7c-0.2,0-0.4-0.1-0.5-0.3v-2.3l0.2-1.7C84.5,74.1,84.7,73.5,85,72.8L85,72.8z M85,93.4v47.8
		c-0.1-0.1-0.2-0.2-0.3-0.3c-0.4-0.3-0.7-0.9-0.9-1.5V93.4h0.5H85L85,93.4z M83.7,67.5v-0.9l0.2,0C83.9,67,83.8,67.2,83.7,67.5z
		 M83.7,49.4v2.5c-0.5,0.1-1,0.2-1.4,0.4v-2.5C82.8,49.7,83.3,49.5,83.7,49.4L83.7,49.4z M83.7,66.6v0.9c-0.3,0.7-0.8,1.3-1.4,1.6
		v-2.7L83.7,66.6L83.7,66.6z M83.7,69.2v2.7c-0.7,1.2-1.2,2.7-1.2,5.4l-0.2,0v-6.6C82.7,70.1,83.2,69.6,83.7,69.2L83.7,69.2z
		 M83.7,76.2l-0.2,1.5c0,0.3,0,0.6,0.2,0.8V76.2L83.7,76.2z M83.7,93.4v45.9c-0.5-1.2-0.8-2.8-1.2-3.9c-0.1-0.1-0.1-0.3-0.2-0.4
		v-12.7c0.2,0.2,0.5,0.2,1.3,0.3v-1.8c0-1.3-0.9-0.6-0.7-1.8l0.4-3.9c0.5-4.2,0.1-6.6-0.3-10.7l-0.5-3.9c-0.1-1.1,0.2-1.3,0.4-2.1
		c-0.2-0.5-0.4-0.8-0.5-1v-4.7c0.4,0.2,0.8,0.4,1.3,0.7H83.7z M82.3,49.8v2.5c-2.5,0.8-4.8,2.1-5.9,3.8v-3.6l0.1,0
		C78,51.5,80,50.6,82.3,49.8L82.3,49.8z M82.3,66.5v2.7c-0.3,0.2-0.6,0.3-0.9,0.4c0,0.5-1.7,4.5-2.1,6.4h-1.4l-0.3-1.1l1.6-4.6
		l0.5-0.1v-1.4h-0.7c-0.4,1.6-1.8,1.9-1.8,3.9c0,1.2-0.3,0.3-0.7,1.8v-4.7c0.4-0.7,0.9-0.9,1.1-2.1c1.3-0.3,1,0,1.1-1.4h2.1
		L82.3,66.5L82.3,66.5z M82.3,70.7c-1.1,1.6-1.6,4-1.6,6.3l1.6,0.3V70.7L82.3,70.7z M82.3,92.7v4.7c-0.3-0.5-0.6-0.7-1.6-1.1
		c-0.6-0.3-2.7-1.4-2.9-1.4h-1.4v-6c1.1,0.6,2.1,1.2,2.4,1.4C80.4,91.3,81,91.9,82.3,92.7L82.3,92.7z M82.3,122.3V135
		c-0.7-1.3-2-3-2.9-4c-0.8-0.8-1.3-0.9-1.9-1.7c-0.5-0.6-0.7-1.2-1.1-1.7v-8.3c1.8,0.9,4.4,2.1,5.4,2.1
		C82.1,122,82.2,122.2,82.3,122.3L82.3,122.3z M76.4,117.1v-4.4c0.5-0.3,0.7-0.9,0.7-1.8l0-0.7l1.8-1.1c0.2,2.5,1.8,4,1.8,6.1
		c0,0.9-0.8,2.1-1.8,2.1l-0.7,0.1L76.4,117.1L76.4,117.1z M76.4,103.9c0.6,0.7,1.4,1.4,2.1,1.6l0.3,2.1l1.4,0.4l0.5-1.8l0.6-0.4
		l0.3-1.8c-1.5-3.3,0.2-2.8-3-6.1c-0.5-0.5-1.3-1-2.2-1.4v2c1.3,1.2,3,1.6,3.2,4.5c-1-0.5-1.8-1.3-2.1-2.5h-1.1V103.9L76.4,103.9z
		 M76.4,67.5c0.8-1,1.8-2,2.2-2.7l-0.8-1c-0.4,0.2-0.9,0.6-1.4,1.1V67.5z M76.4,52.5v3.6c-0.4,0.6-0.6,1.3-0.7,2H75l-0.1,1.8
		l0.5,3.5c-0.6,1.1-0.3,1.4-1.4,1.8c-0.2,2-1.3,2.6-1.4,4.3c-0.9,0.3-1.1,0.4-1.1,1.8v1.1h-1.8c-0.1-2.7-1.8-3.5-1.8-5.7
		c0-0.7,0.5-1.2,0.7-2.1c-1.2,0.1-1.8,0.9-2.1,1.9v-6.2c0-0.1,0.1-0.1,0.1-0.2C68.3,57.2,73.4,54.3,76.4,52.5L76.4,52.5z M76.4,64.8
		c-1.5,1.4-3.2,3.8-3.2,5.7c0,0.8-0.3,0.8-0.7,1.4c0.9,1.7,1.3,2.4,3.9,2.5v0v-4.7c-0.2,0.4-0.3,0.9-0.4,1.9H75
		c0.2-0.8,0.4-0.8,0.4-1.8v-0.4c0-0.6,0.5-1.3,1.1-2V64.8L76.4,64.8z M76.4,88.8v6h-0.4h-0.7c-0.7-0.4-1.1-0.7-2.1-0.7h-1.1v1.4
		c1.4,0,3,0.4,4.3,1v2c-0.3-0.2-0.5-0.5-0.7-0.8H75c-1.4,0-0.8-0.4-2.5-0.4c-1.5,0-2,1.2-2.5,2.1v0.7l-0.1,1.1l0.5,3.2v0.7
		c1.1,0.8,0.2,0.6,1.8,0.7c-0.1,2.8-1.4,2.8-1.4,3.9v2.1v0.7c0.8,1.4,2.7,5.2,4.1,5.9c0.4,0.2,1,0.5,1.6,0.9v8.3
		c-0.1-0.2-0.3-0.4-0.5-0.6c-1.4-1.4-2.5-2.1-3.5-4c-1.4-2.6-1.1-2.3-3.2-4.3c-1.8-1.8-1.5-2.9-2.7-4.8l-0.1-0.1V74.2
		c0.2,0.6,0.4,1.1,0.7,1.7v0.7v2.1v0.7c0.6,1.2,2.2,5.7,3.6,5.7h1.1c1.1,0,1.7,1,1.8,2.1C73.9,87.4,75.2,88.1,76.4,88.8L76.4,88.8z
		 M76.4,100.5L76.4,100.5c-0.2-0.8-0.3-1.4-1.4-1.4h-1.8c-0.8,0-1.8,1-1.8,1.8c0,0.9,0.6,1,1.1,1.8h0.7c1.3,0,0.8,0.3,2.5,0.4
		c0.2,0.2,0.4,0.6,0.7,0.9V100.5L76.4,100.5z M76.4,112.7c-0.3,0.2-0.8,0.3-1.4,0.3c-0.1,0-2.2-0.9-2.9-1.1c0.1,2.8,2.3,2.8,2.9,5
		l1.4,0.2V112.7L76.4,112.7z M66.4,157.5v-3l0.2-0.7l0.9-1.9c-0.5,0.1-0.8,0.2-1.1,0.4v-2c0.9-1.6,3-4.4,3.5-4.8l0.4,3.2l-0.1,0.7
		l0.8,4.6c-0.5,1-1.7,4.3-2.9,4.3C67.4,158.3,66.9,157.9,66.4,157.5L66.4,157.5z M66.4,148c0.8-0.7,1.3-1.6,1.8-2.6v-0.7v-0.4v-0.7
		l-0.6-1.1l-0.1,1.1v0.7l-1.1,0.7V148L66.4,148z M66.4,143.5v-4.6c0.6,0.3,1.1,0.8,1.1,1.5v0.7C67,142.1,66.8,142.8,66.4,143.5z
		 M66.4,60.2v6.2c-0.3,0.9-0.4,2-0.4,3.1v2.1c0,1,0.1,1.9,0.4,2.6v39.6c-1.3-2.1-4.1-8.7-6.4-8.7l-0.7,0l-0.7,1.4l-0.1,0.7l0.8,6
		c1.1,0.8,1.8,2.8,2.4,4.4c0.2,0.8,1.9,4.8,1.9,4.9l-0.4,5.3v2.1c0,0.4,1.2,2.4,1.4,2.9v0.7v0.7c0,1.2,0.7,0.5,0.7,1.8v2.5
		c0.4,0,0.8,0.1,1.1,0.3v4.6c-0.3,0.6-0.7,1.2-1.3,2c-0.8,0.9-2.4,3.1-3.3,3.5v-2.1h0.7v-1.4c1.1-0.8,2.1-1.3,2.1-3.2
		c-0.9,0.2-2.2,1.8-3.6,2.5c-0.6-0.4-1.8-1.2-1.8-2.1V139v-0.7c1.2-0.7,1.6-0.4,1.8-2.1H60l0,1l-1.4,0.4l-2.5-0.3h-1.4l0.4-1.7
		l1-0.4h0.7h0.4c1.3,0,2.7-1.9,2.9-3.2c-1.7,0.1-1.2,0.3-1.8,1.4h-0.7h-1.8H55c-1.2-0.6-1.8-1-1.8-2.9l0-0.7l-1.8-3.2v-0.7v-4.6
		l0.1-0.7l-1.4-2.1l0.3-1.8c-1.3-0.3-1,0-1.1-1.4c1.4-0.3,2.2-0.8,2.8-1.9l-2.8,0.4c-1,0.2-0.4,0-1-0.3l0.3-1.1
		c1.3-0.3,4.7-3.1,5.4-4.2c1.2-1.8,2.7-4.5,5.3-4.7v-0.7c0.9-0.1,2.1-0.6,2.1-1.4c0-1.2-2.2-6.7-2.7-8c-1-2.4-2.6-5.3-2.6-8.4v-0.4
		c0-5.6,2.5-9.1,4.9-12.6c1.3-1.9,2.2-3.2,3.1-5.5C65.1,63.8,65.1,62.5,66.4,60.2L66.4,60.2z M66.4,145l-0.3,0.2
		c-0.9,3.4-2.6,2.5-3.3,5.2c2.3,0,0.7-0.2,2.5-0.7v-1.1c0.4-0.1,0.8-0.4,1.1-0.6V145L66.4,145z M66.4,150.2v2
		c-0.4,0.3-0.8,0.8-1.8,1.4v-1.8c1.7-0.6-0.3-0.1,1.4-0.7C66.1,150.9,66.2,150.6,66.4,150.2L66.4,150.2z M66.4,154.5v3
		c-0.4-0.4-0.8-0.8-1.4-1v-0.7l1.1,0L66.4,154.5z"/>
	<path d="M193,94.8v-1.9c0.2,0,0.5-0.1,0.7-0.2c0.4-0.1,0.8-0.2,1.2-0.3c0.4-0.1,0.8-0.3,1.3-0.4c0.4-0.2,0.8-0.4,1.2-0.6
		c0.4-0.2,0.7-0.5,0.9-0.8c0.3-0.3,0.4-0.6,0.5-1c0.1-0.4,0.1-0.8,0-1.3c-0.1-0.6-0.4-1-0.7-1.3c-0.3-0.3-0.7-0.6-1.1-0.7
		c-0.4-0.1-0.9-0.2-1.5-0.2c-0.5,0-1.1,0.1-1.6,0.1c-0.3,0.1-0.6,0.1-0.9,0.2v-1.9c0.6-0.1,1.1-0.1,1.6-0.2c0.8,0,1.6,0.1,2.2,0.3
		c0.7,0.2,1.2,0.6,1.6,1.2c0.5,0.6,0.8,1.3,1,2.2c0.2,0.9,0.2,1.7,0,2.4c-0.2,0.7-0.5,1.3-1,1.8c-0.5,0.5-1.1,0.9-1.9,1.3
		c-0.7,0.3-1.6,0.6-2.5,0.8C193.7,94.7,193.4,94.7,193,94.8L193,94.8z M193,81.8v-1.1l4.6,0.1l0.4,1.1L193,81.8L193,81.8z M193,75
		v-2.3c0.1-0.1,0.2-0.2,0.3-0.3c0.2-0.2,0.3-0.3,0.4-0.5c0.1-0.2,0.1-0.4,0.1-0.6c0-0.2,0-0.5-0.1-0.9l0.3-0.1l1,3L193,75z
		 M193,72.8V75l-6.4,5.2v-2.1l6-4.9C192.7,73,192.9,72.9,193,72.8L193,72.8z M193,80.7v1.1l-6.4-0.1v-1.1L193,80.7L193,80.7z
		 M193,84.6v1.9c-0.2,0.1-0.5,0.1-0.7,0.2c-0.4,0.1-0.8,0.2-1.2,0.3c-0.4,0.1-0.8,0.3-1.3,0.4c-0.4,0.2-0.8,0.4-1.2,0.6
		c-0.4,0.2-0.7,0.5-0.9,0.8c-0.2,0.3-0.4,0.6-0.5,1c-0.1,0.4-0.1,0.8,0,1.3c0.1,0.6,0.4,1,0.7,1.3c0.3,0.3,0.7,0.5,1.1,0.7
		c0.4,0.1,0.9,0.2,1.4,0.2c0.5,0,1.1-0.1,1.6-0.1c0.3-0.1,0.6-0.1,0.9-0.2v1.9c-0.6,0.1-1.1,0.1-1.6,0.2c-0.8,0-1.6-0.1-2.2-0.3
		c-0.7-0.2-1.2-0.6-1.6-1.2c-0.4-0.5-0.7-1.1-0.9-1.9v-3.3c0.2-0.5,0.5-1,0.9-1.4c0.5-0.5,1.1-0.9,1.9-1.3c0.7-0.3,1.6-0.6,2.5-0.8
		C192.3,84.7,192.6,84.6,193,84.6L193,84.6z M186.6,69.8v-1.4l0.1,0.1c0.2,0.2,0.5,0.5,0.8,0.6c0.3,0.1,0.6,0.2,1,0.2
		c0.4,0,0.8-0.1,1.3-0.4c0.4-0.2,0.7-0.5,0.9-0.7c0.2-0.3,0.3-0.6,0.3-0.9c0-0.3,0-0.7-0.1-1c-0.1-0.3-0.2-0.7-0.4-1
		c-0.1-0.3-0.3-0.5-0.4-0.6c-0.1-0.2-0.2-0.2-0.3-0.3c-0.1,0-0.3,0-0.4,0c-0.2,0.1-0.4,0.2-0.6,0.3l-2.1,1.1v-1.9l1.3-0.7
		c0.3-0.2,0.5-0.3,0.7-0.4c0.2-0.1,0.2-0.3,0.3-0.5c0-0.2,0-0.4,0-0.6c-0.1-0.3-0.2-0.6-0.3-1l0.3-0.2l2.5,4.8
		c0.3,0.5,0.5,1,0.7,1.5c0.2,0.5,0.2,1,0.2,1.4c0,0.5-0.2,0.9-0.5,1.3c-0.3,0.4-0.7,0.8-1.3,1.1c-0.5,0.3-0.9,0.4-1.3,0.4
		c-0.4,0-0.8-0.1-1.2-0.2c-0.4-0.2-0.7-0.4-1-0.7C186.8,70,186.7,69.9,186.6,69.8L186.6,69.8z M186.6,60v-2.8l1.2,1.9L186.6,60z
		 M186.6,57.2V60l-0.7,0.5l-0.3-0.5c0.2-0.2,0.3-0.3,0.5-0.5c0.1-0.1,0.2-0.3,0.3-0.5c0.1-0.2,0.1-0.4,0-0.6
		c-0.1-0.2-0.2-0.5-0.4-0.8l-1.1-1.7c-0.1-0.2-0.3-0.4-0.4-0.5c-0.1-0.1-0.2-0.2-0.4-0.2c-0.1,0-0.3,0-0.4,0.1
		c-0.2,0.1-0.3,0.2-0.6,0.3l-0.1,0.1v-2.5c0-0.1,0-0.2,0-0.2v-1.2L186.6,57.2L186.6,57.2z M186.6,63.9v1.9l-1.2,0.7l0.2,0.5
		c0.1,0.2,0.3,0.5,0.4,0.8c0.2,0.3,0.3,0.5,0.5,0.7v1.4c-0.2-0.2-0.3-0.4-0.5-0.6l-3,5v-3.1l2.1-3.5l-0.4-0.8l-1.6,0.9v-1.9
		L186.6,63.9L186.6,63.9z M186.6,78.1v2.1l-0.4,0.3l0.4,0v1.1l-2.6-0.1l-0.4-1.1L186.6,78.1L186.6,78.1z M186.6,88.2v3.3
		c0-0.1-0.1-0.2-0.1-0.3c-0.2-1-0.2-1.8-0.1-2.5C186.5,88.5,186.5,88.4,186.6,88.2L186.6,88.2z M183.1,61.4l0.9-0.6l-0.2-0.4
		c-0.2,0.1-0.4,0.2-0.6,0.2l0,0V61.4z M183.1,51.8V53c0-0.1,0-0.2-0.1-0.4c-0.1-0.3-0.2-0.6-0.4-1l0.3-0.2L183.1,51.8L183.1,51.8z
		 M183.1,53.2v2.5l-3.1,2l1.3,2c0.2,0.3,0.4,0.6,0.6,0.7c0.2,0.2,0.4,0.2,0.6,0.3c0.2,0,0.4,0,0.5,0v0.7l-2.5,1.6l-0.2-0.4
		c0.2-0.2,0.4-0.4,0.5-0.5c0.1-0.2,0.2-0.3,0.3-0.5c0.1-0.2,0-0.4,0-0.6c-0.1-0.2-0.2-0.5-0.4-0.9l-1.3-2l-2.3,1.5v-2l5.2-3.3
		c0.2-0.1,0.4-0.3,0.5-0.4C182.9,53.6,183,53.5,183.1,53.2C183,53.3,183.1,53.2,183.1,53.2L183.1,53.2z M183.1,65.7v1.9l-4,2.1
		l-0.8-1.5L183.1,65.7L183.1,65.7z M183.1,71.1v3.1l-0.9,1.4l-0.9-1.7L183.1,71.1L183.1,71.1z M177.1,66.3l0.1,0.1l2.3-1.3l-0.3-0.5
		c-0.3,0.1-0.6,0.3-0.9,0.3c-0.2,0.1-0.4,0.1-0.6,0.1c-0.2,0-0.3-0.1-0.5-0.2l0,0V66.3L177.1,66.3z M177.1,52.9v-1.5l3.2-2.8
		l0.7,0.9L177.1,52.9z M177.1,51.4v1.5l-2.2,1.9c-0.3,0.3-0.6,0.5-0.9,0.8c-0.3,0.2-0.6,0.5-1,0.6c-0.3,0.2-0.7,0.3-1,0.4
		c-0.4,0.1-0.7,0.1-1.1,0c-0.4-0.1-0.8-0.3-1.2-0.6c-0.2-0.1-0.3-0.2-0.5-0.4v-1c0.3,0.3,0.6,0.5,0.9,0.7c0.4,0.2,0.7,0.3,1.1,0.3
		c0.4,0,0.7-0.1,1-0.2c0.3-0.2,0.6-0.3,0.9-0.6c0.3-0.2,0.6-0.5,0.9-0.7L177.1,51.4L177.1,51.4z M177.1,57.6v2l-1.5,1
		c-0.2,0.1-0.4,0.3-0.5,0.4c-0.1,0.1-0.2,0.2-0.2,0.4c0,0.1,0.1,0.3,0.2,0.5c0.1,0.2,0.2,0.4,0.4,0.7l1.1,1.7
		c0.2,0.3,0.3,0.5,0.5,0.6v1.5l-4-6.1L177.1,57.6L177.1,57.6z M169.2,50.5v-2.3l4.5-3.9c0.2-0.2,0.4-0.4,0.5-0.6
		c0.1-0.2,0.1-0.4,0.1-0.5c0-0.2-0.1-0.4-0.3-0.6c-0.1-0.2-0.3-0.4-0.5-0.7l0.3-0.2l2.7,2.4l-6.2,5.4c-0.2,0.2-0.4,0.3-0.6,0.5
		C169.5,50.2,169.4,50.3,169.2,50.5L169.2,50.5z M169.2,38c0.2,0.2,0.4,0.4,0.5,0.6c0.1,0.2,0.2,0.5,0.3,0.7c0,0.2,0,0.4,0,0.6
		c0,0.2-0.1,0.4-0.2,0.5c-0.1,0.2-0.1,0.3-0.2,0.4l1.4,1.2c0.2-0.3,0.3-0.6,0.4-0.9c0.1-0.4,0.1-0.7,0-1.2c-0.1-0.4-0.2-0.8-0.5-1.3
		c-0.3-0.5-0.7-0.9-1.2-1.4c-0.2-0.2-0.4-0.3-0.5-0.4V38z M169.2,36.9V38c0,0-0.1-0.1-0.1-0.1c-0.4-0.3-0.8-0.5-1.3-0.6
		c-0.4-0.1-0.9,0-1.4,0.1c-0.5,0.2-1,0.4-1.4,0.8c-0.5,0.4-1,0.8-1.4,1.4c-0.3,0.3-0.6,0.7-0.9,1.1c-0.3,0.4-0.6,0.8-0.8,1.3
		c-0.2,0.5-0.4,0.9-0.5,1.4c-0.1,0.5-0.2,1-0.1,1.5c0,0.5,0.2,1,0.5,1.5c0.3,0.5,0.7,0.9,1.2,1.4c0.2,0.2,0.4,0.3,0.7,0.5
		c0.2,0.1,0.5,0.3,0.7,0.4c0.2,0.1,0.4,0.2,0.6,0.3c0.2,0.1,0.3,0.1,0.3,0.1l-0.5,0.6c-0.2-0.1-0.4-0.2-0.7-0.3
		c-0.2-0.1-0.5-0.2-0.7-0.4c-0.2-0.1-0.5-0.3-0.8-0.5c-0.3-0.2-0.6-0.4-0.9-0.7c-0.5-0.5-1-1-1.3-1.5c-0.3-0.6-0.5-1.2-0.5-1.8
		c-0.1-0.6,0-1.3,0.1-1.9c0.1-0.6,0.4-1.3,0.7-1.9c0.3-0.6,0.8-1.3,1.3-1.9c0.6-0.7,1.1-1.2,1.8-1.7c0.6-0.5,1.2-0.8,1.9-1
		c0.7-0.2,1.3-0.2,2.1,0C168.1,36.2,168.7,36.5,169.2,36.9L169.2,36.9z M169.2,48.2L169.2,48.2c-0.5,0.4-0.8,0.8-1.2,1.1
		c-0.3,0.4-0.6,0.7-0.8,1.1c-0.2,0.4-0.3,0.8-0.3,1.2c0,0.4,0.1,0.9,0.3,1.4c0.2,0.5,0.6,1.1,1.1,1.7c0.3,0.3,0.6,0.6,0.9,0.9v-1
		c-0.1-0.1-0.2-0.2-0.3-0.3c-0.3-0.4-0.5-0.7-0.6-1c-0.1-0.3-0.1-0.6-0.1-1c0-0.3,0.1-0.6,0.3-0.9c0.1-0.3,0.3-0.5,0.5-0.8
		c0.1-0.1,0.1-0.1,0.2-0.2V48.2L169.2,48.2z M122.5,28.5v-0.8c0.2,0,0.3-0.1,0.5-0.1c0.4-0.2,0.8-0.4,1.1-0.8
		c0.3-0.4,0.5-0.8,0.7-1.3c0.2-0.5,0.4-1,0.5-1.5c0.1-0.5,0.2-1.1,0.3-1.6c0.1-0.4,0.1-0.8,0.2-1.3c0.1-0.4,0.1-0.9,0.1-1.3
		c0-0.4,0-0.9-0.1-1.3c-0.1-0.4-0.2-0.8-0.3-1.1c-0.2-0.3-0.4-0.6-0.7-0.9c-0.3-0.2-0.7-0.4-1.2-0.5c-0.4-0.1-0.7-0.1-1,0v-0.8
		c0.4,0,0.8,0,1.2,0.1c0.9,0.2,1.7,0.5,2.3,0.9c0.6,0.4,1,1,1.3,1.6c0.3,0.7,0.4,1.4,0.4,2.2c0,0.8-0.1,1.7-0.2,2.7
		c-0.2,1-0.4,1.9-0.7,2.7c-0.3,0.8-0.7,1.4-1.2,1.9c-0.5,0.5-1.1,0.9-1.8,1C123.4,28.4,123,28.5,122.5,28.5L122.5,28.5z M141.8,34.5
		l1.5,0.7l2.5-5.5l6.7-4.5l-1.2-0.5l-5.5,3.7l-0.8-6.5l-2.6-1.2l-0.1,0.3c0.3,0.2,0.5,0.3,0.7,0.5c0.2,0.2,0.3,0.3,0.4,0.5
		c0.1,0.2,0.1,0.4,0.2,0.7c0,0.3,0.1,0.6,0.1,1l0.6,5.3L141.8,34.5z M122.5,15.1v0.8c-0.2,0-0.3,0.1-0.5,0.1
		c-0.4,0.2-0.8,0.4-1.1,0.8c-0.3,0.4-0.5,0.8-0.7,1.3c-0.2,0.5-0.4,1-0.5,1.5c-0.1,0.5-0.2,1.1-0.3,1.6c-0.1,0.4-0.1,0.8-0.2,1.3
		c-0.1,0.4-0.1,0.9-0.1,1.3c0,0.4,0,0.9,0.1,1.3c0.1,0.4,0.2,0.8,0.4,1.1c0.2,0.3,0.4,0.6,0.7,0.9c0.3,0.2,0.7,0.4,1.2,0.5
		c0.4,0.1,0.7,0.1,1,0v0.8c-0.4,0-0.7,0-1.1-0.1c-1-0.2-1.7-0.5-2.3-0.9c-0.6-0.4-1-1-1.3-1.6c-0.3-0.7-0.4-1.4-0.4-2.2
		c0-0.8,0.1-1.7,0.2-2.7c0.2-1,0.4-1.9,0.7-2.7c0.3-0.8,0.7-1.4,1.2-1.9c0.5-0.5,1.1-0.9,1.8-1C121.6,15.2,122,15.1,122.5,15.1
		L122.5,15.1z M111.4,22.7v-2.9c0.1,0,0.2,0,0.3-0.1c0.3-0.1,0.6-0.2,0.9-0.4c0.3-0.2,0.5-0.4,0.7-0.8c0.2-0.3,0.3-0.8,0.3-1.3
		c0-0.5-0.1-0.8-0.2-1.1c-0.1-0.3-0.4-0.6-0.6-0.7c-0.3-0.2-0.6-0.3-0.9-0.4c-0.1,0-0.3-0.1-0.4-0.1v-0.8c0.5,0,1,0.1,1.4,0.2
		c0.5,0.1,1,0.3,1.4,0.5c0.4,0.2,0.7,0.6,0.9,1c0.2,0.4,0.3,1,0.3,1.7c0,0.5-0.1,1-0.3,1.4c-0.2,0.4-0.4,0.7-0.8,0.9
		c-0.3,0.2-0.7,0.4-1.1,0.5c-0.4,0.1-0.8,0.2-1.2,0.3l3.8,6.5l-1.9,0L111.4,22.7z M111.4,14.1v0.8c-0.2,0-0.4-0.1-0.7-0.1
		c-0.3,0-0.6,0-0.8,0c-0.2,0-0.3,0.1-0.4,0.2c-0.1,0.1-0.1,0.2-0.2,0.4c0,0.2,0,0.4,0,0.7l-0.1,3.8l0.5,0c0.3,0,0.6,0,0.9,0
		c0.2,0,0.5,0,0.7-0.1v2.9l-1.2-2.1l-1,0l-0.1,6.4l-1.7,0l0.2-10.9c0-0.3,0-0.6-0.1-0.8c0-0.2-0.1-0.3-0.3-0.5
		c-0.1-0.1-0.3-0.2-0.6-0.3c-0.2-0.1-0.5-0.1-0.8-0.2V14l5.2,0.1C111.3,14.1,111.4,14.1,111.4,14.1L111.4,14.1z M106,26.9l0.2,0
		l-0.2-0.4V26.9z M106,14v0.4l-0.2,0l0-0.3L106,14L106,14z M106,26.5v0.5l-1.6,0.1l-1.9-4.2l-2.4,0.2v-0.8l2.2-0.1l-2.2-4.8v-3
		l0.4,0L106,26.5z M100,14.4v3l-0.4-0.9l-1.8,6l2.2-0.2v0.8l-2.4,0.2l-1.2,4.4l-1.2,0.1v0l3.2-10.9c0.1-0.2,0.1-0.4,0.2-0.5
		c0.1-0.2,0.1-0.4,0.1-0.5c0-0.2-0.1-0.3-0.2-0.4c-0.1-0.1-0.3-0.2-0.5-0.2c-0.2-0.1-0.5-0.1-0.8-0.2l0-0.3L100,14.4L100,14.4z
		 M95.2,27.5L95.2,27.5L95.2,27.5L95.2,27.5z M95.2,27.5L95.2,27.5c-0.2,0.1-0.4,0.3-0.6,0.4c-0.2,0.1-0.5,0.2-0.7,0.3
		c-0.3,0.1-0.6,0.2-0.9,0.3c-0.3,0.1-0.7,0.2-1.2,0.3c-0.7,0.1-1.4,0.2-2,0.1c-0.6-0.1-1.2-0.3-1.7-0.7c-0.5-0.3-1-0.8-1.4-1.3
		c-0.4-0.5-0.8-1.1-1.1-1.8c-0.3-0.7-0.5-1.4-0.7-2.1c-0.2-0.9-0.3-1.7-0.3-2.4c0-0.8,0.1-1.5,0.4-2.1c0.3-0.6,0.7-1.2,1.3-1.6
		c0.6-0.4,1.4-0.8,2.3-1c0.7-0.1,1.3-0.2,1.9-0.1c0.5,0.1,1,0.2,1.3,0.4c0.4,0.2,0.7,0.4,0.9,0.7c0.2,0.3,0.4,0.6,0.5,0.9l-1.8,0.4
		c0-0.1-0.1-0.3-0.2-0.4c-0.1-0.2-0.2-0.3-0.3-0.5c-0.1-0.2-0.3-0.3-0.5-0.4c-0.2-0.1-0.4-0.2-0.7-0.2c-0.3,0-0.6,0-1,0.1
		c-0.5,0.1-0.9,0.3-1.2,0.6c-0.3,0.3-0.6,0.7-0.7,1.2c-0.2,0.5-0.3,1-0.3,1.6c0,0.6,0.1,1.3,0.2,2c0.1,0.4,0.2,0.9,0.4,1.4
		c0.1,0.5,0.3,1,0.5,1.4c0.2,0.5,0.5,0.9,0.8,1.3c0.3,0.4,0.7,0.7,1.1,1c0.4,0.3,0.9,0.5,1.4,0.5c0.5,0.1,1.2,0.1,1.8-0.1
		c0.3-0.1,0.6-0.1,0.8-0.2c0.3-0.1,0.5-0.2,0.7-0.3c0.2-0.1,0.4-0.2,0.6-0.3c0.1-0.1,0.3-0.1,0.3-0.2L95.2,27.5L95.2,27.5z
		 M95.2,27.7L95.2,27.7L95.2,27.7L95.2,27.7L95.2,27.7z M66.1,37.5v-1.5c0.2,0.1,0.3,0.2,0.5,0.3c0.4,0.2,0.7,0.2,1.1,0.2
		c0.4,0,0.8-0.1,1.2-0.4c0.5-0.3,0.9-0.6,1.1-1c0.2-0.4,0.3-0.8,0.3-1.3c0-0.5-0.1-0.9-0.2-1.4c-0.2-0.5-0.3-1-0.6-1.5
		c-0.2-0.5-0.5-1-0.7-1.4c-0.2-0.4-0.4-0.7-0.6-1.1c-0.2-0.4-0.5-0.7-0.8-1.1c-0.3-0.4-0.6-0.7-0.9-1c-0.1-0.1-0.3-0.3-0.5-0.4v-1.4
		c0.4,0.1,0.8,0.2,1.1,0.4c0.6,0.3,1.2,0.8,1.7,1.5c0.5,0.6,1,1.4,1.5,2.2c0.5,0.9,0.9,1.7,1.1,2.5c0.2,0.8,0.3,1.5,0.3,2.2
		c-0.1,0.7-0.3,1.3-0.7,1.9c-0.4,0.6-1,1.1-1.9,1.6c-0.9,0.5-1.7,0.7-2.4,0.7C66.7,37.6,66.4,37.6,66.1,37.5z M66.1,24.5v1.4
		c-0.2-0.1-0.3-0.2-0.5-0.3c-0.3-0.2-0.7-0.2-1.1-0.2c-0.4,0-0.8,0.1-1.2,0.4c-0.5,0.3-0.9,0.6-1.1,1c-0.2,0.4-0.3,0.8-0.3,1.3
		c0,0.5,0.1,0.9,0.2,1.4c0.1,0.5,0.3,1,0.6,1.5c0.2,0.5,0.5,1,0.8,1.5c0.2,0.4,0.4,0.7,0.6,1.1c0.2,0.4,0.5,0.7,0.7,1.1
		c0.3,0.4,0.6,0.7,0.9,1c0.2,0.1,0.3,0.3,0.5,0.4v1.5c-0.4-0.1-0.8-0.2-1.2-0.4c-0.6-0.3-1.2-0.8-1.7-1.5c-0.5-0.6-1-1.4-1.5-2.2
		c-0.5-0.8-0.8-1.6-1.1-2.4v-3.7c0.1-0.2,0.2-0.4,0.4-0.6c0.4-0.6,1-1.1,1.9-1.6c0.8-0.5,1.6-0.7,2.3-0.7
		C65.5,24.4,65.8,24.5,66.1,24.5L66.1,24.5z M60.6,42.2v-0.8l0.4,0.5L60.6,42.2z M60.6,27.3v3.7l-0.1-0.2c-0.3-0.8-0.3-1.5-0.3-2.2
		C60.3,28.2,60.5,27.8,60.6,27.3L60.6,27.3z M60.6,41.4L54,31.9l1.4-1c0.3-0.2,0.6-0.4,0.9-0.4c0.2-0.1,0.4-0.1,0.6,0
		c0.2,0.1,0.4,0.2,0.5,0.4c0.2,0.2,0.3,0.4,0.5,0.6l0.5-0.3L56.9,29l-5.3,3.7v0.9l1.1-0.8l7,10l1-0.7V41.4L60.6,41.4z M51.5,50v-1
		c0.1-0.1,0.2-0.2,0.3-0.3c0.5-0.4,0.8-0.8,1-1.2c0.2-0.4,0.3-0.8,0.2-1.1c0-0.3-0.1-0.7-0.3-1c-0.2-0.3-0.4-0.6-0.6-0.9
		c-0.2-0.3-0.4-0.5-0.7-0.7v-1.7l0.6,0.6c0.3,0.3,0.5,0.6,0.8,0.9c0.3,0.3,0.5,0.6,0.7,0.9c0.2,0.3,0.3,0.7,0.4,1
		c0.1,0.4,0.1,0.7,0,1.1c-0.1,0.4-0.2,0.8-0.5,1.2c-0.3,0.4-0.7,0.9-1.2,1.4C52.1,49.5,51.8,49.8,51.5,50z M51.5,32.8v0.9l-0.3,0.2
		c-0.3,0.2-0.6,0.4-0.7,0.6c-0.1,0.2-0.2,0.4-0.2,0.6c0,0.2,0.1,0.4,0.2,0.6c0.1,0.2,0.2,0.4,0.4,0.7l-0.5,0.3L49,34.6L51.5,32.8
		L51.5,32.8z M51.5,42.1l-5-5.3l-0.8,0.8l5.7,6.1l0.1,0.1V42.1L51.5,42.1z M51.5,49v1c-0.3,0.2-0.6,0.4-0.8,0.5
		c-0.5,0.2-1,0.4-1.4,0.4c-0.4,0-0.9-0.1-1.3-0.3c-0.4-0.2-0.8-0.5-1.1-0.8c-0.4-0.3-0.7-0.7-1.1-1.1L42.3,45v-2.4l4.7,5.1
		c0.2,0.2,0.3,0.4,0.5,0.6c0.2,0.2,0.4,0.4,0.7,0.6c0.3,0.2,0.5,0.4,0.8,0.5c0.3,0.1,0.6,0.2,0.9,0.3c0.3,0,0.6,0,1-0.1
		C51.1,49.3,51.3,49.2,51.5,49L51.5,49z M42.3,56v-2.1l3.2,2.6l-1.1,1.3L42.3,56z M42.3,42.5V45l-0.6-0.7c-0.2-0.2-0.4-0.4-0.6-0.5
		c-0.2-0.1-0.4-0.1-0.5,0c-0.2,0-0.4,0.1-0.6,0.3c-0.2,0.1-0.4,0.3-0.7,0.5l-0.2-0.2l2.3-2.8L42.3,42.5L42.3,42.5z M42.3,53.8V56
		L35,50.1l-1.1,1.3c-0.3,0.3-0.4,0.6-0.5,0.8c-0.1,0.2-0.1,0.4,0,0.6c0.1,0.2,0.2,0.4,0.3,0.5c0.2,0.2,0.3,0.4,0.6,0.6l-0.4,0.5
		L33,53.6v-2.2l5-6.2l2.1,1.6l-0.4,0.5c-0.2-0.2-0.5-0.3-0.7-0.4c-0.2-0.1-0.4-0.2-0.6-0.2c-0.2,0-0.4,0-0.6,0.2
		c-0.2,0.1-0.4,0.3-0.7,0.7L36,48.8L42.3,53.8L42.3,53.8z M33,78v-4c0.2,0.3,0.3,0.6,0.3,0.9c0.1,0.5,0.1,1.1,0,1.6
		C33.3,77,33.2,77.5,33,78L33,78z M33,67.8v-1.9l4.3,2.5l-0.8,1.4L33,67.8L33,67.8z M33,58.8v-2l8.1,5.2l-0.9,1.4L33,58.8z
		 M27.9,95.6l0.3-1.6l-2.6-0.5v1.7L27.9,95.6L27.9,95.6z M33,51.4v2.2l-1.1-0.9L33,51.4L33,51.4z M33,56.8v2l-1.8-1.2
		c-0.3-0.2-0.5-0.3-0.7-0.3c-0.2,0-0.4,0-0.5,0.1c-0.2,0.1-0.3,0.2-0.5,0.4c-0.2,0.2-0.3,0.4-0.6,0.7l-0.3-0.2l1.6-3.2L33,56.8
		L33,56.8z M33,65.8l-6.2-3.6l0.9-1.5c0.2-0.4,0.4-0.6,0.6-0.8c0.2-0.2,0.4-0.2,0.6-0.3c0.2,0,0.4,0,0.6,0.1
		c0.2,0.1,0.5,0.2,0.7,0.3l0.3-0.5l-2.3-1.2l-2.5,4.3v1.5l0.3-0.5l7,4.1V65.8L33,65.8z M33,74v4c0,0.1-0.1,0.1-0.1,0.2
		c-0.1,0.3-0.3,0.6-0.4,0.9c-0.2,0.3-0.3,0.6-0.5,0.8c-0.1,0.2-0.3,0.5-0.4,0.6c-0.1,0.2-0.2,0.3-0.2,0.4l-1.2-0.5
		c0.2-0.2,0.4-0.4,0.7-0.7c0.3-0.3,0.5-0.6,0.7-0.9c0.2-0.4,0.4-0.7,0.6-1.1c0.2-0.5,0.3-1,0.3-1.4c0-0.4-0.2-0.8-0.4-1.2
		c-0.3-0.3-0.6-0.6-1.1-0.8c-0.4-0.1-0.7-0.2-1.1-0.1c-0.3,0-0.7,0.2-1,0.3c-0.3,0.2-0.6,0.4-1,0.7c-0.3,0.3-0.6,0.5-1,0.8
		c-0.3,0.3-0.7,0.6-1,0.8c-0.1,0.1-0.2,0.1-0.2,0.2v-2.3c0.3-0.2,0.5-0.4,0.8-0.7c0.3-0.3,0.7-0.6,1-0.8c0.4-0.3,0.7-0.5,1.1-0.6
		c0.4-0.2,0.8-0.3,1.2-0.3c0.4,0,0.9,0.1,1.4,0.3c0.6,0.3,1.1,0.6,1.4,1C32.8,73.6,32.9,73.8,33,74L33,74z M25.7,90.2v-1l3.1,0.9
		l-0.3,1L25.7,90.2L25.7,90.2z M25.7,85l4.9-1.2l0.4-1.4l-5.3-1.5v1l2.6,0.8l0,0l-2.6,0.7V85L25.7,85z M25.7,67.9v-0.4l0.2,0.1
		L25.7,67.9z M25.7,93.5l-10.1-2l-0.3,3.6l0.3,0.1c0.1-0.3,0.2-0.6,0.3-0.8c0.1-0.2,0.2-0.4,0.3-0.6c0.1-0.1,0.3-0.2,0.4-0.3
		c0.2,0,0.5,0,0.8,0l8.2,1.6V93.5L25.7,93.5z M25.7,62.7v1.5l-0.6,1c-0.2,0.3-0.3,0.6-0.4,0.9c0,0.2,0,0.4,0.1,0.6
		c0.1,0.2,0.2,0.3,0.4,0.5c0.1,0.1,0.3,0.2,0.5,0.4v0.4l-0.1,0.3l-2.2-1.4L25.7,62.7L25.7,62.7z M25.7,74.7v2.3
		c-0.3,0.2-0.6,0.3-0.8,0.5c-0.4,0.2-0.8,0.3-1.2,0.3c-0.4,0-0.8-0.1-1.3-0.2c-0.6-0.3-1.1-0.6-1.4-1.1c-0.3-0.5-0.5-1.1-0.5-1.8
		c0-0.7,0.2-1.4,0.5-2.2c0.2-0.4,0.3-0.7,0.5-1.1c0.2-0.3,0.3-0.6,0.5-0.9c0.2-0.2,0.3-0.5,0.4-0.6l1.2,0.5
		c-0.2,0.2-0.4,0.4-0.6,0.6c-0.2,0.3-0.5,0.6-0.7,0.9c-0.2,0.3-0.4,0.7-0.6,1.1c-0.2,0.4-0.3,0.8-0.2,1.2c0,0.4,0.1,0.7,0.3,1
		c0.2,0.3,0.5,0.5,0.8,0.7c0.3,0.1,0.7,0.2,1,0.1c0.3-0.1,0.7-0.2,1-0.4c0.3-0.2,0.6-0.4,1-0.7L25.7,74.7L25.7,74.7z M25.7,80.8v1
		l-7.4-2.1l0.3-1L25.7,80.8L25.7,80.8z M25.7,83.3V85l-7.8,1.9l0,0l7.8,2.2v1L18.2,88c-0.4-0.1-0.7-0.2-0.9-0.2
		c-0.2,0-0.4,0-0.6,0.1c-0.1,0.1-0.3,0.3-0.4,0.5c-0.1,0.2-0.3,0.5-0.5,0.9l-0.3-0.1l1.1-3.7L25.7,83.3z"/>
	<path d="M188.3,154.6v-1.8c0.1,0,0.1,0,0.2,0c0.5,0.1,0.9,0,1.3,0c0.4-0.1,0.8-0.3,1.1-0.5c0.3-0.3,0.6-0.6,0.9-1.1
		c0.3-0.6,0.4-1.1,0.3-1.6c-0.1-0.5-0.2-0.9-0.5-1.4c-0.3-0.4-0.7-0.8-1.1-1.2c-0.4-0.4-0.9-0.7-1.5-1c-0.3-0.1-0.5-0.3-0.8-0.4
		v-2.3l0.1,0c1,0.5,1.9,1,2.6,1.6c0.7,0.6,1.3,1.2,1.7,1.8c0.4,0.7,0.6,1.4,0.6,2.2c0,0.8-0.2,1.6-0.7,2.6c-0.5,1-1,1.7-1.7,2.2
		c-0.6,0.5-1.3,0.8-2.1,0.8C188.6,154.6,188.4,154.6,188.3,154.6L188.3,154.6z M188.3,140.7c0,0,0.1,0,0.1-0.1
		c0.4-0.2,0.8-0.5,1.1-0.8c0.4-0.3,0.7-0.6,1-1c0.3-0.3,0.7-0.7,1-1c0.3-0.3,0.7-0.6,1-0.8c0.3-0.2,0.7-0.4,1.1-0.5
		c0.4-0.1,0.8,0,1.2,0.1c0.6,0.2,1,0.5,1.3,0.8c0.3,0.3,0.5,0.8,0.5,1.2c0.1,0.5,0,1-0.2,1.6c-0.1,0.5-0.3,0.9-0.6,1.3
		c-0.2,0.4-0.5,0.8-0.7,1.1c-0.2,0.3-0.5,0.6-0.7,0.8l1.4,0.5c0-0.1,0.1-0.2,0.2-0.4c0.1-0.2,0.2-0.4,0.4-0.7
		c0.1-0.3,0.3-0.6,0.4-0.9c0.1-0.3,0.3-0.7,0.4-1c0.2-0.6,0.3-1.3,0.4-1.9c0-0.6,0-1.2-0.2-1.8c-0.2-0.6-0.4-1-0.8-1.5
		c-0.4-0.4-0.9-0.7-1.6-1c-0.5-0.2-1.1-0.2-1.5-0.2c-0.5,0-0.9,0.2-1.3,0.4c-0.4,0.2-0.8,0.5-1.2,0.8c-0.4,0.3-0.7,0.6-1.1,1
		c-0.3,0.3-0.7,0.7-1,1c-0.2,0.2-0.4,0.4-0.6,0.5V140.7z M188.3,138.4v2.3c-0.4,0.2-0.7,0.3-1.1,0.3c-0.5,0.1-0.9,0-1.5-0.2
		c-0.7-0.2-1.3-0.6-1.7-1.1c-0.4-0.5-0.6-1.1-0.6-1.9c0-0.7,0.1-1.6,0.4-2.4c0.1-0.4,0.3-0.8,0.5-1.2c0.2-0.4,0.3-0.7,0.4-1
		c0.1-0.3,0.3-0.5,0.4-0.7l1.4,0.5c-0.2,0.2-0.4,0.4-0.6,0.7c-0.2,0.3-0.5,0.6-0.7,1c-0.2,0.4-0.4,0.8-0.6,1.3
		c-0.2,0.5-0.2,0.9-0.2,1.3c0,0.4,0.2,0.8,0.4,1.1c0.2,0.3,0.5,0.5,1,0.6c0.4,0.1,0.8,0.1,1.1,0.1c0.4-0.1,0.7-0.2,1-0.5
		C188,138.6,188.1,138.5,188.3,138.4L188.3,138.4z M188.3,143.4v2.3c-0.3-0.1-0.5-0.3-0.8-0.4c-0.4-0.2-0.8-0.4-1.3-0.6
		c-0.4-0.2-0.9-0.4-1.4-0.5c-0.5-0.1-0.9-0.3-1.4-0.3c-0.3,0-0.7-0.1-1,0v-1.5c0.2-0.1,0.5-0.1,0.7-0.1c0.8-0.1,1.6,0,2.5,0.2
		C186.5,142.6,187.4,143,188.3,143.4L188.3,143.4z M188.3,152.8v1.8c-0.6,0-1.3-0.1-2-0.3c-0.9-0.2-1.8-0.6-2.7-1
		c-0.4-0.2-0.8-0.4-1.1-0.6v-2.3c0.1,0.1,0.3,0.2,0.4,0.2c0.5,0.3,1.1,0.6,1.6,0.8c0.4,0.2,0.8,0.4,1.3,0.6c0.4,0.2,0.9,0.4,1.4,0.5
		C187.5,152.7,187.9,152.8,188.3,152.8L188.3,152.8z M182.5,162.3v-1.9l1.4,0.4l-1.4-2.1v-2l3.7,5.4l-0.7,1L182.5,162.3z
		 M182.5,142.3v1.5c-0.1,0-0.2,0-0.3,0c-0.4,0.1-0.8,0.2-1.1,0.5c-0.3,0.3-0.6,0.6-0.9,1.1c-0.3,0.6-0.4,1.1-0.3,1.6
		c0,0.5,0.2,0.9,0.5,1.4c0.3,0.4,0.7,0.8,1.1,1.2c0.3,0.3,0.7,0.5,1.1,0.7v2.3c-0.6-0.3-1.1-0.7-1.5-1c-0.7-0.6-1.3-1.2-1.7-1.8
		c-0.4-0.7-0.6-1.4-0.6-2.2c0-0.8,0.2-1.6,0.7-2.6c0.5-0.9,1-1.6,1.6-2.1C181.5,142.7,182,142.5,182.5,142.3L182.5,142.3z
		 M182.5,156.7l-5-7.2l-0.7,1l5.7,8.2V156.7L182.5,156.7z M182.5,160.4v1.9l-9.2-2.4c-0.4-0.1-0.8-0.2-1-0.3c-0.3,0-0.5-0.1-0.7,0
		c-0.2,0-0.4,0.1-0.6,0.3c-0.2,0.1-0.4,0.4-0.7,0.6l-0.3-0.2l2-2.8L182.5,160.4L182.5,160.4z M156.5,188.5v-3.2
		c0.2,0.4,0.4,0.8,0.4,1.2c0.1,0.5,0,0.9-0.1,1.3C156.7,188.1,156.6,188.4,156.5,188.5L156.5,188.5z M156.5,179.7l4.9,6.7l1.5-1.1
		l-6.3-8.7V179.7L156.5,179.7z M156.5,173.7v-0.9l7.5-6.6l1.9,2.1l-0.5,0.4c-0.2-0.2-0.4-0.4-0.6-0.6c-0.2-0.2-0.4-0.3-0.6-0.3
		c-0.2-0.1-0.4,0-0.7,0.1c-0.3,0.1-0.5,0.3-0.9,0.6l-1.4,1.2l8.7,10l-1.4,1.2l-8.7-10l-1.4,1.2c-0.3,0.3-0.6,0.5-0.7,0.8
		c-0.1,0.2-0.2,0.5-0.2,0.7c0,0.2,0.1,0.4,0.2,0.6c0.1,0.2,0.3,0.5,0.5,0.7l-0.5,0.4L156.5,173.7z M156.5,172.8v0.9l-0.4-0.5
		L156.5,172.8L156.5,172.8z M156.5,176.6v3.1l-2-2.8c-0.2-0.3-0.4-0.5-0.6-0.6c-0.2-0.1-0.4-0.2-0.6-0.1c-0.2,0-0.4,0.1-0.6,0.2
		c-0.2,0.1-0.5,0.3-0.8,0.5l-0.2-0.2v-0.1l2.8-2.7L156.5,176.6L156.5,176.6z M156.5,185.4v3.2c-0.1,0.2-0.2,0.3-0.3,0.5
		c-0.3,0.3-0.6,0.7-0.9,0.9c-0.3,0.3-0.6,0.5-1,0.7c-0.3,0.2-0.6,0.4-0.8,0.5l-1.8,1.1v-1.2c0.1,0,0.3,0,0.4-0.1
		c0.2-0.1,0.5-0.3,0.9-0.5c0.4-0.2,0.8-0.5,1.1-0.8c0.3-0.3,0.6-0.6,0.7-1c0.2-0.4,0.3-0.8,0.2-1.2c0-0.4-0.2-0.9-0.5-1.4
		c-0.3-0.5-0.6-0.8-0.9-1c-0.3-0.2-0.6-0.4-1-0.5c-0.3-0.1-0.7-0.1-1-0.1h0v-1c0.4-0.1,0.7-0.2,1.1-0.3c0.4-0.1,0.8-0.1,1.2,0
		c0.4,0.1,0.8,0.3,1.2,0.5c0.4,0.3,0.8,0.7,1.1,1.3C156.4,185.2,156.5,185.3,156.5,185.4L156.5,185.4z M151.7,183.5
		c0.2-0.2,0.3-0.4,0.5-0.6c0.2-0.3,0.3-0.6,0.4-0.9c0.1-0.3,0.1-0.7,0.1-1.1c-0.1-0.4-0.2-0.8-0.5-1.3c-0.1-0.2-0.3-0.4-0.5-0.6
		V183.5z M151.7,176.5v0.1V176.5L151.7,176.5L151.7,176.5z M151.7,178.9v4.6l0,0l0,0l0,0v1c-0.3,0-0.6,0.1-1,0.2
		c-0.3,0.1-0.6,0.2-0.9,0.4c-0.1,0.1-0.2,0.1-0.3,0.1v-1c0.2-0.2,0.4-0.3,0.6-0.5c0.2-0.3,0.4-0.5,0.6-0.8c0.1-0.3,0.2-0.6,0.2-1
		c0-0.4-0.2-0.8-0.4-1.2c-0.3-0.4-0.6-0.8-0.9-1v-1.8c0.2,0,0.4,0,0.6,0.1c0.4,0.1,0.7,0.2,1,0.5
		C151.4,178.5,151.6,178.7,151.7,178.9L151.7,178.9z M151.7,191.1v1.2l-1.3,0.8l-0.8-1.3v-3.5l1,1.7c0.2,0.3,0.4,0.6,0.5,0.8
		c0.1,0.2,0.3,0.3,0.4,0.3C151.6,191.1,151.7,191.1,151.7,191.1z M149.6,177.9v1.8l0,0c-0.3-0.2-0.7-0.3-1-0.4c-0.4,0-0.7,0-1.1,0.1
		c-0.3,0.1-0.5,0.2-0.8,0.3v-1c0.1-0.1,0.3-0.1,0.4-0.2c0.3-0.2,0.6-0.3,0.9-0.4c0.3-0.1,0.7-0.2,1-0.3
		C149.3,177.9,149.5,177.9,149.6,177.9L149.6,177.9z M149.6,184.3v1c-0.1,0.1-0.3,0.2-0.4,0.2l-0.9,0.5l1.3,2.2v3.5l-2.9-4.8v-3.5
		l1.2,2l0.9-0.5c0.2-0.1,0.4-0.3,0.7-0.5C149.5,184.4,149.6,184.3,149.6,184.3L149.6,184.3z M146.7,194.5v-1.9l1.3,1.4L146.7,194.5z
		 M146.7,178.8v1c-0.1,0.1-0.2,0.1-0.3,0.2c-0.3,0.2-0.5,0.3-0.7,0.5c-0.2,0.1-0.3,0.3-0.3,0.4c0,0.1,0,0.3,0.1,0.5
		c0.1,0.2,0.2,0.4,0.4,0.7l0.8,1.3v3.5l-2-3.4V180l1.7-1C146.5,179,146.6,178.9,146.7,178.8L146.7,178.8z M146.7,192.6v1.9l-0.6,0.2
		l-1.4-1.6v-2.8L146.7,192.6z M144.7,180v3.5l-0.3-0.5c-0.2-0.3-0.4-0.6-0.6-0.8c-0.2-0.2-0.3-0.3-0.5-0.3c-0.2,0-0.4,0-0.7,0.1
		c-0.2,0.1-0.5,0.1-0.8,0.3v-0.5L144.7,180L144.7,180z M144.7,190.4v2.8l-1.9-2.1l-1,0.4v-0.9l0.4-0.2l-0.4-0.5v-2.6L144.7,190.4z
		 M141.8,181.8v0.5l-0.2,0.1l-0.2-0.3L141.8,181.8L141.8,181.8z M141.8,187.3v2.6l-1.9-2v-2.6L141.8,187.3L141.8,187.3z
		 M141.8,190.6v0.9l-1.9,0.8v-0.9L141.8,190.6z M139.9,185.3v2.6l-2.3-2.5l0.2,6.8l2.1-0.9v0.9l-2.1,0.8l0.2,5l-1.2,0.5l-0.3-12.4
		c0-0.2,0-0.4,0-0.6c0-0.2-0.1-0.4-0.1-0.6c-0.1-0.2-0.2-0.3-0.3-0.3c-0.2-0.1-0.4-0.1-0.6-0.1c-0.1,0-0.1,0-0.2,0V184l2.5-1
		L139.9,185.3L139.9,185.3z M135.2,198.9l0.8-0.2l-0.8-0.8V198.9z M135.2,184v0.6c-0.2,0-0.4,0-0.7,0.1l-0.1-0.3L135.2,184
		L135.2,184z M135.2,197.9v1l-1.2,0.3l-5.4-5.6v-1.2l0.1,0c0.3-0.1,0.7-0.2,1-0.4c0.3-0.2,0.6-0.4,0.9-0.7c0.2-0.3,0.4-0.6,0.5-1
		c0.1-0.4,0.1-0.9-0.1-1.5c-0.1-0.5-0.3-0.9-0.5-1.2c-0.2-0.3-0.5-0.5-0.9-0.6c-0.3-0.1-0.7-0.2-1-0.2V186c0.3,0,0.6-0.1,0.9-0.1
		c0.6,0,1.1,0,1.6,0.2c0.5,0.2,0.9,0.4,1.2,0.8c0.3,0.4,0.6,1,0.8,1.7c0.1,0.6,0.1,1.1,0,1.5c-0.1,0.4-0.3,0.8-0.6,1.2
		c-0.3,0.3-0.6,0.6-1,0.9c-0.4,0.2-0.8,0.4-1.2,0.6L135.2,197.9L135.2,197.9z M128.6,200.5l0.3-0.1l-0.3-1.3V200.5z M128.6,186v0.9
		h-0.1c-0.4,0-0.8,0-1.2,0.1c-0.3,0.1-0.6,0.1-0.8,0.2c-0.2,0.1-0.3,0.2-0.4,0.3c-0.1,0.1-0.1,0.3-0.1,0.5c0,0.2,0.1,0.4,0.1,0.7
		l0.9,4l0.6-0.1c0.3-0.1,0.6-0.1,0.9-0.2v1.2l-0.2-0.2l-1,0.2l1.3,5.4v1.4l-1.5,0.3l-2.7-11.6c-0.1-0.4-0.2-0.6-0.3-0.8
		c-0.1-0.2-0.2-0.3-0.4-0.4c-0.2-0.1-0.4-0.1-0.7-0.1c-0.1,0-0.2,0-0.3,0v-0.5l4.9-1.1C128,186.1,128.3,186,128.6,186L128.6,186z
		 M122.7,201.8l0.8-0.1l-0.2-2.9l-0.6,0.1l0,0V201.8z M122.7,187.3v0.5c-0.2,0-0.5,0-0.8,0l-0.1-0.3L122.7,187.3L122.7,187.3z
		 M122.7,198.9c0,0.4-0.1,0.7-0.1,1c0,0.3-0.1,0.5-0.2,0.7c-0.1,0.2-0.3,0.3-0.5,0.4c-0.2,0.1-0.5,0.2-0.8,0.2l-2.3,0.3
		c-0.4,0-0.7,0.1-0.9,0.1c-0.2,0-0.4,0-0.5-0.1c-0.1-0.1-0.2-0.2-0.3-0.3c-0.1-0.2-0.1-0.4-0.1-0.7l-0.6-4.9l2.7-0.3
		c0.4-0.1,0.8-0.1,1,0c0.3,0,0.5,0.1,0.6,0.3c0.1,0.1,0.3,0.3,0.3,0.5c0.1,0.2,0.2,0.5,0.3,0.8l0.5-0.1l-0.5-4.3l-0.5,0.1
		c0,0.3,0,0.5-0.1,0.7c0,0.2-0.1,0.4-0.2,0.6c-0.1,0.2-0.3,0.3-0.5,0.4c-0.2,0.1-0.6,0.2-1,0.3l-2.7,0.3l-0.5-4.1
		c0-0.3-0.1-0.5-0.1-0.7c0-0.2,0-0.3,0.1-0.4c0.1-0.1,0.2-0.2,0.4-0.3c0.2-0.1,0.4-0.1,0.7-0.1l2.2-0.3c0.4-0.1,0.8-0.1,1,0
		c0.3,0,0.4,0.1,0.6,0.3c0.1,0.1,0.2,0.3,0.3,0.5c0.1,0.2,0.2,0.4,0.2,0.7l0.6-0.1l-0.4-2.5l-9.6,1.2v0.4c0.4,0,0.7,0,0.9,0.1
		c0.3,0.1,0.5,0.1,0.7,0.3c0.2,0.1,0.3,0.3,0.4,0.5c0.1,0.2,0.1,0.5,0.2,0.7l1.5,11.8l7.2-0.9V198.9L122.7,198.9z M111.9,200.6v-2.9
		c0.2,0.5,0.3,1,0.2,1.6C112.1,199.8,112,200.2,111.9,200.6z M111.9,188.9v0.4c-0.1,0-0.1,0-0.2,0l-0.1-0.4L111.9,188.9L111.9,188.9
		z M111.9,197.7L111.9,197.7c-0.2-0.5-0.4-0.8-0.7-1.1c-0.3-0.3-0.6-0.5-1-0.7c-0.4-0.2-0.7-0.3-1.1-0.4v0c0.3,0,0.5-0.1,0.8-0.3
		c0.3-0.1,0.6-0.3,0.8-0.5c0.3-0.2,0.5-0.5,0.7-0.9c0.2-0.4,0.3-0.8,0.3-1.4c0-0.5,0-1-0.2-1.4c-0.2-0.4-0.4-0.7-0.6-1
		c-0.3-0.3-0.6-0.5-0.9-0.6c-0.3-0.2-0.7-0.3-1-0.3c-0.3-0.1-0.7-0.1-1-0.2c-0.3,0-0.5,0-0.7,0v0.8c0.2,0,0.4,0.1,0.5,0.1
		c0.4,0.1,0.7,0.3,1,0.5c0.3,0.2,0.5,0.5,0.6,0.9c0.2,0.4,0.2,0.8,0.2,1.3c0,0.5-0.1,0.9-0.3,1.3c-0.2,0.3-0.4,0.6-0.7,0.8
		c-0.3,0.2-0.6,0.3-0.9,0.4c-0.1,0-0.3,0.1-0.4,0.1v1c0.1,0,0.2,0,0.3,0.1c0.3,0.1,0.6,0.2,0.9,0.3c0.3,0.1,0.6,0.3,0.8,0.6
		c0.2,0.2,0.4,0.6,0.6,0.9c0.1,0.4,0.2,0.8,0.2,1.4c0,0.6-0.1,1.1-0.4,1.4c-0.2,0.4-0.5,0.7-0.8,0.9c-0.3,0.2-0.7,0.4-1.2,0.4
		c-0.2,0-0.3,0-0.5,0.1v0.9h0.1c0.4,0,0.8,0,1.2-0.1c0.4-0.1,0.8-0.1,1.2-0.3c0.4-0.1,0.8-0.3,1.1-0.6c0.3-0.3,0.6-0.6,0.8-1
		c0-0.1,0.1-0.2,0.1-0.3V197.7z M107.2,188.8v0.8c-0.2,0-0.4,0-0.6-0.1c-0.4,0-0.6,0-0.9,0c-0.2,0-0.4,0.1-0.5,0.2
		c-0.1,0.1-0.2,0.3-0.2,0.5c0,0.2-0.1,0.5-0.1,0.8l-0.1,3.9l1,0c0.2,0,0.5,0,0.8,0c0.2,0,0.3,0,0.5-0.1v1c-0.2,0-0.4-0.1-0.6-0.1
		c-0.3,0-0.6,0-0.8,0l-1,0l-0.2,4.5c0,0.4,0,0.7,0,0.9c0,0.2,0.1,0.4,0.2,0.5c0.1,0.1,0.3,0.2,0.5,0.2c0.2,0,0.6,0.1,1,0.1
		c0.3,0,0.6,0,0.9,0v0.9c-0.3,0-0.6,0-0.8,0l-3.6-0.1l0.4-11.7c0-0.4,0-0.7,0-1c0-0.2-0.1-0.4-0.3-0.5c-0.1-0.1-0.3-0.2-0.6-0.3
		c-0.3-0.1-0.6-0.2-1.1-0.3l0-0.4l5.9,0.2C107.1,188.8,107.2,188.8,107.2,188.8L107.2,188.8z M64.5,192.7v-1.6
		c0.1,0.1,0.3,0.3,0.4,0.4c0.3,0.3,0.6,0.6,1,0.9c0.4,0.3,0.8,0.5,1.2,0.7c0.6,0.3,1.1,0.4,1.6,0.4c0.5,0,0.9-0.1,1.3-0.4
		c0.4-0.3,0.7-0.7,0.9-1.2c0.2-0.4,0.3-0.8,0.2-1.2c0-0.4-0.1-0.7-0.3-1.1c-0.2-0.4-0.4-0.7-0.7-1.1c-0.3-0.4-0.6-0.7-0.8-1.1
		c-0.3-0.4-0.6-0.8-0.8-1.1c-0.3-0.4-0.5-0.8-0.6-1.2c-0.2-0.4-0.2-0.9-0.2-1.3c0-0.5,0.1-0.9,0.3-1.4c0.3-0.7,0.8-1.2,1.3-1.5
		c0.6-0.3,1.2-0.5,1.9-0.4c0.7,0,1.5,0.3,2.4,0.7c0.4,0.2,0.8,0.4,1.1,0.6c0.3,0.2,0.6,0.4,0.9,0.6c0.3,0.2,0.5,0.3,0.6,0.5
		l-0.6,1.3c-0.2-0.2-0.4-0.4-0.6-0.7c-0.3-0.3-0.6-0.5-0.9-0.8c-0.4-0.3-0.8-0.5-1.2-0.7c-0.5-0.2-0.9-0.3-1.3-0.3
		c-0.4,0-0.8,0.1-1.1,0.3c-0.3,0.2-0.6,0.5-0.8,0.9c-0.2,0.4-0.2,0.7-0.2,1.1c0,0.4,0.2,0.7,0.4,1.1c0.2,0.4,0.4,0.7,0.7,1.1
		c0.3,0.4,0.6,0.7,0.9,1.1c0.3,0.4,0.6,0.8,0.9,1.2c0.3,0.4,0.5,0.8,0.6,1.3c0.2,0.4,0.2,0.9,0.2,1.4c0,0.5-0.1,1-0.4,1.5
		c-0.3,0.7-0.7,1.2-1.2,1.5c-0.5,0.4-1,0.6-1.6,0.7c-0.6,0.1-1.2,0.1-1.8,0c-0.6-0.1-1.2-0.3-1.9-0.6c-0.3-0.2-0.7-0.3-1-0.5
		c-0.3-0.2-0.6-0.4-0.9-0.5L64.5,192.7L64.5,192.7z M64.5,180.9l0.9-4l-0.9-0.6V180.9L64.5,180.9z M85.8,200.4l7.6,1.5l0.7-3
		l-0.6-0.1c-0.1,0.3-0.2,0.6-0.3,0.9c-0.1,0.3-0.2,0.5-0.4,0.7c-0.1,0.2-0.3,0.3-0.6,0.3c-0.2,0.1-0.6,0.1-0.9,0l-1.8-0.4
		c-0.4-0.1-0.7-0.2-1-0.2c-0.2-0.1-0.4-0.2-0.5-0.3c-0.1-0.1-0.1-0.3-0.1-0.6c0-0.2,0.1-0.6,0.2-1l2.2-11.2l-3.9-0.3l-0.1,0.3
		c0.3,0.1,0.6,0.2,0.9,0.3c0.3,0.1,0.5,0.2,0.6,0.3c0.2,0.1,0.3,0.3,0.3,0.5c0,0.2,0,0.5,0,0.8L85.8,200.4L85.8,200.4z M96.4,202.1
		l1.8,0.2l1.7-14h-4l0,0.4c0.4,0.1,0.7,0.2,0.9,0.2c0.3,0.1,0.5,0.2,0.6,0.3c0.2,0.1,0.3,0.3,0.3,0.5c0.1,0.2,0.1,0.5,0,0.8
		L96.4,202.1z M64.5,176.3v4.7l-2.5,10.7l-1.7-1.1l1.1-4.9l-2.4-1.6v-1l2.7,1.8l1.6-6.6l-4.3,3v-1.4l3-2.2c0.2-0.1,0.3-0.2,0.5-0.4
		c0.2-0.1,0.3-0.3,0.4-0.4c0.1-0.1,0.1-0.3,0.1-0.5c0-0.2-0.1-0.3-0.3-0.5c-0.2-0.2-0.4-0.4-0.6-0.7l0.2-0.3L64.5,176.3L64.5,176.3z
		 M64.5,191.1c-0.1-0.1-0.2-0.3-0.3-0.4l-0.6,1.3c0.1,0.1,0.2,0.2,0.4,0.3c0.2,0.1,0.3,0.2,0.6,0.4V191.1L64.5,191.1z M59.1,175.7
		l1.3-1.5l-1.3-1.2V175.7z M59.1,173v2.7l-0.5,0.6l-0.5-0.4c0.2-0.3,0.4-0.5,0.5-0.7c0.1-0.2,0.2-0.4,0.3-0.6c0-0.2,0-0.4-0.1-0.7
		c-0.1-0.2-0.4-0.5-0.7-0.8l-1.4-1.3l-0.4,0.4v-1.9L59.1,173L59.1,173z M59.1,179.8v1.4l-1.3,0.9l1.3,0.9v1l-2-1.3l-0.9,0.7v-1.4
		L59.1,179.8z M56.2,170.4v1.9l-8.5,9.4l-1-0.9v-0.7l8.6-9.5l-1.4-1.3c-0.3-0.3-0.6-0.5-0.9-0.6c-0.2-0.1-0.5-0.1-0.7-0.1
		c-0.2,0.1-0.4,0.2-0.6,0.3c-0.2,0.2-0.4,0.3-0.7,0.6l-0.5-0.4l2-2.1L56.2,170.4L56.2,170.4z M56.2,181.9v1.4l-3.1,2.3l-1.1-0.7
		L56.2,181.9L56.2,181.9z M46.7,170.2l4.6-4.3l-3-2.5l-0.3,0.2c0.2,0.3,0.4,0.5,0.6,0.8c0.2,0.2,0.3,0.4,0.3,0.6
		c0.1,0.2,0,0.4-0.1,0.6c-0.1,0.2-0.3,0.4-0.5,0.7l-1.6,1.5V170.2L46.7,170.2z M46.7,164.4v-2.8c0.2,0.4,0.3,0.8,0.3,1.2
		c0.1,0.5,0,1-0.3,1.5C46.8,164.3,46.8,164.4,46.7,164.4z M46.7,161.7v2.8c-0.2,0.4-0.6,0.9-1.2,1.3c-0.5,0.4-0.9,0.6-1.4,0.7
		c-0.5,0.1-0.9,0.1-1.3,0c-0.4-0.1-0.8-0.3-1.2-0.5c-0.4-0.3-0.7-0.5-1.1-0.9l-0.4,1.1v-2.8l0.1,0.1c0.2,0.3,0.5,0.5,0.8,0.8
		c0.3,0.2,0.6,0.4,1,0.5c0.3,0.1,0.7,0.1,1.1,0c0.4-0.1,0.8-0.3,1.3-0.7c0.4-0.3,0.7-0.6,0.8-1c0.2-0.3,0.2-0.7,0.2-1
		c0-0.4-0.1-0.7-0.3-1c-0.2-0.3-0.4-0.7-0.6-1c-0.2-0.3-0.4-0.5-0.5-0.6c-0.2-0.1-0.3-0.2-0.4-0.2c-0.1,0-0.3,0-0.4,0.1
		c-0.2,0.1-0.4,0.2-0.6,0.4l-2.3,1.8v-2.3l1.2-1c0.3-0.2,0.5-0.4,0.6-0.6c0.1-0.2,0.2-0.4,0.2-0.5c0-0.2-0.1-0.4-0.2-0.7
		c-0.1-0.3-0.3-0.6-0.5-1l0.3-0.2l3.7,4.7c0.4,0.5,0.7,1,1,1.5C46.6,161.4,46.7,161.5,46.7,161.7L46.7,161.7z M46.7,167.7v2.5
		l-5.8,5.4l-0.7-0.8v-1L46.7,167.7L46.7,167.7z M46.7,180.1v0.7l-0.3-0.3L46.7,180.1L46.7,180.1z M40.2,154.7v-2.1l0.9,1.5
		L40.2,154.7z M40.2,152.6v2.1l-1.2,0.8l-0.3-0.6c0.2-0.2,0.4-0.4,0.6-0.5c0.1-0.2,0.3-0.3,0.3-0.5c0.1-0.2,0.1-0.4,0-0.6
		c-0.1-0.3-0.2-0.6-0.4-0.9l-1.2-1.9c-0.2-0.3-0.3-0.4-0.4-0.6c-0.1-0.1-0.3-0.2-0.4-0.2c-0.1,0-0.3,0-0.4,0.1c0,0-0.1,0-0.1,0.1
		v-3.1L40.2,152.6L40.2,152.6z M40.2,159.1v2.3l-0.9,0.7l0.3,0.4c0.2,0.2,0.4,0.5,0.6,0.7v2.8l-2.6,6.6l-1.1-1.4v-0.8l2.7-7.1
		l-0.6-0.8l-2.1,1.6v-2.3L40.2,159.1L40.2,159.1z M40.2,173.8v1l-0.5-0.5L40.2,173.8L40.2,173.8z M36.6,156l0.2-0.1l-0.2-0.4V156z
		 M30.3,145.4l5.3-0.3l-0.5-1.1l-4.7,0.3V145.4L30.3,145.4z M30.3,137.3l1.3-1.2l-1.3-2.9V137.3L30.3,137.3z M36.6,146.8v3.1
		c-0.1,0.1-0.3,0.2-0.5,0.3l-3.5,2.2l1.4,2.3c0.2,0.4,0.4,0.6,0.7,0.8c0.2,0.2,0.4,0.3,0.6,0.3c0.2,0,0.4,0,0.6,0
		c0.2-0.1,0.4-0.1,0.7-0.2l0,0v0.5l-3.4,2.2l-0.3-0.4c0.2-0.2,0.4-0.4,0.6-0.6c0.2-0.2,0.3-0.3,0.3-0.5c0.1-0.2,0-0.4,0-0.7
		c-0.1-0.3-0.2-0.6-0.5-0.9l-1.4-2.3l-1.6,1v-2.2l4.8-3c0.3-0.2,0.5-0.3,0.6-0.5c0.1-0.2,0.2-0.3,0.3-0.5c0-0.2,0-0.4-0.1-0.7
		c-0.1-0.3-0.2-0.6-0.4-1.1l0.3-0.2L36.6,146.8L36.6,146.8z M36.6,161.9v2.3l-3.4,2.7l-1.1-1.4L36.6,161.9L36.6,161.9z M36.6,170.5
		v0.8l-0.2-0.3L36.6,170.5L36.6,170.5z M30.3,161.3v-1c0.1,0,0.2,0,0.3-0.1c0.3-0.1,0.6-0.2,1-0.3l0.3,0.6L30.3,161.3z M19.8,144.9
		l0.5,1.1l10-0.6v-1.2l-7.7,0.5l7.7-7.4v-4.1l-0.1-0.3l-0.3,0.1c0.1,0.4,0.2,0.7,0.2,0.9c0,0.2,0,0.5-0.1,0.7
		c-0.1,0.2-0.2,0.4-0.4,0.6c-0.2,0.2-0.4,0.5-0.8,0.8L19.8,144.9L19.8,144.9z M30.3,151.7v2.2l-2.6,1.6c-0.3,0.2-0.4,0.3-0.6,0.4
		c-0.1,0.1-0.2,0.3-0.2,0.4c0,0.1,0.1,0.3,0.2,0.5c0.1,0.2,0.3,0.5,0.5,0.8l1.2,1.9c0.2,0.3,0.4,0.5,0.5,0.7
		c0.2,0.1,0.3,0.2,0.5,0.2c0.1,0,0.3,0,0.4,0v1l-0.9,0.5l-4.3-6.9L30.3,151.7z"/>
</g>
</svg>
