<?xml version="1.0" encoding="UTF-8" standalone="no"?>
<!-- Created with Inkscape (http://www.inkscape.org/) -->

<svg
   xmlns:dc="http://purl.org/dc/elements/1.1/"
   xmlns:cc="http://creativecommons.org/ns#"
   xmlns:rdf="http://www.w3.org/1999/02/22-rdf-syntax-ns#"
   xmlns:svg="http://www.w3.org/2000/svg"
   xmlns="http://www.w3.org/2000/svg"
   xmlns:sodipodi="http://sodipodi.sourceforge.net/DTD/sodipodi-0.dtd"
   xmlns:inkscape="http://www.inkscape.org/namespaces/inkscape"
   width="210mm"
   height="297mm"
   viewBox="0 0 744.09448819 1052.3622047"
   id="svg2"
   version="1.1"
   inkscape:version="0.91 r13725"
   sodipodi:docname="editables mapas.svg">
  <defs
     id="defs4" />
  <sodipodi:namedview
     id="base"
     pagecolor="#ffffff"
     bordercolor="#666666"
     borderopacity="1.0"
     inkscape:pageopacity="0.0"
     inkscape:pageshadow="2"
     inkscape:zoom="0.7"
     inkscape:cx="313.74092"
     inkscape:cy="661.74542"
     inkscape:document-units="px"
     inkscape:current-layer="layer1"
     showgrid="false"
     inkscape:window-width="1280"
     inkscape:window-height="960"
     inkscape:window-x="0"
     inkscape:window-y="27"
     inkscape:window-maximized="1" />
  <metadata
     id="metadata7">
    <rdf:RDF>
      <cc:Work
         rdf:about="">
        <dc:format>image/svg+xml</dc:format>
        <dc:type
           rdf:resource="http://purl.org/dc/dcmitype/StillImage" />
        <dc:title></dc:title>
      </cc:Work>
    </rdf:RDF>
  </metadata>
  <g
     inkscape:label="Capa 1"
     inkscape:groupmode="layer"
     id="layer1">
    <path
       style="fill:none;fill-rule:evenodd;stroke:#000000;stroke-width:8.86658192px;stroke-linecap:butt;stroke-linejoin:miter;stroke-opacity:1"
       d="M 662.76513,501.18926 Z"
       id="path3349"
       inkscape:connector-curvature="0"
       inkscape:export-xdpi="200"
       inkscape:export-ydpi="200" />
    <path
       style="fill:none"
       d="m 176.59014,337.54596 -18.347,-21.64288 -12.49071,3.79874 c -6.86989,2.0893 -18.4001,3.80159 -25.62269,3.8051 -12.05259,0.006 -14.20651,-0.6986 -26.204827,-8.57086 -15.68067,-10.28826 -17.85393,-15.48978 -18.08662,-43.28877 l -0.15526,-18.54907 -12.12183,-10.54324 -12.12183,-10.54325 0,-12.67158 c 0,-12.25442 0.2624,-12.89619 7.97043,-19.49398 15.90415,-13.61335 36.32161,-26.3324 44.947217,-27.99984 20.28992,-3.92229 21.49435,-3.46063 43.24185,16.57471 11.00442,10.13805 23.44133,20.72985 27.63757,23.5373 7.02219,4.69816 8.27705,4.91048 15.76417,2.66729 4.47405,-1.34045 8.62194,-3.70708 9.21753,-5.25916 0.59559,-1.55208 5.41363,-5.60099 10.70675,-8.99757 6.36747,-4.086 10.85394,-8.90348 13.25927,-14.23753 1.99948,-4.43406 4.17919,-8.0397 4.84381,-8.01254 0.66462,0.0272 5.04022,0.93369 9.72356,2.0145 9.32687,2.15244 17.82277,-0.35707 34.35432,-10.14754 6.9127,-4.09389 9.32567,-7.18886 12.76299,-16.37031 l 4.2387,-11.32199 -5.21945,-12.84516 c -2.8707,-7.06484 -7.49142,-15.21656 -10.26822,-18.11495 -3.02705,-3.15955 -5.97215,-9.67194 -7.35466,-16.263093 -2.29218,-10.92804 -2.25402,-11.08913 6.42818,-27.13161 4.80372,-8.87607 17.44665,-28.60146 28.09538,-43.8342 17.74983,-25.3907 19.88542,-27.70283 25.65791,-27.7792 6.02843,-0.0798 25.28246,6.6075 30.57399,10.61886 3.42229,2.59435 3.29919,9.67103 -0.14526,8.34928 -6.96955,-2.67447 -9.63454,13.30456 -13.23924,79.38169 -1.10457,20.247603 -2.54719,40.703193 -3.2058,45.456873 -0.65864,4.75367 0.13253,19.55269 1.75796,32.8867 2.90926,23.86469 2.88124,24.4963 -1.79223,40.4061 -2.61124,8.88934 -5.32496,20.40832 -6.03051,25.59773 -1.27322,9.36486 -1.35912,9.45485 -11.51079,12.05664 l -10.22799,2.62134 1.117,17.23779 c 0.61434,9.48079 1.74165,19.79259 2.50514,22.91511 1.14565,4.68559 0.65127,5.87002 -2.83021,6.78043 -2.99795,0.784 -5.09397,4.11522 -7.24505,11.51471 -3.41896,11.76082 -9.18221,16.41489 -23.07873,18.63703 -7.64407,1.22234 -8.40173,1.87874 -8.40173,7.27902 0,7.84722 -3.33158,13.7511 -7.75979,13.7511 -1.96737,0 -6.70836,-2.34943 -10.53552,-5.22097 -6.36388,-4.77483 -8.07321,-5.11166 -20.00332,-3.94154 -10.70766,1.05022 -14.50831,2.47591 -21.21321,7.95742 -4.49261,3.67289 -11.11045,7.10553 -14.70631,7.62813 -6.19199,0.89986 -7.50876,-0.19517 -24.88494,-20.69276 z"
       id="path3364"
       inkscape:connector-curvature="0"
       inkscape:export-xdpi="200.06792"
       inkscape:export-ydpi="200.06792" />
    <path
       style="fill:#ff5555"
       d="m 176.59014,337.54596 -18.347,-21.64288 -12.49071,3.79874 c -6.86989,2.0893 -18.4001,3.80159 -25.62269,3.8051 -12.05259,0.006 -14.20651,-0.6986 -26.204827,-8.57086 -15.68067,-10.28826 -17.85393,-15.48978 -18.08662,-43.28877 l -0.15526,-18.54907 -12.12183,-10.54324 -12.12183,-10.54325 0,-12.67158 c 0,-12.25442 0.2624,-12.89619 7.97043,-19.49398 15.90415,-13.61335 36.32161,-26.3324 44.947217,-27.99984 20.28992,-3.92229 21.49435,-3.46063 43.24185,16.57471 11.00442,10.13805 23.44133,20.72985 27.63757,23.5373 7.02219,4.69816 8.27705,4.91048 15.76417,2.66729 4.47405,-1.34045 8.62194,-3.70708 9.21753,-5.25916 0.59559,-1.55208 5.41363,-5.60099 10.70675,-8.99757 6.36747,-4.086 10.85394,-8.90348 13.25927,-14.23753 1.99948,-4.43406 4.17919,-8.0397 4.84381,-8.01254 0.66462,0.0272 5.04022,0.93369 9.72356,2.0145 9.32687,2.15244 17.82277,-0.35707 34.35432,-10.14754 6.9127,-4.09389 9.32567,-7.18886 12.76299,-16.37031 l 4.2387,-11.32199 -5.21945,-12.84516 c -2.8707,-7.06484 -7.49142,-15.21656 -10.26822,-18.11495 -3.02705,-3.15955 -5.97215,-9.67194 -7.35466,-16.263093 -2.29218,-10.92804 -2.25402,-11.08913 6.42818,-27.13161 4.80372,-8.87607 17.44665,-28.60146 28.09538,-43.8342 17.74983,-25.3907 19.88542,-27.70283 25.65791,-27.7792 6.02843,-0.0798 25.28246,6.6075 30.57399,10.61886 3.42229,2.59435 3.29919,9.67103 -0.14526,8.34928 -6.96955,-2.67447 -9.63454,13.30456 -13.23924,79.38169 -1.10457,20.247603 -2.54719,40.703193 -3.2058,45.456873 -0.65864,4.75367 0.13253,19.55269 1.75796,32.8867 2.90926,23.86469 2.88124,24.4963 -1.79223,40.4061 -2.61124,8.88934 -5.32496,20.40832 -6.03051,25.59773 -1.27322,9.36486 -1.35912,9.45485 -11.51079,12.05664 l -10.22799,2.62134 1.117,17.23779 c 0.61434,9.48079 1.74165,19.79259 2.50514,22.91511 1.14565,4.68559 0.65127,5.87002 -2.83021,6.78043 -2.99795,0.784 -5.09397,4.11522 -7.24505,11.51471 -3.41896,11.76082 -9.18221,16.41489 -23.07873,18.63703 -7.64407,1.22234 -8.40173,1.87874 -8.40173,7.27902 0,7.84722 -3.33158,13.7511 -7.75979,13.7511 -1.96737,0 -6.70836,-2.34943 -10.53552,-5.22097 -6.36388,-4.77483 -8.07321,-5.11166 -20.00332,-3.94154 -10.70766,1.05022 -14.50831,2.47591 -21.21321,7.95742 -4.49261,3.67289 -11.11045,7.10553 -14.70631,7.62813 -6.19199,0.89986 -7.50876,-0.19517 -24.88494,-20.69276 z"
       id="path3368"
       inkscape:connector-curvature="0"
       inkscape:export-xdpi="200.06792"
       inkscape:export-ydpi="200.06792" />
    <text
       xml:space="preserve"
       style="font-style:normal;font-weight:normal;font-size:80.63049316px;line-height:125%;font-family:sans-serif;letter-spacing:0px;word-spacing:0px;fill:#000000;fill-opacity:1;stroke:none;stroke-width:1px;stroke-linecap:butt;stroke-linejoin:miter;stroke-opacity:1"
       x="101.75906"
       y="265.94653"
       id="text3370"
       sodipodi:linespacing="125%"
       transform="scale(0.93457524,1.0700048)"
       inkscape:export-xdpi="200.06792"
       inkscape:export-ydpi="200.06792"><tspan
         sodipodi:role="line"
         id="tspan3372"
         x="101.75906"
         y="265.94653">BOSA</tspan></text>
    <path
       style="fill:#d7ff8d;fill-opacity:1"
       d="m 284.76964,846.13588 c -0.48295,-1.52166 -2.25447,-2.96809 -3.9367,-3.21429 -1.8835,-0.27567 -4.19263,-2.64305 -6.01033,-6.16194 -1.95757,-3.7897 -4.08107,-5.87444 -6.30487,-6.18983 -5.50721,-0.78103 -9.56153,0.88887 -11.65495,4.80046 -2.06693,3.86208 -3.16339,3.9373 -17.48036,1.1991 -5.00526,-0.95729 -6.6028,-6.26522 -3.37043,-11.19844 1.26519,-1.93092 2.30034,-4.8191 2.30034,-6.41818 0,-2.11145 0.93275,-2.9074 3.40713,-2.9074 3.69777,0 8.02144,-5.23945 8.02144,-9.72042 0,-1.47296 1.60715,-3.41036 3.57143,-4.30536 7.23416,-3.2961 3.65037,-20.92166 -5.88613,-28.94879 -4.30032,-3.61971 -17.07739,-8.454 -22.34396,-8.454 -3.31909,0 -5.89919,-1.12394 -8.19848,-3.57143 -4.91986,-5.23695 -10.32758,-4.70628 -16.03678,1.57375 -4.59926,5.0591 -8.90972,7.88274 -14.80182,9.69621 -2.53317,0.77967 -3.24392,0.0416 -4.727,-4.90846 -1.54149,-5.14504 -1.40314,-6.53338 1.18353,-11.87674 7.19732,-14.86767 4.75836,-25.50971 -8.45403,-36.88798 -10.31338,-8.88169 -9.81552,-11.42428 4.01711,-20.51562 6.15254,-4.0437 11.79862,-8.94098 12.86911,-11.16238 2.83594,-5.88498 0.97228,-17.18457 -3.20282,-19.41902 -1.77137,-0.94801 -4.3528,-3.64019 -5.73651,-5.98262 -3.32658,-5.63145 -7.30678,-6.94571 -21.03488,-6.94571 l -11.45238,0 -13.81177,-12.70972 c -19.63072,-18.0644 -22.84305,-20.55073 -25.32228,-19.59936 -1.4618,0.56094 -3.13541,-0.77733 -5.06765,-4.05223 -1.58677,-2.68937 -5.17507,-6.24092 -7.974009,-7.89233 -4.74067,-2.79707 -5.0282,-3.36535 -4.20105,-8.30304 0.48836,-2.91525 1.30043,-9.80046 1.8046,-15.30046 0.50416,-5.5 1.79171,-11.73593 2.86122,-13.85763 1.0695,-2.12169 1.94455,-5.98836 1.94455,-8.59258 0,-2.60423 1.285719,-7.13382 2.857149,-10.06577 1.64826,-3.0753 2.85714,-8.06012 2.85714,-11.78144 l 0,-6.45063 5.35714,0.79639 c 2.94643,0.43802 111.3752,12.6601 240.95283,27.16018 129.57762,14.50009 235.97047,26.73848 236.42857,27.19642 0.45809,0.45795 1.38903,21.51132 2.06877,46.78527 0.96103,35.73314 1.67586,46.45422 3.21429,48.20799 2.73311,3.1157 2.47683,6.97399 -0.5216,7.85263 -1.375,0.40293 -6.35714,2.58064 -11.07143,4.83938 -4.71428,2.25873 -11.46428,4.55679 -15,5.1068 -8.40563,1.30755 -17.01708,6.4786 -21.25557,12.76363 -2.43096,3.60475 -4.46441,5.04492 -7.14286,5.05886 -6.8682,0.0357 -9.40883,1.60729 -16.58127,10.25631 -9.09964,10.97298 -16.5116,14.76459 -31.44887,16.08778 -6.28571,0.55681 -16.89286,2.19507 -23.57143,3.64058 -6.67857,1.4455 -15.89463,3.08119 -20.48011,3.63484 -6.91996,0.83552 -9.25725,1.88675 -13.74893,6.18382 -2.97642,2.84744 -8.22464,7.4507 -11.66274,10.22944 -5.93485,4.7967 -6.6347,5.00282 -13.83455,4.07444 -4.1709,-0.5378 -8.72153,-2.00775 -10.11248,-3.26655 -1.39096,-1.2588 -3.82837,-2.28873 -5.41647,-2.28873 -2.82519,0 -13.53663,6.88954 -15.40069,9.90564 -0.51767,0.83762 -2.36983,1.52293 -4.11591,1.52293 -1.99663,0 -6.3388,3.22091 -11.7014,8.6798 -4.6897,4.7739 -10.15372,9.539 -12.14228,10.58911 -7.49128,3.95599 -10.99595,-3.44601 -6.60861,-13.95765 1.05527,-2.52833 2.38136,-7.06763 2.94686,-10.08733 l 1.02818,-5.49036 -4.73257,0.96264 c -2.60293,0.52945 -7.3025,2.77399 -10.44348,4.98786 -4.6438,3.27312 -5.9118,5.18687 -6.78606,10.24202 -0.59133,3.41922 -0.7318,7.12965 -0.31214,8.24541 0.41965,1.11576 -0.003,2.50233 -0.9402,3.08129 -1.15213,0.71205 1.08311,4.21572 6.90825,10.8285 12.3556,14.02622 12.84629,15.29407 7.41572,19.16098 -4.33657,3.08792 -4.58656,3.1037 -12.83427,0.81063 -11.99953,-3.33616 -15.19775,-2.99213 -21.42038,2.30424 -3.00015,2.55357 -7.41735,6.13819 -9.816,7.9658 -2.39864,1.82762 -4.36117,4.55976 -4.36117,6.07143 0,3.56512 -2.40934,3.55277 -3.5427,-0.0181 z"
       id="path3391"
       inkscape:connector-curvature="0"
       inkscape:export-xdpi="200"
       inkscape:export-ydpi="200" />
    <text
       xml:space="preserve"
       style="font-style:normal;font-weight:normal;font-size:121.78596497px;line-height:125%;font-family:sans-serif;letter-spacing:0px;word-spacing:0px;fill:#000000;fill-opacity:1;stroke:none;stroke-width:1px;stroke-linecap:butt;stroke-linejoin:miter;stroke-opacity:1"
       x="204.02573"
       y="680.94666"
       id="text4193"
       sodipodi:linespacing="125%"
       transform="scale(0.98927606,1.0108402)"
       inkscape:export-xdpi="200"
       inkscape:export-ydpi="200"><tspan
         sodipodi:role="line"
         id="tspan4195"
         x="204.02573"
         y="680.94666">SUBA</tspan></text>
  </g>
</svg>
