<?xml version="1.0" encoding="UTF-8"?>
<!DOCTYPE svg PUBLIC "-//W3C//DTD SVG 1.1//EN" "http://www.w3.org/Graphics/SVG/1.1/DTD/svg11.dtd">
<svg version="1.2" width="23.54mm" height="23.54mm" viewBox="4974 1574 2354 2354" preserveAspectRatio="xMidYMid" fill-rule="evenodd" stroke-width="28.222" stroke-linejoin="round" xmlns="http://www.w3.org/2000/svg" xmlns:ooo="http://xml.openoffice.org/svg/export" xmlns:xlink="http://www.w3.org/1999/xlink" xmlns:presentation="http://sun.com/xmlns/staroffice/presentation" xmlns:smil="http://www.w3.org/2001/SMIL20/" xmlns:anim="urn:oasis:names:tc:opendocument:xmlns:animation:1.0" xml:space="preserve">
 <defs class="ClipPathGroup">
  <clipPath id="presentation_clip_path" clipPathUnits="userSpaceOnUse">
   <rect x="4974" y="1574" width="2354" height="2354"/>
  </clipPath>
 </defs>
 <defs class="TextShapeIndex">
  <g ooo:slide="id1" ooo:id-list="id3 id4 id5 id6 id7 id8"/>
 </defs>
 <defs class="EmbeddedBulletChars">
  <g id="bullet-char-template(57356)" transform="scale(0.00048828125,-0.00048828125)">
   <path d="M 580,1141 L 1163,571 580,0 -4,571 580,1141 Z"/>
  </g>
  <g id="bullet-char-template(57354)" transform="scale(0.00048828125,-0.00048828125)">
   <path d="M 8,1128 L 1137,1128 1137,0 8,0 8,1128 Z"/>
  </g>
  <g id="bullet-char-template(10146)" transform="scale(0.00048828125,-0.00048828125)">
   <path d="M 174,0 L 602,739 174,1481 1456,739 174,0 Z M 1358,739 L 309,1346 659,739 1358,739 Z"/>
  </g>
  <g id="bullet-char-template(10132)" transform="scale(0.00048828125,-0.00048828125)">
   <path d="M 2015,739 L 1276,0 717,0 1260,543 174,543 174,936 1260,936 717,1481 1274,1481 2015,739 Z"/>
  </g>
  <g id="bullet-char-template(10007)" transform="scale(0.00048828125,-0.00048828125)">
   <path d="M 0,-2 C -7,14 -16,27 -25,37 L 356,567 C 262,823 215,952 215,954 215,979 228,992 255,992 264,992 276,990 289,987 310,991 331,999 354,1012 L 381,999 492,748 772,1049 836,1024 860,1049 C 881,1039 901,1025 922,1006 886,937 835,863 770,784 769,783 710,716 594,584 L 774,223 C 774,196 753,168 711,139 L 727,119 C 717,90 699,76 672,76 641,76 570,178 457,381 L 164,-76 C 142,-110 111,-127 72,-127 30,-127 9,-110 8,-76 1,-67 -2,-52 -2,-32 -2,-23 -1,-13 0,-2 Z"/>
  </g>
  <g id="bullet-char-template(10004)" transform="scale(0.00048828125,-0.00048828125)">
   <path d="M 285,-33 C 182,-33 111,30 74,156 52,228 41,333 41,471 41,549 55,616 82,672 116,743 169,778 240,778 293,778 328,747 346,684 L 369,508 C 377,444 397,411 428,410 L 1163,1116 C 1174,1127 1196,1133 1229,1133 1271,1133 1292,1118 1292,1087 L 1292,965 C 1292,929 1282,901 1262,881 L 442,47 C 390,-6 338,-33 285,-33 Z"/>
  </g>
  <g id="bullet-char-template(9679)" transform="scale(0.00048828125,-0.00048828125)">
   <path d="M 813,0 C 632,0 489,54 383,161 276,268 223,411 223,592 223,773 276,916 383,1023 489,1130 632,1184 813,1184 992,1184 1136,1130 1245,1023 1353,916 1407,772 1407,592 1407,412 1353,268 1245,161 1136,54 992,0 813,0 Z"/>
  </g>
  <g id="bullet-char-template(8226)" transform="scale(0.00048828125,-0.00048828125)">
   <path d="M 346,457 C 273,457 209,483 155,535 101,586 74,649 74,723 74,796 101,859 155,911 209,963 273,989 346,989 419,989 480,963 531,910 582,859 608,796 608,723 608,648 583,586 532,535 482,483 420,457 346,457 Z"/>
  </g>
  <g id="bullet-char-template(8211)" transform="scale(0.00048828125,-0.00048828125)">
   <path d="M -4,459 L 1135,459 1135,606 -4,606 -4,459 Z"/>
  </g>
 </defs>
 <defs class="TextEmbeddedBitmaps"/>
 <g class="SlideGroup">
  <g>
   <g id="id1" class="Slide" clip-path="url(#presentation_clip_path)">
    <g class="Page">
     <g class="Group">
      <g class="com.sun.star.drawing.CustomShape">
       <g id="id3">
        <rect class="BoundingBox" stroke="none" fill="none" x="4973" y="1573" width="2356" height="2356"/>
        <path fill="rgb(0,150,136)" stroke="none" d="M 6150,1600 C 6802,1600 7300,2098 7300,2750 7300,3402 6802,3900 6150,3900 5498,3900 5000,3402 5000,2750 5000,2098 5498,1600 6150,1600 Z M 5000,1600 L 5000,1600 Z M 7301,3901 L 7301,3901 Z"/>
        <path fill="none" stroke="rgb(0,150,136)" stroke-width="53" stroke-linejoin="round" d="M 6150,1600 C 6802,1600 7300,2098 7300,2750 7300,3402 6802,3900 6150,3900 5498,3900 5000,3402 5000,2750 5000,2098 5498,1600 6150,1600 Z"/>
       </g>
      </g>
      <g class="com.sun.star.drawing.CustomShape">
       <g id="id4">
        <rect class="BoundingBox" stroke="none" fill="none" x="5898" y="1799" width="1204" height="1904"/>
        <path fill="rgb(189,189,189)" stroke="none" d="M 5899,1800 C 6200,1970 6500,2247 6500,2750 6500,3253 6200,3530 5899,3701 6559,3701 7100,3272 7100,2750 7100,2228 6559,1800 5899,1800 L 5899,1800 Z M 7100,1800 L 7100,1800 Z M 5899,3701 L 5899,3701 Z"/>
        <path fill="none" stroke="rgb(189,189,190)" d="M 5899,1800 C 6200,1970 6500,2247 6500,2750 6500,3253 6200,3530 5899,3701 6559,3701 7100,3272 7100,2750 7100,2228 6559,1800 5899,1800 Z"/>
        <path fill="none" stroke="rgb(189,189,190)" d="M 7100,1800 L 7100,1800 Z"/>
        <path fill="none" stroke="rgb(189,189,190)" d="M 5899,3701 L 5899,3701 Z"/>
       </g>
      </g>
      <g class="com.sun.star.drawing.CustomShape">
       <g id="id5">
        <rect class="BoundingBox" stroke="none" fill="none" x="5399" y="2799" width="204" height="204"/>
        <path fill="rgb(3,169,244)" stroke="none" d="M 5500,2800 L 5477,2876 5400,2876 5462,2924 5439,3000 5500,2954 5561,3000 5538,2924 5600,2876 5523,2876 5500,2800 5500,2800 Z M 5400,2800 L 5400,2800 Z M 5601,3001 L 5601,3001 Z"/>
        <path fill="none" stroke="rgb(3,169,244)" d="M 5500,2800 L 5477,2876 5400,2876 5462,2924 5439,3000 5500,2954 5561,3000 5538,2924 5600,2876 5523,2876 5500,2800 5500,2800 Z"/>
        <path fill="none" stroke="rgb(3,169,244)" d="M 5400,2800 L 5400,2800 Z"/>
        <path fill="none" stroke="rgb(3,169,244)" d="M 5601,3001 L 5601,3001 Z"/>
       </g>
      </g>
      <g class="com.sun.star.drawing.CustomShape">
       <g id="id6">
        <rect class="BoundingBox" stroke="none" fill="none" x="5999" y="2399" width="204" height="204"/>
        <path fill="rgb(3,169,244)" stroke="none" d="M 6100,2400 L 6077,2476 6000,2476 6062,2524 6039,2600 6100,2554 6161,2600 6138,2524 6200,2476 6123,2476 6100,2400 6100,2400 Z M 6000,2400 L 6000,2400 Z M 6201,2601 L 6201,2601 Z"/>
        <path fill="none" stroke="rgb(3,169,244)" d="M 6100,2400 L 6077,2476 6000,2476 6062,2524 6039,2600 6100,2554 6161,2600 6138,2524 6200,2476 6123,2476 6100,2400 6100,2400 Z"/>
        <path fill="none" stroke="rgb(3,169,244)" d="M 6000,2400 L 6000,2400 Z"/>
        <path fill="none" stroke="rgb(3,169,244)" d="M 6201,2601 L 6201,2601 Z"/>
       </g>
      </g>
      <g class="com.sun.star.drawing.CustomShape">
       <g id="id7">
        <rect class="BoundingBox" stroke="none" fill="none" x="5499" y="2099" width="204" height="204"/>
        <path fill="rgb(3,169,244)" stroke="none" d="M 5600,2100 L 5577,2176 5500,2176 5562,2224 5539,2300 5600,2254 5661,2300 5638,2224 5700,2176 5623,2176 5600,2100 5600,2100 Z M 5500,2100 L 5500,2100 Z M 5701,2301 L 5701,2301 Z"/>
        <path fill="none" stroke="rgb(3,169,244)" d="M 5600,2100 L 5577,2176 5500,2176 5562,2224 5539,2300 5600,2254 5661,2300 5638,2224 5700,2176 5623,2176 5600,2100 5600,2100 Z"/>
        <path fill="none" stroke="rgb(3,169,244)" d="M 5500,2100 L 5500,2100 Z"/>
        <path fill="none" stroke="rgb(3,169,244)" d="M 5701,2301 L 5701,2301 Z"/>
       </g>
      </g>
      <g class="com.sun.star.drawing.CustomShape">
       <g id="id8">
        <rect class="BoundingBox" stroke="none" fill="none" x="5899" y="3099" width="204" height="204"/>
        <path fill="rgb(3,169,244)" stroke="none" d="M 6000,3100 L 5977,3176 5900,3176 5962,3224 5939,3300 6000,3254 6061,3300 6038,3224 6100,3176 6023,3176 6000,3100 6000,3100 Z M 5900,3100 L 5900,3100 Z M 6101,3301 L 6101,3301 Z"/>
        <path fill="none" stroke="rgb(3,169,244)" d="M 6000,3100 L 5977,3176 5900,3176 5962,3224 5939,3300 6000,3254 6061,3300 6038,3224 6100,3176 6023,3176 6000,3100 6000,3100 Z"/>
        <path fill="none" stroke="rgb(3,169,244)" d="M 5900,3100 L 5900,3100 Z"/>
        <path fill="none" stroke="rgb(3,169,244)" d="M 6101,3301 L 6101,3301 Z"/>
       </g>
      </g>
     </g>
    </g>
   </g>
  </g>
 </g>
</svg>